<svg width="20" height="19" viewBox="0 0 20 19" fill="none" xmlns="http://www.w3.org/2000/svg">
<path d="M15.1654 12.6654C14.0762 13.7545 12.6937 15.0545 11.0157 16.5664C11.0155 16.5666 11.0152 16.5669 11.0149 16.5671L10 17.477L8.98509 16.5671C8.98482 16.5669 8.98455 16.5666 8.98428 16.5664C7.30628 15.0545 5.92378 13.7545 4.83462 12.6654C3.74844 11.5792 2.89675 10.6162 2.27178 9.77489C1.64631 8.93291 1.2305 8.18673 1.00057 7.53403C0.766328 6.86908 0.65 6.19205 0.65 5.5C0.65 4.09518 1.11378 2.95546 2.03462 2.03462C2.95546 1.11378 4.09518 0.65 5.5 0.65C6.27163 0.65 7.00254 0.812491 7.69944 1.1387C8.39735 1.46538 8.99771 1.92447 9.50474 2.52097L10 3.10363L10.4953 2.52097C11.0023 1.92447 11.6026 1.46538 12.3006 1.1387C12.9975 0.812491 13.7284 0.65 14.5 0.65C15.9048 0.65 17.0445 1.11378 17.9654 2.03462C18.8862 2.95546 19.35 4.09518 19.35 5.5C19.35 6.19206 19.2337 6.86908 18.9994 7.53403C18.7695 8.18673 18.3537 8.93291 17.7282 9.77489C17.1033 10.6162 16.2516 11.5792 15.1654 12.6654Z" stroke="#222222" stroke-width="1.3"/>
</svg>
