<svg width="28" height="28" viewBox="0 0 28 28" fill="none" xmlns="http://www.w3.org/2000/svg">
<path d="M18.2162 9.20242L18.2162 9.20247C17.8692 11.3414 15.854 12.7938 13.7152 12.4467L13.7151 12.4467C11.5762 12.0996 10.1237 10.0845 10.4709 7.94563L10.4709 7.94559C10.8179 5.80681 12.8331 4.35421 14.972 4.70137L15.0761 4.05976L14.972 4.70137C17.1109 5.04854 18.5634 7.06378 18.2162 9.20242Z" stroke="#DE5935" stroke-width="1.3"/>
<path d="M22.0378 23.1017V23.11C22.0353 23.1487 22.0187 23.1856 21.9909 23.2133L21.9909 23.2134C21.9609 23.2434 21.9202 23.2603 21.878 23.2606H6.81019C6.768 23.2603 6.72732 23.2434 6.69728 23.2134L6.69727 23.2134C6.66709 23.1832 6.65012 23.1422 6.65 23.0998L6 23.1017H6.65C6.65 21.0612 7.4607 19.1043 8.90355 17.6613C10.3465 16.2184 12.3035 15.4078 14.3439 15.4078C16.3843 15.4078 18.3414 16.2184 19.7843 17.6613C21.2271 19.1043 22.0378 21.0614 22.0378 23.1017Z" stroke="#DE5935" stroke-width="1.3"/>
</svg>
