<svg width="466" height="58" viewBox="0 0 466 58" fill="none" xmlns="http://www.w3.org/2000/svg">
<path d="M3.32966 56.0353H1.60597C1.03001 56.0353 0.745531 55.7224 0.745531 55.085V41.8288C0.745531 40.9387 1.05944 40.4937 1.68025 40.4937H3.15309C3.55528 40.4937 3.80333 40.6257 3.93506 40.9014C4.06679 41.1684 4.24196 42.1044 4.46758 43.6936C5.4093 49.835 7.21427 52.9101 10.565 52.9101C12.3167 52.9101 13.7054 52.1291 14.699 50.5916C15.7066 49.0412 16.2027 47.1605 16.2027 44.9641C16.2027 42.6901 15.6772 40.5812 14.5967 38.6432C13.5303 36.698 11.4562 34.078 8.39703 30.7718C6.0231 28.2481 4.32884 26.2799 3.32826 24.8759C2.30331 23.4298 1.489 21.8388 0.910893 20.1528C0.299894 18.3798 0 16.4576 0 14.3401C0 10.4497 0.964145 7.2569 2.88403 4.74606C4.81232 2.23521 7.14981 0.987685 9.92453 0.987685C11.1872 0.987685 12.5451 1.35089 13.9983 2.07873C14.6416 2.4204 15.0872 2.57688 15.3212 2.57688C15.5398 2.57688 15.7949 2.4807 16.0724 2.28689C16.3498 2.11606 16.6932 2.03423 17.1094 2.03423H18.3874C19.0517 2.03423 19.388 2.34719 19.388 2.98459V14.6287C19.388 15.2158 19.14 15.5044 18.6285 15.5044H17.0295C16.6203 15.5044 16.3498 15.3938 16.2265 15.1713C16.1018 14.956 15.8762 14.0946 15.5538 12.6246C14.4664 7.54402 12.6992 4.99011 10.2595 4.99011C8.93796 4.99011 7.88693 5.55429 7.09095 6.6841C6.29497 7.80386 5.89278 9.11025 5.89278 10.5889C5.89278 12.2973 6.36083 14.0415 7.29415 15.8389C8.23027 17.6362 10.0843 19.9834 12.8744 22.879C16.4521 26.6144 18.9213 29.8818 20.2877 32.7027C21.6666 35.5251 22.3449 38.5915 22.3449 41.8962C22.3449 46.3523 21.207 49.9757 18.9059 52.7521C16.6217 55.5444 13.889 56.9412 10.7359 56.9412C9.32474 56.9412 8.03968 56.5622 6.15623 55.82C5.55785 55.5516 5.12622 55.4267 4.87117 55.4267C4.63715 55.4267 4.34566 55.5372 3.9799 55.7755C3.71644 55.9535 3.49783 56.0353 3.32966 56.0353ZM47.8751 56.0353H24.1919C23.6454 56.0353 23.3609 55.7525 23.3609 55.1884V53.6437C23.3609 53.1541 23.7393 52.6115 24.5002 52.0243C25.1645 51.4759 25.5148 50.6361 25.5148 49.4848V7.87851C25.5148 6.65396 25.0916 5.73231 24.2297 5.1308C23.6524 4.72883 23.3679 4.26226 23.3679 3.71961V2.03423C23.3679 1.5892 23.6524 1.37386 24.2003 1.37386H41.9753C42.2963 1.37386 42.8946 1.33653 43.7999 1.26188C44.6029 1.19585 45.1074 1.15852 45.3274 1.15852C46.0786 1.15852 46.4653 1.37386 46.4653 1.79018V12.1336C46.4653 12.6676 46.4149 12.9878 46.3112 13.0911C46.2173 13.2031 45.9188 13.2548 45.4283 13.2548H44.1503C43.5953 13.2548 43.2814 12.9289 43.217 12.2671C42.9605 10.4482 42.5079 8.87338 41.8506 7.58135C41.2004 6.28214 39.8789 5.63612 37.8987 5.63612H33.5405V25.5219H35.124C36.119 25.5219 36.7903 25.3295 37.163 24.9505C37.5274 24.5572 37.987 23.347 38.5364 21.3113C38.7256 20.6509 38.8489 20.2949 38.9217 20.2203C38.9946 20.1542 39.1992 20.1169 39.551 20.1169H41.0686C41.6684 20.1169 41.9669 20.4055 41.9669 20.9926V34.2474C41.9669 34.8116 41.6825 35.0872 41.1345 35.0872H39.551C39.2006 35.0872 38.9512 35.0054 38.8124 34.8188C38.6807 34.6408 38.4985 34.0995 38.2729 33.1937C37.8413 31.5298 37.3956 30.512 36.922 30.1416C36.4315 29.7842 35.7673 29.599 34.9138 29.599H33.5335V51.8549H38.2C39.9237 51.8549 41.1205 51.4386 41.7918 50.6059C42.4644 49.7747 43.2898 47.495 44.282 43.7682C44.516 42.9356 44.9322 42.5049 45.5306 42.5049H47.0133C47.5906 42.5049 47.8751 42.7949 47.8751 43.3806V56.0353ZM73.5357 42.6384C73.31 47.0055 72.259 50.4366 70.3826 52.9531C68.4977 55.4712 66.0579 56.7259 63.0716 56.7259C58.7778 56.7259 55.3388 54.3571 52.7463 49.6197C50.1608 44.8823 48.8617 37.9383 48.8617 28.8037C48.8617 19.7896 50.1173 12.8313 52.644 7.95316C55.1637 3.0736 58.405 0.631659 62.3779 0.631659C64.0063 0.631659 65.8169 1.18867 67.804 2.32565C68.0815 2.47352 68.2931 2.54099 68.4319 2.54099C68.593 2.54099 68.8186 2.40605 69.1185 2.11606C69.2783 1.87201 69.4759 1.74568 69.6945 1.72271H71.6746C72.1049 1.72271 72.3319 2.06438 72.3319 2.74054V14.2654C72.3319 14.9258 72.1119 15.2603 71.6732 15.2603H70.1471C69.6581 15.2603 69.3372 15.1268 69.162 14.867C68.9868 14.6071 68.7528 13.9008 68.4543 12.7566C67.0529 7.34447 65.1961 4.63408 62.8964 4.63408C61.5231 4.63408 60.4861 5.33896 59.749 6.73578C59.0118 8.14553 58.4499 10.8042 58.0547 14.7105C57.6644 18.6582 57.4694 22.6235 57.4703 26.5914C57.4703 35.3471 57.9608 41.7771 58.9236 45.8685C59.8877 49.9685 61.582 52.0171 64.0063 52.0171C66.8988 52.0171 68.8116 48.7497 69.7169 42.2078L73.5357 42.6384ZM88.2066 56.733C83.3943 56.733 79.8096 54.2825 77.4441 49.3599C75.0842 44.443 73.9014 37.634 73.9014 28.9458C73.9014 20.2576 75.0926 13.3668 77.4791 8.27904C79.8601 3.18701 83.3215 0.638837 87.8703 0.638837C92.1277 0.638837 95.5092 2.97885 98.0064 7.67035C100.512 12.3791 101.761 19.3216 101.761 28.5295C101.761 37.9153 100.526 44.9784 98.0513 49.6786C95.5681 54.3873 92.2888 56.733 88.2066 56.733ZM87.8283 52.946C88.8569 52.946 89.821 52.2626 90.6745 50.9031C91.5363 49.545 92.1655 45.8168 92.5299 39.7342C92.9026 33.6473 93.0764 28.0629 93.0764 22.9752C93.0764 18.3784 92.8003 14.6143 92.2524 11.6441C91.7059 8.68101 91.0991 6.77167 90.4488 5.91893C89.8056 5.06476 88.9662 4.63408 87.9586 4.63408C87.1108 4.63408 86.3372 4.95996 85.6576 5.62177C84.9793 6.26778 84.4468 7.44066 84.06 9.14901C83.6788 10.8487 83.3509 14.1678 83.058 19.1063C82.7671 24.2297 82.6236 29.3608 82.6278 34.4929C82.6278 41.1239 83.051 45.8541 83.9058 48.6837C84.7747 51.5204 86.0836 52.946 87.8283 52.946ZM123.989 30.9657V7.88569C123.989 6.68267 123.551 5.78542 122.675 5.16812C122.083 4.77477 121.784 4.29241 121.784 3.72822V2.1821C121.784 1.63226 122.076 1.37242 122.675 1.37242H130.489C131 1.37242 131.255 1.61073 131.255 2.10744V3.71961C131.255 4.25365 130.963 4.74319 130.387 5.15951C129.488 5.79834 129.036 6.69559 129.036 7.8699V55.1496C129.036 55.9004 128.699 56.278 128.027 56.278H126.516C125.815 56.278 125.325 55.9076 125.063 55.1496L110.721 16.8337V49.4848C110.721 50.7093 111.165 51.6238 112.057 52.231C112.641 52.633 112.934 53.101 112.934 53.6422V55.2242C112.934 55.7741 112.641 56.0267 112.043 56.0267H104.324C103.812 56.0267 103.564 55.7812 103.564 55.2917V53.6422C103.564 53.1297 103.863 52.6617 104.47 52.231C105.331 51.5994 105.784 50.6806 105.784 49.4848V7.87851C105.784 6.67549 105.331 5.77681 104.47 5.16812C103.863 4.76616 103.564 4.28523 103.564 3.72822V2.17635C103.564 1.6337 103.863 1.37386 104.461 1.37386H111.765C112.291 1.37386 112.648 1.43272 112.839 1.56766C113.021 1.70117 113.203 2.00552 113.385 2.50223L123.989 30.9657ZM133.607 3.72105V1.89354C133.607 1.53752 133.855 1.37386 134.396 1.37386H143.377C148.445 1.37386 152.731 3.47556 156.208 7.68614C159.691 11.8881 161.421 18.7129 161.421 28.1663C161.421 33.0372 160.896 37.7014 159.852 42.1345C158.801 46.5748 157.121 50.0059 154.799 52.4191C152.483 54.8395 148.576 56.0353 143.093 56.0353H134.212C133.805 56.0353 133.6 55.8344 133.6 55.4324V53.6437C133.6 53.1311 133.877 52.6631 134.455 52.2325C135.301 51.5721 135.738 50.6591 135.738 49.4862V7.87851C135.738 6.67549 135.36 5.80696 134.592 5.27292C133.935 4.77477 133.607 4.26226 133.607 3.72105ZM143.728 5.55429V51.9583C146.036 51.9583 147.825 51.3941 149.088 50.2729C150.359 49.1445 151.271 46.6868 151.849 42.8839C152.433 39.0968 152.71 34.7298 152.71 29.8143C152.71 24.4897 152.483 20.272 152.06 17.1524C151.622 14.0429 151.067 11.6957 150.416 10.1137C149.759 8.52453 148.942 7.41051 147.978 6.75732C147.014 6.08977 145.604 5.69498 143.728 5.55429ZM190.734 5.59162V26.2282H193.013C193.911 26.2282 194.539 26.0272 194.904 25.6109C195.255 25.2032 195.612 24.3792 195.992 23.1388C196.262 22.2258 196.452 21.6989 196.561 21.5726C196.672 21.4463 196.934 21.386 197.365 21.386H198.891C199.49 21.386 199.79 21.676 199.79 22.2258V34.3522C199.79 34.9379 199.556 35.2279 199.066 35.2279H197.365C196.977 35.2279 196.715 35.1619 196.59 35.0054C196.459 34.8561 196.292 34.434 196.094 33.7564C195.656 32.183 195.173 31.2327 194.67 30.891C194.183 30.5543 193.608 30.3757 193.02 30.3785H190.741V49.4632C190.741 50.6806 191.173 51.6022 192.048 52.2038C192.647 52.5971 192.947 53.0795 192.947 53.6149V55.1955C192.947 55.731 192.647 56.0052 192.048 56.0052H181.262C180.752 56.0052 180.504 55.7611 180.504 55.263V53.6049C180.504 53.0924 180.802 52.6258 181.402 52.1952C182.278 51.5635 182.724 50.6576 182.724 49.4532V7.84262C182.724 6.6396 182.256 5.72656 181.336 5.09634C180.707 4.70155 180.409 4.23499 180.409 3.69951V2.11032C180.409 1.59781 180.657 1.33797 181.168 1.33797H199.074C199.606 1.33797 200.447 1.2949 201.593 1.19728C202.221 1.12263 202.585 1.09248 202.703 1.09248C203.258 1.09248 203.594 1.15996 203.711 1.30782C203.82 1.44994 203.886 1.75285 203.886 2.22229V12.6906C203.886 13.2993 203.549 13.5965 202.878 13.5965H201.527C201.111 13.5965 200.841 13.5146 200.716 13.3381C200.593 13.1514 200.454 12.5801 200.293 11.5924C199.913 9.23802 199.278 7.63446 198.38 6.81761C197.468 5.99215 196.131 5.58301 194.386 5.58301H190.734V5.59162ZM215.68 30.4015V49.456C215.68 50.6734 216.117 51.5951 216.987 52.1966C217.593 52.5899 217.884 53.0723 217.884 53.6078V55.1884C217.884 55.7238 217.593 55.998 216.987 55.998H206.208C205.696 55.998 205.448 55.754 205.448 55.2558V53.5992C205.448 53.0881 205.748 52.6201 206.347 52.1894C207.222 51.5577 207.661 50.6519 207.661 49.4474V7.84406C207.661 6.64104 207.222 5.74236 206.347 5.13367C205.755 4.7317 205.448 4.24934 205.448 3.69234V2.13903C205.448 1.60499 205.748 1.33653 206.347 1.33653H215.409C220.529 1.33653 224.42 2.50367 227.101 4.84942C229.773 7.20379 231.102 10.5817 231.102 15.0148C231.102 22.0693 227.889 26.6287 221.456 28.6859C223.354 29.6291 224.779 30.6843 225.757 31.8729C226.742 33.0602 227.502 34.7972 228.02 37.0927L230.547 48.2387C230.869 49.6642 231.19 50.6289 231.497 51.1342C231.811 51.6468 232.322 52.1147 233.03 52.5598C233.235 52.6933 233.344 52.9158 233.344 53.2202V55.2257C233.344 55.7454 233.089 55.998 232.585 55.998H225.691C225.02 55.998 224.595 55.6276 224.413 54.8696L219.681 35.5409C219.185 33.409 218.616 32.028 218.009 31.3963C217.395 30.7575 216.622 30.4316 215.68 30.4015ZM215.68 5.59162V26.2282C218.17 26.2282 220.003 25.4343 221.179 23.838C222.355 22.2488 222.946 19.4034 222.946 15.3421C222.946 11.3469 222.355 8.73269 221.163 7.47798C219.967 6.21466 218.141 5.59162 215.68 5.59162ZM245.138 49.456C245.138 50.6734 245.568 51.5951 246.453 52.1966C247.044 52.5899 247.351 53.0723 247.351 53.6078V55.1884C247.351 55.7238 247.051 55.998 246.453 55.998H235.659C235.148 55.998 234.9 55.754 234.9 55.2558V53.5992C234.9 53.0881 235.191 52.6201 235.798 52.1894C236.674 51.5577 237.112 50.6519 237.112 49.4474V7.84406C237.112 6.64104 236.682 5.74236 235.798 5.13367C235.2 4.7317 234.9 4.24934 234.9 3.69234V2.13903C234.9 1.60499 235.191 1.33653 235.798 1.33653H246.576C247.08 1.33653 247.344 1.5892 247.344 2.07155V3.6909C247.344 4.22637 247.044 4.70873 246.446 5.13223C245.561 5.76389 245.131 6.66113 245.131 7.84262V49.456H245.138ZM274.537 55.998H250.863C250.301 55.998 250.023 55.7152 250.023 55.151V53.6063C250.023 53.1168 250.403 52.5741 251.17 51.9956C251.834 51.4529 252.17 50.6074 252.17 49.4546V7.84262C252.17 6.61807 251.754 5.71221 250.892 5.09634C250.315 4.70155 250.023 4.23499 250.023 3.69951V2.00552C250.023 1.56049 250.301 1.33797 250.863 1.33797H268.629C268.945 1.33797 269.564 1.30926 270.462 1.23461C271.267 1.16713 271.777 1.12263 271.981 1.12263C272.741 1.12263 273.128 1.33797 273.128 1.76147V12.1063C273.128 12.6404 273.077 12.9591 272.968 13.0639C272.859 13.1672 272.573 13.2189 272.084 13.2189H270.806C270.251 13.2189 269.937 12.893 269.871 12.2327C269.616 10.4123 269.163 8.84466 268.506 7.54689C267.849 6.24625 266.527 5.60023 264.54 5.60023H260.189V25.4946H261.772C262.766 25.4946 263.453 25.3008 263.825 24.9146C264.19 24.5285 264.642 23.3183 265.197 21.2769C265.381 20.6165 265.52 20.259 265.57 20.193C265.636 20.1183 265.855 20.081 266.191 20.081H267.717C268.315 20.081 268.622 20.371 268.622 20.9567V34.2043C268.622 34.7685 268.345 35.0585 267.79 35.0585H266.191C265.855 35.0585 265.607 34.9695 265.475 34.7915C265.329 34.6135 265.161 34.0708 264.92 33.1578C264.511 31.494 264.058 30.4776 263.576 30.1057C263.087 29.7497 262.423 29.5631 261.568 29.5631H260.189V51.8104H264.847C266.578 51.8104 267.783 51.4013 268.454 50.5614C269.127 49.7302 269.944 47.4591 270.937 43.7309C271.171 42.8911 271.588 42.4604 272.179 42.4604H273.669C274.246 42.4604 274.537 42.7576 274.537 43.3447V55.998ZM296.438 30.9226V7.84837C296.438 6.6597 296 5.74666 295.124 5.13797C294.517 4.73601 294.225 4.26226 294.225 3.69664V2.14621C294.225 1.60355 294.517 1.3351 295.124 1.3351H302.929C303.441 1.3351 303.696 1.58776 303.696 2.07012V3.68946C303.696 4.22494 303.411 4.7073 302.835 5.1308C301.937 5.76245 301.476 6.6597 301.476 7.84119V55.1209C301.476 55.8703 301.148 56.2406 300.475 56.2406H298.958C298.263 56.2406 297.774 55.8703 297.505 55.1209L283.162 16.7964V49.456C283.162 50.672 283.607 51.5936 284.491 52.1952C285.083 52.5885 285.374 53.0709 285.374 53.6063V55.1869C285.374 55.7224 285.076 55.9966 284.483 55.9966H276.764C276.246 55.9966 276.005 55.7525 276.005 55.2544V53.5977C276.005 53.0866 276.305 52.6186 276.911 52.188C277.78 51.5563 278.217 50.6505 278.217 49.446V7.84406C278.217 6.64104 277.773 5.74236 276.911 5.13367C276.305 4.7317 276.005 4.24934 276.005 3.69234V2.13903C276.005 1.60499 276.305 1.33653 276.911 1.33653H284.206C284.732 1.33653 285.083 1.40401 285.265 1.53752C285.454 1.66385 285.645 1.98255 285.827 2.45773L296.438 30.9226ZM305.683 3.6909V1.85622C305.683 1.50737 305.953 1.33653 306.479 1.33653H315.467C320.543 1.33653 324.816 3.43824 328.298 7.64882C331.775 11.8594 333.513 18.6756 333.513 28.1289C333.513 32.9999 332.994 37.6569 331.942 42.0972C330.898 46.5375 329.211 49.9685 326.897 52.3818C324.582 54.8022 320.682 55.9995 315.19 55.9995H306.304C305.888 55.9995 305.683 55.7985 305.683 55.3965V53.6078C305.683 53.0953 305.96 52.6273 306.545 52.1966C307.398 51.5362 307.823 50.6289 307.823 49.456V7.84262C307.823 6.6396 307.45 5.77825 306.684 5.23559C306.018 4.74606 305.683 4.23355 305.683 3.6909ZM315.811 5.5184V51.921C318.126 51.921 319.908 51.3568 321.171 50.2356C322.442 49.1072 323.363 46.6423 323.932 42.8552C324.509 39.0523 324.801 34.7011 324.801 29.777C324.801 24.4538 324.575 20.2432 324.143 17.1237C323.705 14.0056 323.15 11.6584 322.501 10.0692C321.844 8.49582 321.025 7.37462 320.068 6.71281C319.097 6.05244 317.68 5.65909 315.811 5.5184ZM363.387 20.9481V10.0089C363.387 7.20953 362.548 6.59366 360.948 6.59366C359.269 6.59366 358.421 7.21096 358.421 10.0104V16.8337C358.421 20.7845 371.479 32.7329 371.479 38.3317V48.1037C371.479 55.3219 365.914 57.4164 360.868 57.4164C355.91 57.4164 350.338 55.3219 350.338 48.1037V35.3844H358.414V47.406C358.414 50.2054 359.262 50.8227 360.941 50.8227C362.548 50.8227 363.38 50.2126 363.38 47.406V41.5919C363.38 33.8253 350.331 26.221 350.331 17.2127V9.31123C350.331 2.09453 355.903 0 360.861 0C365.907 0 371.47 2.09453 371.47 9.31123V20.9481H363.387ZM395.227 1.09105V8.30919H388.136V56.3397H380.051V8.30201H372.946V1.09105H395.227ZM396.767 9.31123C396.767 2.09453 402.331 0 407.297 0C412.336 0 417.908 2.09453 417.908 9.31123V48.1109C417.908 55.329 412.336 57.4236 407.297 57.4236C402.339 57.4236 396.767 55.329 396.767 48.1123V9.31123ZM404.851 47.406C404.851 50.2054 405.684 50.8227 407.369 50.8227C408.97 50.8227 409.816 50.2126 409.816 47.406V10.0089C409.816 7.20953 408.977 6.59366 407.369 6.59366C405.684 6.59366 404.851 7.21096 404.851 10.0104V47.406ZM422.188 56.3325V1.09105H432.863C439.356 1.09105 443.32 3.4167 443.32 10.5516V18.3942C443.32 22.5072 442.181 25.9167 435.31 26.6962V26.8513C439.129 27.4686 443.32 28.5668 443.32 33.5196C443.32 40.887 443.714 53.5403 444.321 56.3311H436.229C435.624 53.4585 435.237 41.6665 435.237 35.2351C435.237 31.8945 434.01 30.7202 430.278 30.7202V56.3311L422.188 56.3325ZM430.278 23.97H431.812C434.63 23.97 435.237 22.4196 435.237 20.4069V10.3879C435.237 8.30058 434.01 7.67753 432.192 7.67753H430.278V23.97ZM465.63 1.09105V8.30919H455.706V22.2703H465.235V29.4884H455.706V49.1129H465.769V56.3325H447.614V1.09105H465.63Z" fill="#222222"/>
</svg>
