<svg xmlns="http://www.w3.org/2000/svg" width="36" height="36" viewBox="0 0 36 36" fill="none">
<g clip-path="url(#clip0_6055_101070)">
<path d="M31.718 0H4.28959C1.92646 0 0.00390625 1.92257 0.00390625 4.28571V31.7143C0.00390625 34.0774 1.92646 36 4.28959 36H31.718C34.0811 36 36.0037 34.0774 36.0037 31.7143V4.28571C36.0037 1.92257 34.0811 0 31.718 0ZM28.2946 15.7054C28.098 15.7245 27.9006 15.7345 27.7031 15.7354C26.6368 15.7356 25.5872 15.4702 24.6491 14.9632C23.711 14.4562 22.9139 13.7236 22.3298 12.8314V22.7203C22.3298 24.1658 21.9011 25.5789 21.098 26.7809C20.2949 27.9828 19.1534 28.9196 17.8179 29.4728C16.4824 30.026 15.0128 30.1707 13.5951 29.8887C12.1773 29.6067 10.875 28.9106 9.85284 27.8884C8.83068 26.8663 8.13459 25.564 7.85258 24.1462C7.57056 22.7284 7.7153 21.2588 8.26849 19.9233C8.82168 18.5878 9.75846 17.4463 10.9604 16.6432C12.1623 15.8401 13.5754 15.4114 15.0209 15.4114C15.1735 15.4114 15.3227 15.4251 15.4727 15.4346V19.0363C15.3227 19.0183 15.1752 18.9909 15.0209 18.9909C14.0316 18.9909 13.0828 19.3839 12.3833 20.0834C11.6837 20.783 11.2907 21.7318 11.2907 22.7211C11.2907 23.7105 11.6837 24.6593 12.3833 25.3589C13.0828 26.0584 14.0316 26.4514 15.0209 26.4514C17.0815 26.4514 18.9012 24.828 18.9012 22.7674L18.9372 5.97257H22.3829C22.5403 7.46973 23.219 8.86392 24.3003 9.91135C25.3816 10.9588 26.7966 11.5928 28.298 11.7026V15.7054" fill="#ACACAC"/>
</g>
<defs>
<clipPath id="clip0_6055_101070">
<rect width="35.9998" height="36" rx="9.931" fill="white"/>
</clipPath>
</defs>
</svg>
