<svg xmlns="http://www.w3.org/2000/svg" width="36" height="36" viewBox="0 0 36 36" fill="none">
<g clip-path="url(#clip0_6055_101061)">
<path fill-rule="evenodd" clip-rule="evenodd" d="M35.9958 0H-0.00390625V36H35.9958V0ZM28.3307 22.3584C28.2701 22.2683 27.8993 21.7402 26.1156 20.2612C25.3214 19.6033 24.9099 19.2703 24.8722 18.8993C24.8211 18.3975 25.4537 17.8261 26.7479 16.2872C28.1178 14.6562 28.6584 13.1533 28.5293 12.7147C28.4408 12.4151 27.9356 12.4152 27.3901 12.4153L27.3587 12.4153C27.0253 12.4153 25.9836 12.4219 25.1448 12.4273C24.5794 12.4309 24.1062 12.4339 24.0041 12.4339C23.8662 12.4339 23.8049 12.4332 23.748 12.4486C23.7002 12.4614 23.6555 12.4855 23.5711 12.5307C23.3901 12.6275 23.2737 12.8234 23.2737 12.8234C23.2737 12.8234 22.7099 14.6048 22.001 15.6788C20.5083 17.9428 19.6695 17.77 19.4247 17.6285C18.9307 17.3434 18.945 16.5582 18.957 15.8959C18.9588 15.797 18.9606 15.7008 18.9606 15.6095C18.9606 15.1982 18.9701 14.8421 18.9784 14.5333C19.0143 13.1948 19.0264 12.7462 18.1329 12.5538C17.7693 12.4756 17.5006 12.4235 16.5684 12.4153C15.3707 12.4049 14.6762 12.4592 14.1659 12.6715C13.7839 12.839 13.4841 13.1325 13.6635 13.1541C13.8852 13.1809 14.3931 13.3529 14.6587 13.6761C15.0031 14.0939 14.9736 15.0316 14.9736 15.0316C14.9736 15.0316 15.1889 17.2152 14.5287 17.5354C14.0766 17.7566 13.457 17.7045 12.1254 15.6505C11.4436 14.5981 10.9085 12.9478 10.9085 12.9478C10.9085 12.9478 10.8097 12.7258 10.6318 12.6097C10.4165 12.4682 10.1167 12.4153 10.1167 12.4153L6.93116 12.416C6.93116 12.416 6.45193 12.3922 6.2757 12.5784C6.12021 12.7445 6.26294 13.017 6.26294 13.017C6.26294 13.017 8.67983 18.4313 11.4356 21.1191C13.3836 23.0205 15.3364 23.5865 17.1362 23.5865H18.1632C18.7158 23.5865 18.9606 23.4673 18.9606 23.2014V23.1812C18.9605 22.4432 18.9605 21.5888 19.6423 21.3984C20.2007 21.2421 20.9201 21.8054 21.6741 22.3958C22.027 22.6721 22.3875 22.9544 22.7426 23.1716C23.426 23.5947 24.2257 23.5865 24.2257 23.5865H27.511C27.511 23.5865 29.0699 23.4532 28.3307 22.3584Z" fill="#ACACAC"/>
</g>
<defs>
<clipPath id="clip0_6055_101061">
<rect width="35.9998" height="36" rx="9.931" fill="white"/>
</clipPath>
</defs>
</svg>
