<svg xmlns="http://www.w3.org/2000/svg" width="36" height="36" viewBox="0 0 36 36" fill="none">
<g clip-path="url(#clip0_6055_101067)">
<path d="M21.4713 21.4714C18.6427 24.39 18.437 28.0286 18.1927 36C25.6241 36 30.7541 35.9743 33.4026 33.4029C35.974 30.7543 35.9998 25.38 35.9998 18.1929C28.0284 18.45 24.3898 18.6429 21.4713 21.4714ZM0 18.1929C0 25.38 0.0257141 30.7543 2.59713 33.4029C5.24568 35.9743 10.3756 36 17.807 36C17.5499 28.0286 17.357 24.39 14.5285 21.4714C11.6099 18.6429 7.97137 18.4371 0 18.1929ZM17.807 0C10.3885 0 5.24568 0.0257143 2.59713 2.59714C0.0257141 5.24571 0 10.62 0 17.8071C7.97137 17.55 11.6099 17.3571 14.5285 14.5286C17.357 11.61 17.5627 7.97143 17.807 0ZM21.4713 14.5286C18.6427 11.61 18.437 7.97143 18.1927 0C25.6241 0 30.7541 0.0257143 33.4026 2.59714C35.974 5.24571 35.9998 10.62 35.9998 17.8071C28.0284 17.55 24.3898 17.3571 21.4713 14.5286Z" fill="#ACACAC"/>
<path d="M35.9998 18.1929V17.8071C28.0284 17.55 24.3898 17.3571 21.4713 14.5286C18.6427 11.61 18.437 7.97143 18.1927 0H17.807C17.5499 7.97143 17.357 11.61 14.5285 14.5286C11.6099 17.3571 7.97137 17.5629 0 17.8071V18.1929C7.97137 18.45 11.6099 18.6429 14.5285 21.4714C17.357 24.39 17.5627 28.0286 17.807 36H18.1927C18.4499 28.0286 18.6427 24.39 21.4713 21.4714C24.3898 18.6429 28.0284 18.4371 35.9998 18.1929Z" fill="#F6F6F6"/>
</g>
<defs>
<clipPath id="clip0_6055_101067">
<rect width="35.9998" height="36" fill="white"/>
</clipPath>
</defs>
</svg>