<svg xmlns="http://www.w3.org/2000/svg" width="131" height="16" viewBox="0 0 131 16" fill="none">
<path d="M1.53712 15.6132H1.05685C0.896368 15.6132 0.817103 15.526 0.817103 15.3484V11.6548C0.817103 11.4068 0.904568 11.2828 1.07754 11.2828H1.48792C1.59999 11.2828 1.6691 11.3196 1.7058 11.3964C1.74251 11.4708 1.79132 11.7316 1.85418 12.1744C2.11658 13.8856 2.6195 14.7424 3.5531 14.7424C4.04118 14.7424 4.42814 14.5248 4.70498 14.0964C4.98572 13.6644 5.12395 13.1404 5.12395 12.5284C5.12395 11.8948 4.97752 11.3072 4.67647 10.7672C4.37933 10.2252 3.80144 9.4952 2.94905 8.574C2.2876 7.8708 1.81553 7.3224 1.53673 6.9312C1.25115 6.52829 1.02426 6.08499 0.863178 5.6152C0.692935 5.1212 0.609375 4.5856 0.609375 3.9956C0.609375 2.9116 0.878016 2.022 1.41296 1.3224C1.95024 0.6228 2.60153 0.2752 3.37466 0.2752C3.72647 0.2752 4.10483 0.3764 4.50974 0.5792C4.68897 0.6744 4.81314 0.718 4.87834 0.718C4.93926 0.718 5.01032 0.6912 5.08763 0.6372C5.16495 0.5896 5.26061 0.5668 5.37658 0.5668H5.73269C5.91777 0.5668 6.01148 0.654 6.01148 0.8316V4.076C6.01148 4.2396 5.94237 4.32 5.79985 4.32H5.35432C5.24031 4.32 5.16495 4.2892 5.13059 4.2272C5.09583 4.1672 5.03297 3.9272 4.94316 3.5176C4.64016 2.102 4.14778 1.3904 3.46798 1.3904C3.09977 1.3904 2.80692 1.5476 2.58514 1.8624C2.36335 2.1744 2.25129 2.5384 2.25129 2.9504C2.25129 3.4264 2.3817 3.9124 2.64175 4.4132C2.90258 4.914 3.41917 5.568 4.19659 6.3748C5.19345 7.4156 5.88145 8.326 6.26216 9.112C6.64638 9.8984 6.83536 10.7528 6.83536 11.6736C6.83536 12.9152 6.5183 13.9248 5.87716 14.6984C5.2407 15.4764 4.47929 15.8656 3.60074 15.8656C3.20754 15.8656 2.84948 15.76 2.32469 15.5532C2.15797 15.4784 2.0377 15.4436 1.96664 15.4436C1.90143 15.4436 1.82021 15.4744 1.7183 15.5408C1.64489 15.5904 1.58398 15.6132 1.53712 15.6132ZM13.9489 15.6132H7.35C7.19772 15.6132 7.11845 15.5344 7.11845 15.3772V14.9468C7.11845 14.8104 7.22388 14.6592 7.4359 14.4956C7.62098 14.3428 7.7186 14.1088 7.7186 13.788V2.1952C7.7186 1.854 7.60068 1.5972 7.36054 1.4296C7.19967 1.3176 7.1204 1.1876 7.1204 1.0364V0.5668C7.1204 0.4428 7.19967 0.3828 7.35234 0.3828H12.305C12.3944 0.3828 12.5612 0.3724 12.8134 0.3516C13.0371 0.3332 13.1777 0.3228 13.239 0.3228C13.4483 0.3228 13.5561 0.3828 13.5561 0.4988V3.3808C13.5561 3.5296 13.542 3.6188 13.5131 3.6476C13.487 3.6788 13.4038 3.6932 13.2671 3.6932H12.911C12.7564 3.6932 12.6689 3.6024 12.651 3.418C12.5795 2.9112 12.4534 2.4724 12.2703 2.1124C12.0891 1.7504 11.7209 1.5704 11.1691 1.5704H9.9548V7.1112H10.396C10.6733 7.1112 10.8603 7.0576 10.9642 6.952C11.0657 6.8424 11.1937 6.5052 11.3468 5.938C11.3995 5.754 11.4339 5.6548 11.4542 5.634C11.4745 5.6156 11.5315 5.6052 11.6295 5.6052H12.0524C12.2195 5.6052 12.3027 5.6856 12.3027 5.8492V9.5424C12.3027 9.6996 12.2234 9.7764 12.0707 9.7764H11.6295C11.5319 9.7764 11.4624 9.7536 11.4237 9.7016C11.387 9.652 11.3363 9.5012 11.2734 9.2488C11.1531 8.7852 11.029 8.5016 10.897 8.3984C10.7603 8.2988 10.5752 8.2472 10.3375 8.2472H9.95285V14.4484H11.2531C11.7334 14.4484 12.0668 14.3324 12.2539 14.1004C12.4413 13.8688 12.6713 13.2336 12.9477 12.1952C13.0129 11.9632 13.1289 11.8432 13.2956 11.8432H13.7087C13.8696 11.8432 13.9489 11.924 13.9489 12.0872V15.6132ZM21.0987 11.8804C21.0358 13.0972 20.743 14.0532 20.2202 14.7544C19.695 15.456 19.0152 15.8056 18.1831 15.8056C16.9867 15.8056 16.0285 15.1456 15.3061 13.8256C14.5857 12.5056 14.2238 10.5708 14.2238 8.0256C14.2238 5.514 14.5736 3.5752 15.2776 2.216C15.9797 0.8564 16.8828 0.176 17.9898 0.176C18.4435 0.176 18.948 0.3312 19.5017 0.648C19.579 0.6892 19.638 0.708 19.6766 0.708C19.7215 0.708 19.7844 0.6704 19.868 0.5896C19.9125 0.5216 19.9675 0.4864 20.0284 0.48H20.5802C20.7 0.48 20.7633 0.5752 20.7633 0.7636V3.9748C20.7633 4.1588 20.702 4.252 20.5798 4.252H20.1546C20.0183 4.252 19.9289 4.2148 19.8801 4.1424C19.8313 4.07 19.7661 3.8732 19.6829 3.5544C19.2924 2.0464 18.775 1.2912 18.1343 1.2912C17.7516 1.2912 17.4627 1.4876 17.2573 1.8768C17.0519 2.2696 16.8953 3.0104 16.7852 4.0988C16.6765 5.19875 16.6221 6.30363 16.6224 7.4092C16.6224 9.8488 16.7591 11.6404 17.0273 12.7804C17.296 13.9228 17.768 14.4936 18.4435 14.4936C19.2495 14.4936 19.7824 13.5832 20.0347 11.7604L21.0987 11.8804ZM25.1865 15.8076C23.8456 15.8076 22.8468 15.1248 22.1877 13.7532C21.5302 12.3832 21.2006 10.486 21.2006 8.0652C21.2006 5.6444 21.5325 3.7244 22.1975 2.3068C22.8609 0.888 23.8253 0.178 25.0928 0.178C26.279 0.178 27.2212 0.83 27.917 2.1372C28.6152 3.4492 28.9631 5.3836 28.9631 7.9492C28.9631 10.5644 28.6191 12.5324 27.9295 13.842C27.2376 15.154 26.3239 15.8076 25.1865 15.8076ZM25.0811 14.7524C25.3677 14.7524 25.6363 14.562 25.8741 14.1832C26.1143 13.8048 26.2896 12.766 26.3911 11.0712C26.495 9.3752 26.5434 7.8192 26.5434 6.4016C26.5434 5.1208 26.4665 4.072 26.3138 3.2444C26.1615 2.4188 25.9924 1.8868 25.8113 1.6492C25.632 1.4112 25.3981 1.2912 25.1174 1.2912C24.8812 1.2912 24.6656 1.382 24.4762 1.5664C24.2873 1.7464 24.1389 2.0732 24.0311 2.5492C23.9249 3.0228 23.8335 3.9476 23.7519 5.3236C23.6709 6.75115 23.6309 8.18084 23.6321 9.6108C23.6321 11.4584 23.75 12.7764 23.9882 13.5648C24.2303 14.3552 24.5949 14.7524 25.0811 14.7524ZM35.1567 8.628V2.1972C35.1567 1.862 35.0345 1.612 34.7904 1.44C34.6256 1.3304 34.5421 1.196 34.5421 1.0388V0.608C34.5421 0.4548 34.6237 0.3824 34.7904 0.3824H36.9677C37.1102 0.3824 37.1812 0.4488 37.1812 0.5872V1.0364C37.1812 1.1852 37.0996 1.3216 36.9392 1.4376C36.6889 1.6156 36.5627 1.8656 36.5627 2.1928V15.3664C36.5627 15.5756 36.469 15.6808 36.2816 15.6808H35.8607C35.6655 15.6808 35.5288 15.5776 35.4558 15.3664L31.4597 4.6904V13.788C31.4597 14.1292 31.5835 14.384 31.8319 14.5532C31.9947 14.6652 32.0763 14.7956 32.0763 14.9464V15.3872C32.0763 15.5404 31.9947 15.6108 31.8279 15.6108H29.6773C29.5347 15.6108 29.4656 15.5424 29.4656 15.406V14.9464C29.4656 14.8036 29.5488 14.6732 29.7179 14.5532C29.958 14.3772 30.0841 14.1212 30.0841 13.788V2.1952C30.0841 1.86 29.958 1.6096 29.7179 1.44C29.5488 1.328 29.4656 1.194 29.4656 1.0388V0.6064C29.4656 0.4552 29.5488 0.3828 29.7155 0.3828H31.7506C31.8971 0.3828 31.9966 0.3992 32.0497 0.4368C32.1005 0.474 32.1513 0.5588 32.202 0.6972L35.1567 8.628ZM37.8364 1.0368V0.5276C37.8364 0.4284 37.9056 0.3828 38.0563 0.3828H40.5588C41.9707 0.3828 43.1651 0.9684 44.1339 2.1416C45.1042 3.3124 45.5864 5.214 45.5864 7.848C45.5864 9.2052 45.44 10.5048 45.1491 11.74C44.8563 12.9772 44.3881 13.9332 43.7411 14.6056C43.096 15.28 42.0074 15.6132 40.4795 15.6132H38.0051C37.8915 15.6132 37.8345 15.5572 37.8345 15.4452V14.9468C37.8345 14.804 37.9118 14.6736 38.0727 14.5536C38.3085 14.3696 38.4303 14.1152 38.4303 13.7884V2.1952C38.4303 1.86 38.3249 1.618 38.1109 1.4692C37.9278 1.3304 37.8364 1.1876 37.8364 1.0368ZM40.6564 1.5476V14.4772C41.2995 14.4772 41.7981 14.32 42.1499 14.0076C42.5041 13.6932 42.7583 13.0084 42.9192 11.9488C43.082 10.8936 43.1593 9.6768 43.1593 8.3072C43.1593 6.8236 43.096 5.6484 42.9781 4.7792C42.8559 3.9128 42.7013 3.2588 42.5201 2.818C42.337 2.3752 42.1093 2.0648 41.8407 1.8828C41.572 1.6968 41.1792 1.5868 40.6564 1.5476ZM53.7538 1.558V7.308H54.3887C54.639 7.308 54.8139 7.252 54.9158 7.136C55.0135 7.0224 55.113 6.7928 55.2188 6.4472C55.2942 6.1928 55.3469 6.046 55.3774 6.0108C55.4082 5.9756 55.4812 5.9588 55.6015 5.9588H56.0267C56.1934 5.9588 56.277 6.0396 56.277 6.1928V9.5716C56.277 9.7348 56.2118 9.8156 56.0755 9.8156H55.6015C55.4933 9.8156 55.4203 9.7972 55.3856 9.7536C55.3489 9.712 55.3024 9.5944 55.2473 9.4056C55.1251 8.9672 54.9908 8.7024 54.8506 8.6072C54.7148 8.51338 54.5545 8.46362 54.3907 8.4644H53.7558V13.782C53.7558 14.1212 53.876 14.378 54.1201 14.5456C54.2868 14.6552 54.3704 14.7896 54.3704 14.9388V15.3792C54.3704 15.5284 54.2868 15.6048 54.1201 15.6048H51.1146C50.9725 15.6048 50.9034 15.5368 50.9034 15.398V14.936C50.9034 14.7932 50.9866 14.6632 51.1537 14.5432C51.3977 14.3672 51.5219 14.1148 51.5219 13.7792V2.1852C51.5219 1.85 51.3915 1.5956 51.1353 1.42C50.96 1.31 50.8769 1.18 50.8769 1.0308V0.588C50.8769 0.4452 50.946 0.3728 51.0885 0.3728H56.0775C56.2259 0.3728 56.4601 0.3608 56.7795 0.3336C56.9545 0.3128 57.056 0.3044 57.0888 0.3044C57.2434 0.3044 57.3371 0.3232 57.3695 0.3644C57.4 0.404 57.4183 0.4884 57.4183 0.6192V3.536C57.4183 3.7056 57.3246 3.7884 57.1376 3.7884H56.7612C56.6452 3.7884 56.5699 3.7656 56.5351 3.7164C56.5007 3.6644 56.4621 3.5052 56.4172 3.23C56.3114 2.574 56.1345 2.1272 55.8842 1.8996C55.63 1.6696 55.2575 1.5556 54.7714 1.5556H53.7538V1.558ZM60.7045 8.4708V13.78C60.7045 14.1192 60.8263 14.376 61.0688 14.5436C61.2375 14.6532 61.3187 14.7876 61.3187 14.9368V15.3772C61.3187 15.5264 61.2375 15.6028 61.0688 15.6028H58.0653C57.9228 15.6028 57.8537 15.5348 57.8537 15.396V14.9344C57.8537 14.792 57.9373 14.6616 58.104 14.5416C58.348 14.3656 58.4703 14.1132 58.4703 13.7776V2.1856C58.4703 1.8504 58.348 1.6 58.104 1.4304C57.9392 1.3184 57.8537 1.184 57.8537 1.0288V0.596C57.8537 0.4472 57.9373 0.3724 58.104 0.3724H60.6291C62.0555 0.3724 63.1398 0.6976 63.8868 1.3512C64.6314 2.0072 65.0016 2.9484 65.0016 4.1836C65.0016 6.1492 64.1063 7.4196 62.314 7.9928C62.8427 8.2556 63.2398 8.5496 63.5124 8.8808C63.7868 9.2116 63.9985 9.6956 64.143 10.3352L64.847 13.4408C64.9368 13.838 65.0262 14.1068 65.1117 14.2476C65.1992 14.3904 65.3417 14.5208 65.5389 14.6448C65.5959 14.682 65.6263 14.744 65.6263 14.8288V15.3876C65.6263 15.5324 65.5553 15.6028 65.4147 15.6028H63.494C63.307 15.6028 63.1887 15.4996 63.1379 15.2884L61.8193 9.9028C61.6811 9.3088 61.5225 8.924 61.3535 8.748C61.1824 8.57 60.9669 8.4792 60.7045 8.4708ZM60.7045 1.558V7.308C61.3984 7.308 61.9091 7.0868 62.2367 6.642C62.5643 6.1992 62.7291 5.4064 62.7291 4.2748C62.7291 3.1616 62.5643 2.4332 62.2324 2.0836C61.8989 1.7316 61.3902 1.558 60.7045 1.558ZM68.9125 13.78C68.9125 14.1192 69.0324 14.376 69.2788 14.5436C69.4435 14.6532 69.529 14.7876 69.529 14.9368V15.3772C69.529 15.5264 69.4455 15.6028 69.2788 15.6028H66.2714C66.1289 15.6028 66.0598 15.5348 66.0598 15.396V14.9344C66.0598 14.792 66.141 14.6616 66.31 14.5416C66.5541 14.3656 66.6763 14.1132 66.6763 13.7776V2.1856C66.6763 1.8504 66.5564 1.6 66.31 1.4304C66.1433 1.3184 66.0598 1.184 66.0598 1.0288V0.596C66.0598 0.4472 66.141 0.3724 66.31 0.3724H69.3131C69.4537 0.3724 69.5271 0.4428 69.5271 0.5772V1.0284C69.5271 1.1776 69.4435 1.312 69.2768 1.43C69.0304 1.606 68.9105 1.856 68.9105 2.1852V13.78H68.9125ZM77.1041 15.6028H70.5076C70.351 15.6028 70.2737 15.524 70.2737 15.3668V14.9364C70.2737 14.8 70.3795 14.6488 70.5931 14.4876C70.7782 14.3364 70.8719 14.1008 70.8719 13.7796V2.1852C70.8719 1.844 70.7559 1.5916 70.5158 1.42C70.3549 1.31 70.2737 1.18 70.2737 1.0308V0.5588C70.2737 0.4348 70.351 0.3728 70.5076 0.3728H75.4579C75.5457 0.3728 75.7183 0.3648 75.9686 0.344C76.1927 0.3252 76.3349 0.3128 76.3919 0.3128C76.6035 0.3128 76.7113 0.3728 76.7113 0.4908V3.3732C76.7113 3.522 76.6972 3.6108 76.6668 3.64C76.6363 3.6688 76.5567 3.6832 76.4204 3.6832H76.0643C75.9097 3.6832 75.8222 3.5924 75.8038 3.4084C75.7328 2.9012 75.6067 2.4644 75.4235 2.1028C75.2404 1.7404 74.8722 1.5604 74.3185 1.5604H73.1061V7.1036H73.5473C73.8242 7.1036 74.0155 7.0496 74.1194 6.942C74.2209 6.8344 74.347 6.4972 74.5016 5.9284C74.5528 5.7444 74.5914 5.6448 74.6055 5.6264C74.6239 5.6056 74.6848 5.5952 74.7785 5.5952H75.2037C75.3704 5.5952 75.4559 5.676 75.4559 5.8392V9.5304C75.4559 9.6876 75.3786 9.7684 75.224 9.7684H74.7785C74.6848 9.7684 74.6157 9.7436 74.5789 9.694C74.5383 9.6444 74.4915 9.4932 74.4243 9.2388C74.3103 8.7752 74.1842 8.492 74.0499 8.3884C73.9136 8.2892 73.7285 8.2372 73.4903 8.2372H73.1061V14.436H74.404C74.8862 14.436 75.222 14.322 75.4091 14.088C75.5965 13.8564 75.8242 13.2236 76.101 12.1848C76.1662 11.9508 76.2822 11.8308 76.4469 11.8308H76.862C77.0229 11.8308 77.1041 11.9136 77.1041 12.0772V15.6028ZM83.2063 8.616V2.1868C83.2063 1.8556 83.0841 1.6012 82.84 1.4316C82.671 1.3196 82.5898 1.1876 82.5898 1.03V0.598C82.5898 0.4468 82.671 0.372 82.84 0.372H85.0149C85.1575 0.372 85.2285 0.4424 85.2285 0.5768V1.028C85.2285 1.1772 85.1493 1.3116 84.9888 1.4296C84.7385 1.6056 84.61 1.8556 84.61 2.1848V15.3584C84.61 15.5672 84.5187 15.6704 84.3312 15.6704H83.9084C83.7147 15.6704 83.5784 15.5672 83.5034 15.3584L79.507 4.68V13.78C79.507 14.1188 79.6312 14.3756 79.8776 14.5432C80.0424 14.6528 80.1236 14.7872 80.1236 14.9364V15.3768C80.1236 15.526 80.0404 15.6024 79.8752 15.6024H77.7245C77.5801 15.6024 77.5129 15.5344 77.5129 15.3956V14.934C77.5129 14.7916 77.5965 14.6612 77.7655 14.5412C78.0076 14.3652 78.1295 14.1128 78.1295 13.7772V2.1856C78.1295 1.8504 78.0057 1.6 77.7655 1.4304C77.5965 1.3184 77.5129 1.184 77.5129 1.0288V0.596C77.5129 0.4472 77.5965 0.3724 77.7655 0.3724H79.7979C79.9447 0.3724 80.0424 0.3912 80.0931 0.4284C80.1458 0.4636 80.1989 0.5524 80.2497 0.6848L83.2063 8.616ZM85.7822 1.0284V0.5172C85.7822 0.42 85.8576 0.3724 86.004 0.3724H88.5085C89.9227 0.3724 91.1133 0.958 92.0836 2.1312C93.0523 3.3044 93.5365 5.2036 93.5365 7.8376C93.5365 9.1948 93.392 10.4924 93.0988 11.7296C92.8079 12.9668 92.3378 13.9228 91.6931 14.5952C91.048 15.2696 89.9614 15.6032 88.4311 15.6032H85.9552C85.8392 15.6032 85.7822 15.5472 85.7822 15.4352V14.9368C85.7822 14.794 85.8595 14.6636 86.0224 14.5436C86.2601 14.3596 86.3785 14.1068 86.3785 13.78V2.1852C86.3785 1.85 86.2746 1.61 86.061 1.4588C85.8755 1.3224 85.7822 1.1796 85.7822 1.0284ZM88.6041 1.5376V14.4668C89.2492 14.4668 89.7458 14.3096 90.0976 13.9972C90.4518 13.6828 90.7083 12.996 90.8669 11.9408C91.0277 10.8812 91.109 9.6688 91.109 8.2968C91.109 6.8136 91.0461 5.6404 90.9258 4.7712C90.8036 3.9024 90.649 3.2484 90.4682 2.8056C90.2851 2.3672 90.057 2.0548 89.7904 1.8704C89.5198 1.6864 89.125 1.5768 88.6041 1.5376ZM101.86 5.8368V2.7888C101.86 2.0088 101.627 1.8372 101.181 1.8372C100.713 1.8372 100.477 2.0092 100.477 2.7892V4.6904C100.477 5.7912 104.115 9.1204 104.115 10.6804V13.4032C104.115 15.4144 102.564 15.998 101.158 15.998C99.7769 15.998 98.2244 15.4144 98.2244 13.4032V9.8592H100.475V13.2088C100.475 13.9888 100.711 14.1608 101.179 14.1608C101.627 14.1608 101.858 13.9908 101.858 13.2088V11.5888C101.858 9.4248 98.2225 7.306 98.2225 4.796V2.5944C98.2225 0.5836 99.775 0 101.156 0C102.563 0 104.113 0.5836 104.113 2.5944V5.8368H101.86ZM110.732 0.304V2.3152H108.756V15.698H106.503V2.3132H104.524V0.304H110.732ZM111.161 2.5944C111.161 0.5836 112.712 0 114.095 0C115.499 0 117.052 0.5836 117.052 2.5944V13.4052C117.052 15.4164 115.499 16 114.095 16C112.713 16 111.161 15.4164 111.161 13.4056V2.5944ZM113.414 13.2088C113.414 13.9888 113.646 14.1608 114.115 14.1608C114.561 14.1608 114.797 13.9908 114.797 13.2088V2.7888C114.797 2.0088 114.563 1.8372 114.115 1.8372C113.646 1.8372 113.414 2.0092 113.414 2.7892V13.2088ZM118.244 15.696V0.304H121.219C123.028 0.304 124.132 0.952 124.132 2.94V5.1252C124.132 6.2712 123.815 7.2212 121.9 7.4384V7.4816C122.964 7.6536 124.132 7.9596 124.132 9.3396C124.132 11.3924 124.242 14.918 124.411 15.6956H122.157C121.988 14.8952 121.88 11.6096 121.88 9.8176C121.88 8.8868 121.538 8.5596 120.498 8.5596V15.6956L118.244 15.696ZM120.498 6.6788H120.926C121.711 6.6788 121.88 6.2468 121.88 5.686V2.8944C121.88 2.3128 121.538 2.1392 121.032 2.1392H120.498V6.6788ZM130.348 0.304V2.3152H127.583V6.2052H130.238V8.2164H127.583V13.6844H130.387V15.696H125.329V0.304H130.348Z" fill="#222222"/>
</svg>