<svg width="207" height="28" viewBox="0 0 207 28" fill="none" xmlns="http://www.w3.org/2000/svg">
<path d="M3.35497 25.8419H2.60298C2.3517 25.8419 2.22759 25.7062 2.22759 25.43V19.6844C2.22759 19.2986 2.36454 19.1057 2.63538 19.1057H3.27793C3.4534 19.1057 3.56161 19.163 3.61908 19.2824C3.67655 19.3982 3.75297 19.8038 3.8514 20.4926C4.26224 23.1545 5.04969 24.4873 6.51148 24.4873C7.2757 24.4873 7.88157 24.1488 8.31503 23.4824C8.75461 22.8104 8.97104 21.9953 8.97104 21.0433C8.97104 20.0577 8.74177 19.1437 8.2704 18.3037C7.80515 17.4606 6.90032 16.325 5.56569 14.892C4.53002 13.7982 3.79087 12.9451 3.35435 12.3366C2.9072 11.7098 2.55195 11.0202 2.29974 10.2894C2.03318 9.521 1.90234 8.68785 1.90234 7.77007C1.90234 6.08384 2.32297 4.70002 3.16055 3.61175C4.0018 2.52349 5.02157 1.98278 6.23209 1.98278C6.78293 1.98278 7.37535 2.1402 8.00935 2.45567C8.28997 2.60375 8.48438 2.67158 8.58648 2.67158C8.68186 2.67158 8.79313 2.62989 8.91418 2.54589C9.03523 2.47184 9.18502 2.43638 9.36659 2.43638H9.92417C10.214 2.43638 10.3607 2.57202 10.3607 2.84829V7.89513C10.3607 8.14962 10.2525 8.27469 10.0293 8.27469H9.33175C9.15323 8.27469 9.03523 8.22678 8.98143 8.13033C8.92702 8.037 8.82859 7.66367 8.68797 7.02651C8.21355 4.82447 7.4426 3.71753 6.3782 3.71753C5.80168 3.71753 5.34315 3.96207 4.99589 4.45176C4.64863 4.93709 4.47317 5.50331 4.47317 6.1442C4.47317 6.88464 4.67737 7.64064 5.08454 8.41967C5.49294 9.19869 6.30178 10.216 7.51903 11.471C9.07986 13.0901 10.1571 14.5062 10.7532 15.7289C11.3548 16.9522 11.6507 18.2813 11.6507 19.7136C11.6507 21.645 11.1542 23.2155 10.1504 24.4189C9.15384 25.6291 7.96166 26.2345 6.58607 26.2345C5.97042 26.2345 5.40979 26.0702 4.5881 25.7486C4.32705 25.6322 4.13875 25.5781 4.02748 25.5781C3.92538 25.5781 3.79821 25.626 3.63864 25.7293C3.5237 25.8064 3.42833 25.8419 3.35497 25.8419ZM22.7887 25.8419H12.4565C12.218 25.8419 12.0939 25.7193 12.0939 25.4748V24.8053C12.0939 24.5931 12.259 24.3579 12.591 24.1034C12.8808 23.8657 13.0336 23.5017 13.0336 23.0027V4.96944C13.0336 4.43869 12.849 4.03922 12.473 3.77851C12.2211 3.60429 12.097 3.40207 12.097 3.16687V2.43638C12.097 2.24349 12.2211 2.15015 12.4601 2.15015H20.2148C20.3548 2.15015 20.6159 2.13398 21.0108 2.10162C21.3611 2.073 21.5812 2.05682 21.6772 2.05682C22.0049 2.05682 22.1736 2.15015 22.1736 2.3306V6.81371C22.1736 7.04518 22.1516 7.18393 22.1064 7.22873C22.0654 7.27727 21.9352 7.29967 21.7212 7.29967H21.1636C20.9215 7.29967 20.7846 7.15842 20.7565 6.87158C20.6446 6.08322 20.4471 5.40064 20.1604 4.84064C19.8767 4.27753 19.3002 3.99753 18.4363 3.99753H16.5349V12.6166H17.2258C17.6599 12.6166 17.9527 12.5332 18.1153 12.3689C18.2743 12.1984 18.4748 11.6739 18.7145 10.7916C18.797 10.5054 18.8508 10.351 18.8826 10.3187C18.9144 10.2901 19.0037 10.2739 19.1571 10.2739H19.8192C20.0809 10.2739 20.2111 10.399 20.2111 10.6534V16.3984C20.2111 16.643 20.087 16.7624 19.848 16.7624H19.1571C19.0043 16.7624 18.8955 16.727 18.8349 16.6461C18.7775 16.5689 18.698 16.3343 18.5995 15.9417C18.4112 15.2206 18.2168 14.7794 18.0102 14.6189C17.7962 14.4639 17.5064 14.3837 17.1341 14.3837H16.5319V24.03H18.5678C19.3197 24.03 19.8419 23.8495 20.1347 23.4886C20.4282 23.1284 20.7883 22.1403 21.2211 20.525C21.3232 20.1641 21.5048 19.9774 21.7658 19.9774H22.4127C22.6646 19.9774 22.7887 20.1031 22.7887 20.357V25.8419ZM33.9835 20.0353C33.8851 21.9281 33.4266 23.4152 32.6079 24.506C31.7856 25.5974 30.7212 26.1412 29.4184 26.1412C27.5452 26.1412 26.0448 25.1145 24.9138 23.0612C23.7858 21.0078 23.2191 17.9982 23.2191 14.039C23.2191 10.132 23.7669 7.11611 24.8692 5.0018C25.9684 2.88687 27.3825 1.82847 29.1158 1.82847C29.8262 1.82847 30.6161 2.06989 31.483 2.56269C31.6041 2.62678 31.6964 2.65602 31.7569 2.65602C31.8272 2.65602 31.9256 2.59753 32.0565 2.47184C32.1262 2.36607 32.2124 2.31131 32.3078 2.30135H33.1716C33.3593 2.30135 33.4584 2.44944 33.4584 2.74251V7.73771C33.4584 8.02393 33.3624 8.16891 33.171 8.16891H32.5052C32.2919 8.16891 32.1518 8.11104 32.0754 7.99842C31.999 7.8858 31.8969 7.57967 31.7667 7.08376C31.1553 4.73798 30.3452 3.56322 29.342 3.56322C28.7428 3.56322 28.2904 3.86873 27.9688 4.47415C27.6473 5.08518 27.4021 6.23753 27.2297 7.9306C27.0594 9.64163 26.9743 11.3603 26.9747 13.0801C26.9747 16.875 27.1887 19.662 27.6087 21.4353C28.0294 23.2124 28.7685 24.1003 29.8262 24.1003C31.0881 24.1003 31.9226 22.6841 32.3175 19.8486L33.9835 20.0353ZM40.384 26.1443C38.2845 26.1443 36.7206 25.0822 35.6886 22.9486C34.6591 20.8174 34.1431 17.8662 34.1431 14.1006C34.1431 10.3349 34.6628 7.3482 35.7039 5.14304C36.7426 2.93602 38.2527 1.83158 40.2373 1.83158C42.0946 1.83158 43.5698 2.8458 44.6593 4.87922C45.7524 6.92011 46.2972 9.92918 46.2972 13.9201C46.2972 17.9882 45.7586 21.0495 44.6789 23.0867C43.5955 25.1276 42.1649 26.1443 40.384 26.1443ZM40.2189 24.5029C40.6677 24.5029 41.0883 24.2067 41.4606 23.6174C41.8366 23.0288 42.1111 21.4129 42.2701 18.7766C42.4327 16.1383 42.5085 13.7179 42.5085 11.5127C42.5085 9.52038 42.3881 7.88891 42.149 6.60153C41.9106 5.31727 41.6459 4.48971 41.3622 4.12011C41.0816 3.74989 40.7153 3.56322 40.2758 3.56322C39.9059 3.56322 39.5684 3.70447 39.2719 3.99131C38.976 4.27131 38.7437 4.77967 38.5749 5.52011C38.4086 6.25682 38.2656 7.6954 38.1378 9.83585C38.0109 12.0565 37.9483 14.2804 37.9501 16.5048C37.9501 19.3789 38.1347 21.4291 38.5077 22.6555C38.8867 23.885 39.4578 24.5029 40.2189 24.5029ZM55.9948 14.976V4.97256C55.9948 4.45113 55.8034 4.06224 55.4213 3.79469C55.1633 3.6242 55.0325 3.41513 55.0325 3.1706V2.50047C55.0325 2.26215 55.1603 2.14953 55.4213 2.14953H58.8303C59.0535 2.14953 59.1647 2.25282 59.1647 2.46811V3.16687C59.1647 3.39833 59.037 3.61051 58.7857 3.79095C58.3938 4.06784 58.1963 4.45673 58.1963 4.96571V25.458C58.1963 25.7834 58.0496 25.9471 57.7561 25.9471H57.0971C56.7914 25.9471 56.5774 25.7865 56.4631 25.458L50.2063 8.85087V23.0027C50.2063 23.5334 50.4001 23.9298 50.7889 24.193C51.0439 24.3672 51.1717 24.5701 51.1717 24.8046V25.4903C51.1717 25.7286 51.0439 25.8382 50.7828 25.8382H47.4154C47.1922 25.8382 47.084 25.7318 47.084 25.5196V24.8046C47.084 24.5825 47.2142 24.3797 47.479 24.193C47.855 23.9192 48.0524 23.521 48.0524 23.0027V4.96944C48.0524 4.44802 47.855 4.05851 47.479 3.79469C47.2142 3.62047 47.084 3.41202 47.084 3.1706V2.49798C47.084 2.26278 47.2142 2.15015 47.4753 2.15015H50.6618C50.891 2.15015 51.0469 2.17567 51.1301 2.23415C51.2096 2.29202 51.289 2.42393 51.3685 2.63922L55.9948 14.976ZM60.1906 3.16749V2.3754C60.1906 2.22109 60.2988 2.15015 60.5348 2.15015H64.4531C66.6638 2.15015 68.534 3.06109 70.0508 4.88607C71.5701 6.70731 72.3252 9.66536 72.3252 13.7627C72.3252 15.8739 72.0959 17.8955 71.6404 19.8169C71.1819 21.7414 70.4489 23.2286 69.4358 24.2745C68.4258 25.3236 66.7213 25.8419 64.329 25.8419H60.4547C60.2768 25.8419 60.1876 25.7548 60.1876 25.5806V24.8053C60.1876 24.5831 60.3086 24.3803 60.5605 24.1936C60.9298 23.9074 61.1205 23.5117 61.1205 23.0033V4.96944C61.1205 4.44802 60.9555 4.07158 60.6204 3.84011C60.3337 3.6242 60.1906 3.40207 60.1906 3.16749ZM64.606 3.96207V24.0748C65.6129 24.0748 66.3936 23.8302 66.9445 23.3443C67.499 22.8552 67.897 21.79 68.1489 20.1417C68.4038 18.5003 68.5249 16.6075 68.5249 14.477C68.5249 12.1692 68.4258 10.3411 68.2412 8.989C68.0498 7.64127 67.8077 6.62393 67.524 5.93824C67.2373 5.24944 66.8809 4.7666 66.4603 4.48349C66.0396 4.19415 65.4246 4.02304 64.606 3.96207ZM85.1132 3.97824V12.9227H86.1073C86.4992 12.9227 86.7731 12.8356 86.9327 12.6551C87.0855 12.4784 87.2414 12.1213 87.4071 11.5837C87.5251 11.1879 87.6076 10.9596 87.6553 10.9048C87.7036 10.8501 87.818 10.8239 88.0063 10.8239H88.672C88.9331 10.8239 89.0639 10.9496 89.0639 11.1879V16.4438C89.0639 16.6977 88.9618 16.8234 88.7485 16.8234H88.0063C87.8369 16.8234 87.7226 16.7948 87.6682 16.727C87.6107 16.6622 87.5379 16.4793 87.4517 16.1856C87.2604 15.5037 87.0501 15.0918 86.8306 14.9437C86.6179 14.7977 86.3669 14.7203 86.1104 14.7215H85.1163V22.9934C85.1163 23.521 85.3046 23.9205 85.6867 24.1812C85.9478 24.3517 86.0786 24.5607 86.0786 24.7928V25.4779C86.0786 25.71 85.9478 25.8288 85.6867 25.8288H80.981C80.7584 25.8288 80.6502 25.723 80.6502 25.5071V24.7885C80.6502 24.5663 80.7804 24.3641 81.0421 24.1775C81.4242 23.9037 81.6186 23.511 81.6186 22.989V4.95389C81.6186 4.43247 81.4144 4.03673 81.0134 3.76358C80.7389 3.59247 80.6087 3.39024 80.6087 3.15815V2.46935C80.6087 2.24722 80.7169 2.1346 80.94 2.1346H88.7515C88.9838 2.1346 89.3507 2.11593 89.8508 2.07362C90.1247 2.04127 90.2836 2.0282 90.335 2.0282C90.5771 2.0282 90.7238 2.05744 90.7746 2.12153C90.8223 2.18313 90.851 2.31442 90.851 2.51789V7.05513C90.851 7.31896 90.7042 7.44776 90.4114 7.44776H89.822C89.6405 7.44776 89.5225 7.41229 89.4681 7.33576C89.4143 7.25487 89.3537 7.00722 89.2834 6.57913C89.1177 5.55869 88.8408 4.86367 88.4489 4.50962C88.0509 4.15184 87.4676 3.97451 86.7065 3.97451H85.1132V3.97824ZM95.9963 14.7315V22.9902C95.9963 23.5179 96.187 23.9174 96.5667 24.1781C96.8308 24.3486 96.958 24.5576 96.958 24.7897V25.4748C96.958 25.7069 96.8308 25.8257 96.5667 25.8257H91.864C91.6409 25.8257 91.5327 25.7199 91.5327 25.504V24.786C91.5327 24.5645 91.6635 24.3616 91.9245 24.175C92.3067 23.9012 92.498 23.5086 92.498 22.9865V4.95451C92.498 4.43309 92.3067 4.04358 91.9245 3.77975C91.6665 3.60553 91.5327 3.39647 91.5327 3.15504V2.4818C91.5327 2.25033 91.6635 2.13398 91.9245 2.13398H95.8783C98.1116 2.13398 99.8094 2.63984 100.979 3.65655C102.145 4.677 102.724 6.14109 102.724 8.06251C102.724 11.1201 101.323 13.0963 98.5164 13.9879C99.3442 14.3967 99.9659 14.8541 100.393 15.3693C100.822 15.8838 101.154 16.6367 101.38 17.6317L102.482 22.4626C102.623 23.0805 102.763 23.4986 102.897 23.7176C103.034 23.9398 103.257 24.1426 103.566 24.3355C103.655 24.3934 103.703 24.4898 103.703 24.6217V25.491C103.703 25.7162 103.591 25.8257 103.371 25.8257H100.364C100.071 25.8257 99.8858 25.6652 99.8064 25.3367L97.7418 16.959C97.5253 16.035 97.2771 15.4365 97.0124 15.1627C96.7446 14.8858 96.4071 14.7446 95.9963 14.7315ZM95.9963 3.97824V12.9227C97.0827 12.9227 97.8824 12.5786 98.3953 11.8867C98.9083 11.1979 99.1663 9.96465 99.1663 8.20438C99.1663 6.47273 98.9083 5.33967 98.3886 4.79584C97.8665 4.24829 97.0699 3.97824 95.9963 3.97824ZM108.848 22.9902C108.848 23.5179 109.036 23.9174 109.421 24.1781C109.679 24.3486 109.813 24.5576 109.813 24.7897V25.4748C109.813 25.7069 109.682 25.8257 109.421 25.8257H104.713C104.489 25.8257 104.381 25.7199 104.381 25.504V24.786C104.381 24.5645 104.508 24.3616 104.773 24.175C105.155 23.9012 105.347 23.5086 105.347 22.9865V4.95451C105.347 4.43309 105.159 4.04358 104.773 3.77975C104.512 3.60553 104.381 3.39647 104.381 3.15504V2.4818C104.381 2.25033 104.508 2.13398 104.773 2.13398H109.475C109.695 2.13398 109.81 2.24349 109.81 2.45255V3.15442C109.81 3.38651 109.679 3.59558 109.418 3.77913C109.033 4.05291 108.845 4.4418 108.845 4.95389V22.9902H108.848ZM121.674 25.8257H111.345C111.1 25.8257 110.979 25.7031 110.979 25.4586V24.7891C110.979 24.5769 111.145 24.3417 111.479 24.091C111.769 23.8558 111.916 23.4893 111.916 22.9896V4.95389C111.916 4.42313 111.734 4.03051 111.358 3.76358C111.106 3.59247 110.979 3.39024 110.979 3.15815V2.42393C110.979 2.23104 111.1 2.1346 111.345 2.1346H119.096C119.234 2.1346 119.504 2.12215 119.896 2.0898C120.247 2.06055 120.47 2.04127 120.559 2.04127C120.89 2.04127 121.059 2.1346 121.059 2.31815V6.80189C121.059 7.03336 121.037 7.17149 120.989 7.21691C120.942 7.26171 120.817 7.28411 120.603 7.28411H120.046C119.804 7.28411 119.667 7.14287 119.638 6.85664C119.527 6.06767 119.329 5.3882 119.043 4.82571C118.756 4.26198 118.179 3.98198 117.312 3.98198H115.414V12.6047H116.105C116.538 12.6047 116.838 12.5207 117.001 12.3534C117.16 12.186 117.357 11.6614 117.599 10.7766C117.679 10.4904 117.74 10.3355 117.762 10.3069C117.791 10.2745 117.886 10.2583 118.033 10.2583H118.698C118.959 10.2583 119.093 10.384 119.093 10.6379V16.3798C119.093 16.6243 118.972 16.75 118.73 16.75H118.033C117.886 16.75 117.778 16.7114 117.72 16.6342C117.657 16.5571 117.583 16.3219 117.478 15.9262C117.3 15.205 117.102 14.7645 116.892 14.6033C116.678 14.449 116.389 14.3681 116.016 14.3681H115.414V24.0107H117.446C118.201 24.0107 118.727 23.8334 119.02 23.4694C119.313 23.1091 119.67 22.1247 120.103 20.5088C120.205 20.1448 120.387 19.9582 120.645 19.9582H121.295C121.547 19.9582 121.674 20.087 121.674 20.3414V25.8257ZM131.228 14.9574V4.95638C131.228 4.44118 131.037 4.04544 130.655 3.78162C130.39 3.6074 130.263 3.40207 130.263 3.15691V2.48491C130.263 2.24971 130.39 2.13335 130.655 2.13335H134.06C134.284 2.13335 134.395 2.24287 134.395 2.45193V3.1538C134.395 3.38589 134.271 3.59495 134.019 3.77851C133.628 4.05229 133.426 4.44118 133.426 4.95327V25.4455C133.426 25.7703 133.283 25.9309 132.99 25.9309H132.328C132.024 25.9309 131.811 25.7703 131.694 25.4455L125.436 8.83469V22.9902C125.436 23.5173 125.631 23.9167 126.017 24.1775C126.275 24.3479 126.402 24.557 126.402 24.7891V25.4742C126.402 25.7062 126.271 25.8251 126.013 25.8251H122.645C122.419 25.8251 122.314 25.7193 122.314 25.5034V24.7854C122.314 24.5638 122.445 24.361 122.71 24.1743C123.089 23.9006 123.279 23.5079 123.279 22.9859V4.95451C123.279 4.43309 123.086 4.04358 122.71 3.77975C122.445 3.60553 122.314 3.39647 122.314 3.15504V2.4818C122.314 2.25033 122.445 2.13398 122.71 2.13398H125.892C126.122 2.13398 126.275 2.16322 126.354 2.22109C126.437 2.27584 126.52 2.41398 126.599 2.61993L131.228 14.9574ZM135.262 3.15442V2.35922C135.262 2.20802 135.38 2.13398 135.609 2.13398H139.53C141.745 2.13398 143.609 3.04491 145.128 4.86989C146.645 6.69487 147.403 9.64918 147.403 13.7465C147.403 15.8577 147.177 17.8762 146.718 19.8007C146.262 21.7253 145.526 23.2124 144.517 24.2583C143.507 25.3074 141.805 25.8263 139.409 25.8263H135.533C135.351 25.8263 135.262 25.7392 135.262 25.565V24.7897C135.262 24.5676 135.383 24.3647 135.638 24.1781C136.01 23.8918 136.195 23.4986 136.195 22.9902V4.95389C136.195 4.43247 136.033 4.05913 135.698 3.82393C135.408 3.61175 135.262 3.38962 135.262 3.15442ZM139.68 3.94651V24.0586C140.69 24.0586 141.468 23.8141 142.019 23.3281C142.573 22.839 142.975 21.7707 143.223 20.1293C143.475 18.481 143.602 16.595 143.602 14.4608C143.602 12.1536 143.504 10.3286 143.315 8.97656C143.124 7.62509 142.882 6.60776 142.599 5.91896C142.312 5.237 141.955 4.75104 141.537 4.4642C141.114 4.17798 140.496 4.00749 139.68 3.94651ZM160.436 10.6342V5.89282C160.436 4.67949 160.07 4.41255 159.372 4.41255C158.639 4.41255 158.27 4.68011 158.27 5.89344V8.85087C158.27 10.5632 163.966 15.742 163.966 18.1686V22.4041C163.966 25.5326 161.539 26.4405 159.337 26.4405C157.174 26.4405 154.743 25.5326 154.743 22.4041V16.8912H158.266V22.1017C158.266 23.315 158.636 23.5826 159.369 23.5826C160.07 23.5826 160.433 23.3182 160.433 22.1017V19.5817C160.433 16.2155 154.74 12.9196 154.74 9.01513V5.59042C154.74 2.46251 157.171 1.55469 159.334 1.55469C161.535 1.55469 163.963 2.46251 163.963 5.59042V10.6342H160.436ZM174.327 2.02758V5.15611H171.233V25.9738H167.706V5.153H164.606V2.02758H174.327ZM174.999 5.59042C174.999 2.46251 177.426 1.55469 179.592 1.55469C181.791 1.55469 184.222 2.46251 184.222 5.59042V22.4072C184.222 25.5358 181.791 26.4436 179.592 26.4436C177.429 26.4436 174.999 25.5358 174.999 22.4078V5.59042ZM178.526 22.1017C178.526 23.315 178.889 23.5826 179.624 23.5826C180.322 23.5826 180.692 23.3182 180.692 22.1017V5.89282C180.692 4.67949 180.325 4.41255 179.624 4.41255C178.889 4.41255 178.526 4.68011 178.526 5.89344V22.1017ZM186.089 25.9707V2.02758H190.746C193.579 2.02758 195.308 3.03558 195.308 6.12802V9.52722C195.308 11.3099 194.811 12.7877 191.814 13.1255V13.1927C193.48 13.4603 195.308 13.9363 195.308 16.083C195.308 19.2762 195.48 24.7605 195.745 25.9701H192.215C191.951 24.725 191.782 19.6141 191.782 16.8265C191.782 15.3786 191.246 14.8696 189.618 14.8696V25.9701L186.089 25.9707ZM189.618 11.9439H190.288C191.517 11.9439 191.782 11.2719 191.782 10.3996V6.05709C191.782 5.15238 191.246 4.88233 190.453 4.88233H189.618V11.9439ZM205.041 2.02758V5.15611H200.712V11.2072H204.869V14.3358H200.712V22.8415H205.102V25.9707H197.182V2.02758H205.041Z" fill="black"/>
</svg>
