<svg xmlns="http://www.w3.org/2000/svg" width="147" height="18" viewBox="0 0 147 18" fill="none">
<path d="M1.84062 17.5654H1.3003C1.11975 17.5654 1.03058 17.4673 1.03058 17.2675V13.1121C1.03058 12.8331 1.12898 12.6935 1.32358 12.6935H1.78527C1.91135 12.6935 1.9891 12.7349 2.0304 12.8214C2.07169 12.9051 2.1266 13.1985 2.19733 13.6966C2.49253 15.6218 3.05833 16.5857 4.10867 16.5857C4.65778 16.5857 5.09312 16.3409 5.40457 15.8589C5.72042 15.3729 5.87593 14.7834 5.87593 14.0949C5.87593 13.3821 5.7112 12.721 5.3725 12.1135C5.03821 11.5037 4.38806 10.6824 3.42909 9.64605C2.68494 8.85493 2.15384 8.23796 1.84019 7.79784C1.51889 7.34455 1.26363 6.84582 1.08241 6.3173C0.890883 5.76153 0.796875 5.15896 0.796875 4.49519C0.796875 3.27565 1.09911 2.27482 1.70093 1.48775C2.30539 0.700672 3.03813 0.30961 3.90792 0.30961C4.30372 0.30961 4.72939 0.423463 5.18493 0.65162C5.38656 0.758724 5.52626 0.807775 5.59962 0.807775C5.66815 0.807775 5.7481 0.777624 5.83508 0.716872C5.92205 0.663321 6.02968 0.63767 6.16015 0.63767H6.56078C6.769 0.63767 6.87443 0.735773 6.87443 0.935579V4.58564C6.87443 4.7697 6.79668 4.86015 6.63634 4.86015H6.13511C6.00684 4.86015 5.92205 4.8255 5.8834 4.75575C5.8443 4.68825 5.77357 4.41824 5.67254 3.95742C5.33165 2.36482 4.77771 1.56425 4.01291 1.56425C3.59866 1.56425 3.26919 1.7411 3.01968 2.09527C2.77016 2.44628 2.64408 2.85579 2.64408 3.3193C2.64408 3.85482 2.79081 4.40159 3.08337 4.96501C3.37682 5.52842 3.958 6.2642 4.83262 7.17188C5.95412 8.34281 6.72815 9.36704 7.15646 10.2513C7.58872 11.136 7.80133 12.0973 7.80133 13.1332C7.80133 14.5301 7.44463 15.6659 6.72332 16.5362C6.00728 17.4115 5.15066 17.8494 4.16226 17.8494C3.7199 17.8494 3.31707 17.7306 2.72667 17.4979C2.53909 17.4137 2.40379 17.3746 2.32384 17.3746C2.25048 17.3746 2.15911 17.4092 2.04445 17.4839C1.96187 17.5398 1.89334 17.5654 1.84062 17.5654ZM15.8043 17.5654H8.38031C8.20899 17.5654 8.11981 17.4767 8.11981 17.2999V16.8157C8.11981 16.6622 8.23842 16.4921 8.47696 16.3081C8.68518 16.1362 8.795 15.8729 8.795 15.512V2.46968C8.795 2.08582 8.66234 1.79691 8.39217 1.60835C8.21119 1.48235 8.12201 1.33609 8.12201 1.16599V0.63767C8.12201 0.498166 8.21119 0.430663 8.38295 0.430663H13.9549C14.0555 0.430663 14.2431 0.418963 14.5268 0.395562C14.7786 0.374862 14.9367 0.363161 15.0057 0.363161C15.2411 0.363161 15.3624 0.430663 15.3624 0.561168V3.80352C15.3624 3.97092 15.3466 4.07128 15.314 4.10368C15.2846 4.13878 15.191 4.15498 15.0373 4.15498H14.6367C14.4627 4.15498 14.3643 4.05283 14.3441 3.84537C14.2637 3.2752 14.1218 2.78154 13.9158 2.37652C13.712 1.96926 13.2977 1.76676 12.677 1.76676H11.3108V8.00035H11.8072C12.1191 8.00035 12.3295 7.94005 12.4464 7.82124C12.5606 7.69794 12.7047 7.31858 12.8769 6.68046C12.9362 6.47345 12.9748 6.36185 12.9977 6.33845C13.0205 6.31775 13.0847 6.30605 13.1949 6.30605H13.6707C13.8587 6.30605 13.9522 6.3965 13.9522 6.58056V10.7355C13.9522 10.9124 13.8631 10.9988 13.6913 10.9988H13.1949C13.0851 10.9988 13.0069 10.9731 12.9634 10.9146C12.9221 10.8588 12.865 10.6892 12.7943 10.4052C12.659 9.88366 12.5193 9.5646 12.3708 9.4485C12.2171 9.33644 12.0088 9.27839 11.7413 9.27839H11.3086V16.255H12.7714C13.3118 16.255 13.6869 16.1245 13.8973 15.8634C14.1082 15.6029 14.3669 14.8883 14.678 13.72C14.7513 13.459 14.8818 13.324 15.0694 13.324H15.5341C15.7151 13.324 15.8043 13.4149 15.8043 13.5985V17.5654ZM23.8481 13.3659C23.7774 14.7348 23.4479 15.8103 22.8597 16.5992C22.2689 17.3885 21.5041 17.7819 20.5679 17.7819C19.222 17.7819 18.1439 17.0393 17.3313 15.5543C16.5208 14.0692 16.1136 11.8925 16.1136 9.02908C16.1136 6.20344 16.5072 4.02223 17.2992 2.49308C18.089 0.96348 19.1051 0.198006 20.3505 0.198006C20.8609 0.198006 21.4285 0.372612 22.0514 0.729023C22.1384 0.775374 22.2047 0.796525 22.2482 0.796525C22.2987 0.796525 22.3695 0.754224 22.4635 0.663321C22.5135 0.586818 22.5755 0.547217 22.644 0.540017H23.2647C23.3996 0.540017 23.4708 0.64712 23.4708 0.859077V4.47179C23.4708 4.6788 23.4018 4.78365 23.2643 4.78365H22.7859C22.6326 4.78365 22.532 4.7418 22.4771 4.66035C22.4222 4.57889 22.3488 4.35749 22.2552 3.99883C21.816 2.30227 21.2339 1.45265 20.513 1.45265C20.0825 1.45265 19.7574 1.6736 19.5264 2.11147C19.2953 2.55338 19.1192 3.38681 18.9953 4.61129C18.8729 5.84877 18.8118 7.0918 18.8121 8.33561C18.8121 11.0802 18.9659 13.0959 19.2676 14.3784C19.5699 15.6636 20.101 16.3058 20.8609 16.3058C21.7676 16.3058 22.3673 15.2816 22.651 13.2309L23.8481 13.3659ZM28.447 17.7841C26.9385 17.7841 25.8148 17.0159 25.0733 15.4728C24.3335 13.9315 23.9628 11.7971 23.9628 9.07363C23.9628 6.35015 24.3362 4.19008 25.0843 2.59523C25.8306 0.999031 26.9157 0.200256 28.3416 0.200256C29.6761 0.200256 30.7361 0.933779 31.519 2.40443C32.3044 3.88047 32.6958 6.05674 32.6958 8.94313C32.6958 11.8853 32.3088 14.0994 31.533 15.5727C30.7546 17.0488 29.7267 17.7841 28.447 17.7841ZM28.3284 16.597C28.6508 16.597 28.9531 16.3828 29.2206 15.9566C29.4908 15.5309 29.688 14.3622 29.8022 12.4555C29.9191 10.5474 29.9735 8.79688 29.9735 7.20203C29.9735 5.76108 29.887 4.58114 29.7152 3.65006C29.5439 2.72124 29.3537 2.12272 29.1499 1.85541C28.9482 1.58765 28.6851 1.45265 28.3693 1.45265C28.1035 1.45265 27.861 1.5548 27.6479 1.76226C27.4353 1.96476 27.2684 2.33242 27.1472 2.86794C27.0277 3.40076 26.9249 4.44119 26.8331 5.98924C26.7419 7.59528 26.6969 9.20373 26.6982 10.8125C26.6982 12.8911 26.8309 14.3739 27.0988 15.2609C27.3712 16.1501 27.7815 16.597 28.3284 16.597ZM39.6638 9.7068V2.47193C39.6638 2.09482 39.5263 1.81356 39.2518 1.62005C39.0664 1.49675 38.9724 1.34554 38.9724 1.16869V0.684021C38.9724 0.511666 39.0642 0.430213 39.2518 0.430213H41.7012C41.8616 0.430213 41.9415 0.504916 41.9415 0.660621V1.16599C41.9415 1.33339 41.8497 1.48685 41.6692 1.61735C41.3876 1.81761 41.2457 2.09887 41.2457 2.46698V17.2877C41.2457 17.5231 41.1403 17.6415 40.9294 17.6415H40.4558C40.2362 17.6415 40.0825 17.5253 40.0003 17.2877L35.5046 5.27687V15.512C35.5046 15.8958 35.6439 16.1825 35.9233 16.3729C36.1064 16.4989 36.1983 16.6456 36.1983 16.8152V17.3111C36.1983 17.4835 36.1065 17.5627 35.9189 17.5627H33.4993C33.3389 17.5627 33.2612 17.4857 33.2612 17.3323V16.8152C33.2612 16.6546 33.3547 16.5079 33.545 16.3729C33.8151 16.1749 33.957 15.8868 33.957 15.512V2.46968C33.957 2.09257 33.8151 1.81086 33.545 1.62005C33.3547 1.49405 33.2612 1.34329 33.2612 1.16869V0.682221C33.2612 0.512116 33.3547 0.430663 33.5423 0.430663H35.8319C35.9966 0.430663 36.1086 0.449114 36.1684 0.491415C36.2255 0.533267 36.2826 0.62867 36.3397 0.784375L39.6638 9.7068ZM42.6786 1.16644V0.593569C42.6786 0.481965 42.7564 0.430663 42.926 0.430663H45.7414C47.3298 0.430663 48.6736 1.08948 49.7635 2.40938C50.8551 3.72657 51.3976 5.86593 51.3976 8.82928C51.3976 10.3562 51.2329 11.8183 50.9056 13.2079C50.5762 14.5998 50.0495 15.6753 49.3216 16.4318C48.5959 17.1905 47.3711 17.5654 45.6522 17.5654H42.8684C42.7406 17.5654 42.6764 17.5024 42.6764 17.3764V16.8157C42.6764 16.655 42.7634 16.5083 42.9444 16.3733C43.2097 16.1663 43.3468 15.8801 43.3468 15.5124V2.46968C43.3468 2.09257 43.2282 1.82031 42.9875 1.6529C42.7814 1.49675 42.6786 1.33609 42.6786 1.16644ZM45.8512 1.7411V16.2874C46.5747 16.2874 47.1357 16.1105 47.5315 15.759C47.9299 15.4053 48.2159 14.6349 48.3969 13.4428C48.5801 12.2557 48.667 10.8867 48.667 9.34589C48.667 7.67679 48.5959 6.35465 48.4632 5.37677C48.3257 4.40204 48.1517 3.66626 47.9479 3.17035C47.7419 2.67218 47.4858 2.32297 47.1836 2.11822C46.8813 1.90896 46.4394 1.78521 45.8512 1.7411ZM60.5862 1.7528V8.22176H61.3005C61.5821 8.22176 61.7789 8.15876 61.8936 8.02825C62.0034 7.90045 62.1154 7.64214 62.2345 7.25333C62.3192 6.96712 62.3785 6.80196 62.4128 6.76236C62.4475 6.72276 62.5297 6.70386 62.665 6.70386H63.1433C63.3309 6.70386 63.4249 6.79476 63.4249 6.96712V10.7684C63.4249 10.952 63.3516 11.0429 63.1983 11.0429H62.665C62.5433 11.0429 62.4611 11.0222 62.422 10.9731C62.3807 10.9263 62.3285 10.794 62.2665 10.5816C62.129 10.0884 61.9779 9.79051 61.8202 9.6834C61.6674 9.57785 61.487 9.52187 61.3027 9.52275H60.5884V15.5052C60.5884 15.8868 60.7237 16.1758 60.9983 16.3643C61.1859 16.4876 61.2799 16.6388 61.2799 16.8067V17.3021C61.2799 17.47 61.1859 17.556 60.9983 17.556H57.6171C57.4572 17.556 57.3794 17.4794 57.3794 17.3233V16.8035C57.3794 16.6429 57.473 16.4966 57.661 16.3616C57.9356 16.1636 58.0753 15.8796 58.0753 15.5021V2.45843C58.0753 2.08132 57.9286 1.79511 57.6404 1.59755C57.4431 1.4738 57.3496 1.32754 57.3496 1.15969V0.661521C57.3496 0.500866 57.4273 0.419413 57.5877 0.419413H63.2005C63.3674 0.419413 63.631 0.405913 63.9903 0.375312C64.1871 0.351911 64.3013 0.342461 64.3382 0.342461C64.5122 0.342461 64.6176 0.363611 64.6541 0.409963C64.6883 0.454514 64.709 0.549467 64.709 0.696622V3.97812C64.709 4.16893 64.6035 4.26208 64.3931 4.26208H63.9696C63.8392 4.26208 63.7544 4.23643 63.7153 4.18108C63.6766 4.12258 63.6331 3.94347 63.5826 3.63386C63.4636 2.89584 63.2646 2.39317 62.983 2.13712C62.697 1.87836 62.2779 1.7501 61.731 1.7501H60.5862V1.7528ZM68.406 9.52995V15.503C68.406 15.8846 68.5431 16.1735 68.8159 16.3621C69.0056 16.4854 69.097 16.6366 69.097 16.8044V17.2999C69.097 17.4677 69.0056 17.5537 68.8159 17.5537H65.4369C65.2765 17.5537 65.1988 17.4772 65.1988 17.321V16.8017C65.1988 16.6415 65.2928 16.4948 65.4804 16.3598C65.7549 16.1618 65.8924 15.8778 65.8924 15.5003V2.45888C65.8924 2.08177 65.7549 1.80006 65.4804 1.60925C65.295 1.48325 65.1988 1.33204 65.1988 1.15744V0.670521C65.1988 0.503116 65.2928 0.418963 65.4804 0.418963H68.3212C69.926 0.418963 71.1459 0.784825 71.9862 1.52015C72.824 2.25817 73.2404 3.31705 73.2404 4.7067C73.2404 6.91807 72.2331 8.34731 70.2168 8.99218C70.8116 9.28784 71.2583 9.6186 71.5649 9.99121C71.8738 10.3634 72.1119 10.9079 72.2744 11.6275L73.0664 15.1214C73.1675 15.5682 73.2681 15.8706 73.3643 16.0291C73.4627 16.1897 73.623 16.3364 73.8448 16.4759C73.909 16.5178 73.9433 16.5875 73.9433 16.6829V17.3116C73.9433 17.4745 73.8633 17.5537 73.7052 17.5537H71.5443C71.3339 17.5537 71.2008 17.4376 71.1437 17.2L69.6602 11.141C69.5047 10.4727 69.3263 10.0398 69.1361 9.84181C68.9437 9.64155 68.7012 9.5394 68.406 9.52995ZM68.406 1.7528V8.22176C69.1866 8.22176 69.7612 7.9729 70.1298 7.47248C70.4984 6.97432 70.6837 6.08239 70.6837 4.8093C70.6837 3.55691 70.4984 2.73744 70.125 2.34412C69.7498 1.94811 69.1774 1.7528 68.406 1.7528ZM77.6403 15.503C77.6403 15.8846 77.7752 16.1735 78.0524 16.3621C78.2377 16.4854 78.3339 16.6366 78.3339 16.8044V17.2999C78.3339 17.4677 78.2399 17.5537 78.0524 17.5537H74.669C74.5086 17.5537 74.4309 17.4772 74.4309 17.321V16.8017C74.4309 16.6415 74.5222 16.4948 74.7124 16.3598C74.987 16.1618 75.1245 15.8778 75.1245 15.5003V2.45888C75.1245 2.08177 74.9896 1.80006 74.7124 1.60925C74.5249 1.48325 74.4309 1.33204 74.4309 1.15744V0.670521C74.4309 0.503116 74.5222 0.418963 74.7124 0.418963H78.091C78.2492 0.418963 78.3317 0.498166 78.3317 0.64937V1.15699C78.3317 1.32484 78.2377 1.47605 78.0502 1.6088C77.773 1.80681 77.6381 2.08807 77.6381 2.45843V15.503H77.6403ZM86.8561 17.5537H79.4348C79.2586 17.5537 79.1717 17.465 79.1717 17.2882V16.804C79.1717 16.6505 79.2907 16.4804 79.531 16.2991C79.7392 16.129 79.8447 15.8639 79.8447 15.5025V2.45843C79.8447 2.07456 79.7142 1.79061 79.444 1.59755C79.263 1.4738 79.1717 1.32754 79.1717 1.15969V0.62867C79.1717 0.489165 79.2586 0.419413 79.4348 0.419413H85.0041C85.1029 0.419413 85.2971 0.410413 85.5787 0.387012C85.8308 0.365861 85.9907 0.351911 86.0549 0.351911C86.293 0.351911 86.4142 0.419413 86.4142 0.552167V3.79497C86.4142 3.96237 86.3984 4.06228 86.3641 4.09513C86.3299 4.12753 86.2403 4.14373 86.0869 4.14373H85.6863C85.5124 4.14373 85.414 4.04158 85.3933 3.83457C85.3134 3.26395 85.1715 2.77254 84.9654 2.36572C84.7594 1.95801 84.3452 1.75551 83.7223 1.75551H82.3583V7.9918H82.8547C83.1661 7.9918 83.3814 7.93105 83.4982 7.80999C83.6124 7.68894 83.7543 7.30958 83.9283 6.66966C83.9858 6.46265 84.0293 6.3506 84.0451 6.3299C84.0658 6.3065 84.1343 6.2948 84.2397 6.2948H84.7181C84.9057 6.2948 85.0019 6.3857 85.0019 6.56931V10.722C85.0019 10.8989 84.9149 10.9898 84.741 10.9898H84.2397C84.1343 10.9898 84.0565 10.9619 84.0153 10.9061C83.9696 10.8503 83.9169 10.6802 83.8413 10.394C83.713 9.87241 83.5711 9.5538 83.42 9.43725C83.2667 9.32564 83.0585 9.26714 82.7905 9.26714H82.3583V16.241H83.8185C84.361 16.241 84.7388 16.1128 84.9492 15.8495C85.16 15.5889 85.4162 14.877 85.7276 13.7083C85.801 13.4451 85.9314 13.3101 86.1168 13.3101H86.5838C86.7648 13.3101 86.8561 13.4032 86.8561 13.5873V17.5537ZM93.7213 9.6933V2.46023C93.7213 2.08762 93.5838 1.80141 93.3093 1.6106C93.1191 1.4846 93.0277 1.33609 93.0277 1.15879V0.672771C93.0277 0.502666 93.1191 0.418513 93.3093 0.418513H95.7561C95.9165 0.418513 95.9964 0.497716 95.9964 0.64892V1.15654C95.9964 1.32439 95.9072 1.4756 95.7267 1.60835C95.4451 1.80636 95.3006 2.08762 95.3006 2.45798V17.2787C95.3006 17.5136 95.1978 17.6298 94.9869 17.6298H94.5112C94.2933 17.6298 94.14 17.5136 94.0556 17.2787L89.5595 5.26516V15.503C89.5595 15.8841 89.6992 16.1731 89.9764 16.3616C90.1618 16.4849 90.2532 16.6361 90.2532 16.804V17.2994C90.2532 17.4673 90.1596 17.5533 89.9738 17.5533H87.5542C87.3916 17.5533 87.3161 17.4767 87.3161 17.3206V16.8013C87.3161 16.6411 87.4101 16.4944 87.6003 16.3594C87.8727 16.1614 88.0097 15.8774 88.0097 15.4998V2.45888C88.0097 2.08177 87.8705 1.80006 87.6003 1.60925C87.4101 1.48325 87.3161 1.33204 87.3161 1.15744V0.670521C87.3161 0.503116 87.4101 0.418963 87.6003 0.418963H89.8868C90.052 0.418963 90.1618 0.440114 90.2189 0.481965C90.2782 0.521566 90.3379 0.621469 90.3951 0.770424L93.7213 9.6933ZM96.6193 1.15699V0.581868C96.6193 0.472515 96.7041 0.418963 96.8689 0.418963H99.6864C101.278 0.418963 102.617 1.07778 103.709 2.39768C104.798 3.71757 105.343 5.85423 105.343 8.81758C105.343 10.3445 105.181 11.8043 104.851 13.1962C104.523 14.5881 103.995 15.6636 103.269 16.4201C102.544 17.1788 101.321 17.5541 99.5995 17.5541H96.8139C96.6835 17.5541 96.6193 17.4911 96.6193 17.3651V16.8044C96.6193 16.6438 96.7063 16.4971 96.8895 16.3621C97.157 16.1551 97.2901 15.8706 97.2901 15.503V2.45843C97.2901 2.08132 97.1733 1.81131 96.933 1.6412C96.7243 1.48775 96.6193 1.32709 96.6193 1.15699ZM99.7941 1.72985V16.2757C100.52 16.2757 101.079 16.0988 101.474 15.7473C101.873 15.3936 102.161 14.621 102.34 13.4338C102.521 12.2417 102.612 10.8777 102.612 9.33419C102.612 7.66554 102.541 6.34565 102.406 5.36777C102.269 4.39034 102.095 3.65456 101.891 3.1564C101.685 2.66318 101.429 2.31172 101.129 2.10427C100.824 1.89726 100.38 1.77396 99.7941 1.72985ZM114.708 6.56661V3.1375C114.708 2.25997 114.445 2.06691 113.943 2.06691C113.417 2.06691 113.151 2.26042 113.151 3.13795V5.27687C113.151 6.5153 117.244 10.2608 117.244 12.0158V15.0791C117.244 17.3417 115.5 17.9983 113.918 17.9983C112.364 17.9983 110.617 17.3417 110.617 15.0791V11.0919H113.149V14.8604C113.149 15.7379 113.415 15.9314 113.941 15.9314C114.445 15.9314 114.706 15.7401 114.706 14.8604V13.0378C114.706 10.6032 110.615 8.21951 110.615 5.39567V2.91879C110.615 0.656571 112.362 0 113.916 0C115.498 0 117.242 0.656571 117.242 2.91879V6.56661H114.708ZM124.689 0.342011V2.60468H122.466V17.6608H119.931V2.60243H117.704V0.342011H124.689ZM125.171 2.91879C125.171 0.656571 126.916 0 128.472 0C130.052 0 131.798 0.656571 131.798 2.91879V15.0813C131.798 17.344 130.052 18.0006 128.472 18.0006C126.918 18.0006 125.171 17.344 125.171 15.0818V2.91879ZM127.706 14.8604C127.706 15.7379 127.967 15.9314 128.495 15.9314C128.997 15.9314 129.262 15.7401 129.262 14.8604V3.1375C129.262 2.25997 128.999 2.06691 128.495 2.06691C127.967 2.06691 127.706 2.26042 127.706 3.13795V14.8604ZM133.14 17.6586V0.342011H136.487C138.522 0.342011 139.764 1.07103 139.764 3.3076V5.76603C139.764 7.05532 139.407 8.12411 137.254 8.36846V8.41706C138.451 8.61057 139.764 8.95483 139.764 10.5074C139.764 12.8169 139.888 16.7833 140.078 17.6581H137.542C137.352 16.7576 137.231 13.0612 137.231 11.0451C137.231 9.99796 136.846 9.62985 135.676 9.62985V17.6581L133.14 17.6586ZM135.676 7.51389H136.157C137.04 7.51389 137.231 7.02787 137.231 6.39695V3.2563C137.231 2.60198 136.846 2.40668 136.276 2.40668H135.676V7.51389ZM146.758 0.342011V2.60468H143.647V6.98107H146.634V9.24374H143.647V15.3954H146.801V17.6586H141.11V0.342011H146.758Z" fill="#222222"/>
</svg>