<svg width="25" height="22" viewBox="0 0 25 22" fill="none" xmlns="http://www.w3.org/2000/svg">
<g id="LogoSVG">
<path id="Union" fill-rule="evenodd" clip-rule="evenodd" d="M24.5025 9.26722L24.1844 10.2909C24.0158 10.8217 23.4622 11.6953 22.4321 11.7837C22.5448 12.2619 22.7959 12.7992 23.3504 13.0305L24.1487 13.3604L23.7179 14.1141C23.6208 14.2745 23.1194 15.0144 22.0737 15.0144C21.895 15.0144 21.7218 14.996 21.5559 14.9609C21.5137 15.148 21.4615 15.336 21.3992 15.5231C21.1545 16.2556 21.3652 16.7652 21.3744 16.7864L21.7593 17.601L20.8758 17.8359L20.8749 17.8361C20.8563 17.8411 20.5925 17.9106 20.2728 17.9106C20.1216 17.9106 19.9776 17.8949 19.8429 17.8626C19.7403 17.8387 19.6413 17.8065 19.5469 17.7677C19.4324 17.9732 19.2939 18.1603 19.1335 18.3271C18.5708 18.9094 17.7717 19.2043 16.7589 19.2043L16.0339 19.1951L17.5214 19.8189L16.4097 20.3617C16.0156 20.5551 15.5097 20.8031 14.9983 20.991L15.1412 21.3808L14.75 21.5605C14.7151 21.5771 13.97 21.9115 12.7299 21.9853C12.7299 21.9853 12.4321 22 12.2662 22C12.1003 22 11.7988 21.9862 11.7988 21.9862C10.5529 21.9145 9.80274 21.5774 9.76528 21.5606L9.76508 21.5605L9.37462 21.3817L9.51579 20.9929C9.01902 20.8104 8.53052 20.5717 8.11905 20.37L6.98619 19.8198L8.47829 19.1969L7.75608 19.2061H7.75243C6.74062 19.2061 5.94234 18.9113 5.37867 18.3298C5.21737 18.1621 5.07896 17.975 4.96534 17.7696C4.87094 17.8083 4.77283 17.8405 4.67023 17.8645C4.53457 17.8968 4.3907 17.9124 4.23947 17.9124C3.90675 17.9124 3.641 17.8396 3.62998 17.8359L2.75012 17.6028L3.14423 16.7726C3.14699 16.767 3.35776 16.2565 3.11309 15.5249C3.05073 15.3388 2.99761 15.1508 2.95544 14.9628C2.79049 14.9978 2.61907 15.0153 2.44124 15.0162C1.62008 15.0162 1.04359 14.5352 0.797966 14.1242L0.362649 13.3622L1.16093 13.0314C1.71448 12.8001 1.96652 12.2638 2.0802 11.7847C1.03533 11.6907 0.490046 10.8171 0.326892 10.29L0.00244141 9.26722L1.07474 9.30219C1.15266 9.30128 1.79881 9.28286 2.42387 8.82581C2.41298 8.82687 2.40213 8.82802 2.3913 8.82917L2.39126 8.82917H2.39124H2.39123H2.39122H2.3912H2.39119H2.39117H2.39116H2.39115L2.39113 8.82917L2.3911 8.82918H2.39108L2.39107 8.82918L2.39103 8.82918H2.39102L2.391 8.82918L2.39091 8.82919C2.35449 8.83306 2.31825 8.8369 2.28091 8.8369C1.63656 8.8369 1.01155 8.44713 0.76131 7.88779L0.31132 6.87874C0.976692 6.89074 1.40656 6.81336 1.40656 6.81336C1.40642 6.81336 1.40688 6.81327 1.40793 6.81309C1.43422 6.80854 1.82794 6.7404 2.28091 6.27523C2.62093 5.9269 3.04067 5.74262 3.49527 5.74262C3.69413 5.74262 3.87195 5.77855 4.02409 5.8274C4.00025 5.74534 3.97827 5.66244 3.96449 5.57766C3.83254 4.72624 4.31733 4.04891 4.41544 3.92087L5.21917 2.92933L5.71043 4.09315C5.71043 4.09315 5.83327 4.3604 6.05321 4.49123C6.12101 4.15121 6.28512 3.76791 6.637 3.40298C7.29693 2.71463 8.10251 2.61143 8.52411 2.61143C8.72027 2.61143 8.85863 2.63264 8.90445 2.64003L8.93565 2.64554L9.84665 2.82613C9.79257 2.61143 9.67524 2.23916 9.46075 1.90283L8.9329 1.07722L10.2581 1.22927L10.6797 0.327118L11.5 0.751013L12.2543 0L13.0104 0.751013L13.8279 0.327118L14.2504 1.22927L15.5766 1.07722L15.0496 1.90283C14.8352 2.23916 14.7178 2.6124 14.6629 2.82704L15.6178 2.63815C15.6518 2.63264 15.7911 2.61143 15.9863 2.61143C16.4079 2.61143 17.2135 2.71372 17.8752 3.40298C18.2263 3.76882 18.3903 4.15121 18.4572 4.49123C18.6733 4.36194 18.7962 4.10152 18.8042 4.08475L18.8045 4.08394L19.2949 2.92661L20.0858 3.91166C20.0858 3.91069 20.6907 4.63128 20.5459 5.57579C20.5331 5.66148 20.5102 5.74444 20.4863 5.82643C20.6394 5.77758 20.8172 5.74165 21.016 5.74165C21.4706 5.74165 21.8904 5.92599 22.2295 6.27426C22.6907 6.74783 23.0909 6.80951 23.1147 6.81318L23.1158 6.81336C23.1158 6.81336 23.6345 6.88523 24.2019 6.87783L23.7491 7.88682C23.4989 8.44525 22.8748 8.83593 22.2295 8.83593C22.1922 8.83593 22.1555 8.832 22.1189 8.82809L22.1189 8.82808C22.1087 8.827 22.0986 8.82591 22.0884 8.8249C22.7153 9.28195 23.3614 9.30037 23.4503 9.30037L24.5025 9.26722ZM9.90529 3.18185L9.91631 3.17907L9.91446 3.16985L9.90529 3.18185Z" fill="white"/>
<path id="Union_2" fill-rule="evenodd" clip-rule="evenodd" d="M14.275 13.3006H8.62104V10.0175C8.62104 9.69956 8.5285 9.37978 8.41943 9.08496H10.9673C11.2093 9.32639 11.4466 9.47747 11.6721 9.56043C11.6437 9.67745 11.6052 9.91797 11.7134 10.1584C11.8022 10.3529 11.9626 10.5021 12.1955 10.6017C12.2211 10.8413 12.3723 11.2024 12.7884 11.361C12.606 11.5462 12.4282 11.7212 12.3567 11.7913L10.6648 11.7646C10.6264 11.7461 10.5613 11.7019 10.532 11.6411C10.53 11.6361 10.5275 11.6325 10.5251 11.629C10.5229 11.6259 10.5208 11.6228 10.5191 11.6189L10.795 11.6641C10.8005 11.6651 10.8069 11.6651 10.8124 11.6651C10.8665 11.6651 10.9123 11.6272 10.9215 11.5729C10.9307 11.5111 10.8894 11.455 10.8298 11.4457L10.4907 11.3923L10.8674 10.0838L10.5109 9.32912L9.93897 9.9373L9.90417 11.2974L9.52012 11.2366C9.46059 11.2246 9.40375 11.2679 9.39368 11.3287C9.38452 11.3886 9.42483 11.4448 9.48532 11.4559L9.64662 11.4808C9.58978 11.5139 9.55133 11.5397 9.54672 11.5434L9.51467 11.5665L9.50551 11.607C9.41201 11.9885 9.62278 12.3506 9.85194 12.5128L9.84368 12.5607C9.83361 12.6197 9.84733 12.6768 9.88219 12.7247C9.91609 12.7736 9.96646 12.8031 10.0242 12.8132C10.0361 12.816 10.049 12.8169 10.06 12.8169C10.159 12.8169 10.2451 12.7478 10.2689 12.6473C10.3542 12.6574 10.4321 12.6593 10.4852 12.6593H10.5301L12.749 13.0629L12.7866 13.0371C12.9625 12.9137 13.6371 12.4197 13.858 12.2557C13.9184 12.3073 13.9863 12.3552 14.0688 12.3949C13.9964 12.6363 13.9927 13.0076 14.275 13.3006ZM8.62111 13.5218H15.8918L15.8909 16.2725C15.8909 17.1828 15.3583 17.8196 14.5197 18.0269L14.66 17.2916C14.6682 17.2483 14.6765 17.1976 14.6829 17.1552C14.7232 17.1718 14.7645 17.1856 14.8103 17.1939C14.8625 17.2041 14.9111 17.2087 14.9551 17.2087C15.1695 17.2087 15.2942 17.0953 15.3776 16.9986L15.4857 16.8723L15.3977 16.7341C15.3971 16.7331 15.3955 16.7305 15.3929 16.7264C15.3606 16.6753 15.1831 16.3948 15.0449 16.1987C15.0156 16.1573 14.9872 16.1148 14.9588 16.0707L14.9571 16.0682C14.7869 15.8124 14.5743 15.4929 14.1476 15.4929L14.1092 15.4938C14.0395 15.4984 13.979 15.5122 13.9295 15.5306C13.7957 15.468 13.6564 15.4348 13.5125 15.4348C13.3356 15.4348 13.1862 15.4837 13.0872 15.5177C13.0782 15.5204 13.0695 15.5231 13.0612 15.5257C13.0431 15.5313 13.0268 15.5364 13.013 15.539L12.2138 15.4597C12.2037 15.4579 12.1707 15.4385 12.1313 15.3915V15.3869L12.3045 15.3169C12.256 14.7373 11.7033 14.3806 11.3945 14.2599C11.3807 14.2019 11.3532 14.1438 11.3046 14.0969L11.1332 13.9328L10.982 14.1144L10.9078 14.2074L9.7878 13.7448L10.5164 14.6645L10.2287 15.1021C10.1233 15.2146 10.2397 15.327 10.2397 15.327L10.5366 15.5334L10.8445 15.4182C10.8506 15.4182 10.8566 15.4192 10.8627 15.4202C10.8667 15.4209 10.8707 15.4216 10.8748 15.4219C10.8661 15.4482 10.8562 15.5177 10.8469 15.5827C10.8397 15.6338 10.8328 15.6821 10.8272 15.7048L10.2928 15.5988L9.73102 15.9176C9.44233 16.1305 9.40292 16.4835 9.51013 16.7249L9.57242 16.8621L9.66137 17.0557L9.85842 16.9736C9.86112 16.9736 9.86387 16.9727 9.86573 16.9709C9.79517 17.1976 9.82446 17.4142 9.95006 17.5551L10.0692 17.7053L10.2277 17.9071L10.4019 17.7191C10.4523 17.6675 10.6191 17.4804 10.6704 17.3202L10.708 17.1976L10.6227 17.1036L10.6081 17.087L10.7034 16.9285L11.4009 17.0935L11.5576 17.1294L11.641 16.9912L11.6868 16.9156C11.6951 16.9 11.6978 16.8972 11.7299 16.8972C11.7546 16.8972 11.7794 16.8991 11.806 16.9055C12.069 16.9552 12.3119 16.9801 12.5273 16.9801C12.7372 16.9801 12.8618 16.9718 13.0103 16.9221C13.0103 16.9221 13.3851 17.3505 13.3979 17.3662L13.1688 18.0785L13.1588 18.1209C12.7243 18.1568 12.5126 18.2527 12.2569 18.5088C11.8857 18.1384 11.6227 18.0997 10.6246 18.0997C9.43041 18.0997 8.62111 17.3957 8.62111 16.2715V13.5218Z" fill="#FFDD2D"/>
<path id="Union_3" fill-rule="evenodd" clip-rule="evenodd" d="M14.1642 2.92569C13.7875 2.62251 13.1057 2.33866 12.2533 2.33866C11.4019 2.33866 10.7218 2.62251 10.3442 2.92569C10.3442 2.92569 10.2324 2.24837 9.85019 1.65037L10.5367 1.72866L10.8951 0.961106L11.5861 1.31865L12.2533 0.65332L12.9223 1.31865L13.6125 0.961106L13.9717 1.72866L14.6582 1.65037C14.276 2.24837 14.1642 2.92569 14.1642 2.92569ZM10.6961 2.01803L10.5055 1.99773L10.3231 1.97561C10.4066 2.16359 10.4671 2.34327 10.5119 2.49168C10.994 2.22261 11.6182 2.0696 12.2524 2.0696C12.8893 2.0696 13.5144 2.22261 13.9946 2.49168C14.0386 2.34327 14.1 2.16456 14.1835 1.97561L14.002 1.99773L13.8113 2.01803L13.7307 1.84386L13.4879 1.32786L13.0452 1.5591L12.8729 1.64758L12.7354 1.51123L12.2542 1.03207L11.774 1.51123L11.6365 1.64758L11.4642 1.5591L11.0187 1.32786L10.7786 1.84386L10.6961 2.01803ZM10.9474 14.7131C10.9062 14.7094 10.8713 14.7416 10.8686 14.7821C10.8658 14.8245 10.897 14.8604 10.9391 14.8613C10.9794 14.865 11.0152 14.8337 11.0189 14.7923C11.0189 14.7517 10.9896 14.714 10.9474 14.7131ZM15.8789 19.6991L15.46 19.5378L15.5755 19.1029L15.7029 18.6283C15.7029 18.6283 14.9605 19.0329 13.9148 19.3369C13.6179 19.4227 13.3933 19.4613 13.3933 19.4613V19.7838C13.3933 19.7838 12.8342 19.8815 12.2688 19.8815H12.2624H12.2541H12.2431H12.2367C11.6712 19.8815 11.1121 19.7838 11.1121 19.7838V19.4613C11.1121 19.4613 10.8866 19.4227 10.5906 19.3369C9.54488 19.0329 8.80344 18.6283 8.80344 18.6283L8.92904 19.1029L9.04727 19.5378L8.62747 19.6991L8.1619 19.8741C8.21728 19.901 8.27486 19.9291 8.33435 19.9581C8.84886 20.2093 9.50606 20.5302 10.1132 20.697L9.95366 21.1356C9.95366 21.1356 10.8124 21.5291 12.2431 21.5328V21.5337H12.2477H12.2541H12.2596H12.2633V21.5328C13.6958 21.5291 14.5536 21.1356 14.5536 21.1356L14.3932 20.697C15.0088 20.5279 15.6775 20.2003 16.1933 19.9476L16.1934 19.9476L16.1939 19.9473C16.2454 19.9221 16.2953 19.8976 16.3436 19.8741L15.8789 19.6991ZM8.65867 19.9036L9.34788 19.6733L9.14442 19.0052C9.44773 19.1784 10.1287 19.4383 10.5228 19.559L10.1901 20.4777C9.58159 20.3091 9.07476 20.1128 8.65867 19.9036ZM12.2541 21.3024C11.454 21.3024 10.5402 21.1172 10.2717 21.0214L10.6805 19.9092C11.0196 20.0087 11.7253 20.1147 12.2376 20.111H12.2385H12.2541H12.2678H12.2697C12.782 20.1147 13.4859 20.0087 13.8268 19.9092L14.2347 21.0214C13.9661 21.1181 13.0533 21.3024 12.2541 21.3024ZM14.3162 20.4777L13.9845 19.559C14.3795 19.4383 15.0586 19.1784 15.3629 19.0052L15.1603 19.6733L15.8486 19.9036C15.4316 20.1128 14.9275 20.3091 14.3162 20.4777ZM22.2532 11.3257C23.3558 11.3257 23.7242 10.1979 23.7398 10.1499L23.8626 9.75276L23.4492 9.76567H23.4474C23.3017 9.76567 22.0855 9.73343 21.223 8.63136L21.1415 8.52907L21.1387 8.52548C20.5761 7.8062 20.0419 7.1233 19.0885 6.81143C19.116 6.78658 19.1554 6.75525 19.2095 6.72022C19.7163 6.3848 20.0114 5.97751 20.0857 5.50483C20.1938 4.79345 19.7429 4.22672 19.7227 4.2037L19.4157 3.82222L19.2242 4.27466L19.224 4.27498C19.2091 4.30825 18.8863 5.02749 18.2105 5.02749H18.1601C18.1459 5.02664 18.132 5.02589 18.1182 5.02514L18.1181 5.02513C18.0866 5.02342 18.056 5.02176 18.0254 5.01919C18.0492 4.69576 17.9905 4.19539 17.5396 3.72635C16.998 3.1615 16.3326 3.07672 15.9843 3.07672C15.8133 3.07672 15.695 3.09617 15.667 3.10078L15.6668 3.1008L15.6646 3.10117C15.6633 3.10137 15.6623 3.10153 15.6617 3.10163L15.198 3.19374L15.4839 3.57249C15.7085 3.86458 15.9119 4.40367 15.6708 4.68564C15.5979 4.77036 15.4517 4.84016 15.3071 4.90919L15.2832 4.92059C14.9707 5.06524 14.5445 5.26613 14.5445 5.7785C14.5445 6.11023 14.8002 6.45667 15.2639 6.75155C16.6369 7.61958 17.4837 8.52537 17.8494 9.52515C18.4149 11.0631 17.6771 11.9403 16.9604 12.402L16.6387 12.6102L16.9201 12.8701L16.9201 12.8701C16.958 12.9037 17.3026 13.2083 17.8109 13.2525C17.9071 13.2589 17.9997 13.2645 18.0859 13.2645C18.4121 13.2645 18.6898 13.2129 18.9153 13.1437C18.853 13.2534 18.7769 13.3649 18.6807 13.4773C18.271 13.9546 17.7669 14.1721 17.042 14.1832L16.7725 14.1878L16.7514 14.4596C16.7487 14.514 16.7285 15.018 17.2033 15.4465C17.2757 15.5128 17.3637 15.5672 17.4553 15.6124C17.1336 15.9036 16.8064 16.4104 16.7432 17.2793C16.69 18.0045 16.5177 18.2727 16.5159 18.2754L16.218 18.7324L16.756 18.7398C17.645 18.7398 18.326 18.4929 18.798 18.0045C19.0766 17.7151 19.2361 17.3889 19.3305 17.0996C19.4854 17.2323 19.6852 17.3484 19.9454 17.4101C20.0444 17.4332 20.1526 17.4461 20.269 17.4461C20.507 17.4461 20.708 17.3981 20.7486 17.3884C20.7508 17.3878 20.7526 17.3874 20.7538 17.3871L21.0975 17.2949L20.9454 16.9724L20.9449 16.9714C20.9281 16.9325 20.6509 16.2896 20.9563 15.3765C21.0892 14.9775 21.157 14.62 21.19 14.3417C21.4064 14.455 21.696 14.549 22.0708 14.5499C22.8974 14.5499 23.2747 13.9468 23.3113 13.8883C23.3124 13.8866 23.3131 13.8854 23.3136 13.8846L23.4813 13.5916L23.1706 13.4626C22.157 13.0396 21.9324 11.9034 21.8875 11.2879C21.9792 11.3054 22.0837 11.322 22.2019 11.3257H22.2532ZM23.057 13.7344C23.057 13.7344 22.76 14.2532 22.0791 14.2532H22.0708C21.2533 14.2486 20.9233 13.7473 20.9233 13.7473C20.9233 13.7473 20.971 14.3997 20.6759 15.2797C20.3212 16.3403 20.6787 17.0987 20.6787 17.0987C20.6787 17.0987 20.488 17.1503 20.2681 17.1503C20.1837 17.1503 20.0958 17.142 20.0133 17.1199C19.3305 16.9568 19.16 16.332 19.16 16.332C19.16 16.332 19.2232 18.4431 16.7752 18.4431H16.756C16.756 18.4431 16.9714 18.1483 17.0355 17.2996C17.1519 15.7331 18.2069 15.5184 18.2069 15.5184C18.2069 15.5184 17.6441 15.4474 17.4003 15.2272C17.019 14.8798 17.0456 14.478 17.0456 14.478C17.9071 14.4661 18.4708 14.1712 18.9006 13.6708C19.3662 13.129 19.4432 12.5457 19.4432 12.5457C19.4432 12.5457 18.9803 12.9678 18.085 12.9678C18.0061 12.9678 17.9218 12.9641 17.8356 12.9558C17.4122 12.9217 17.1189 12.6508 17.1189 12.6508C18.051 12.05 18.7054 11.0014 18.1253 9.42194C17.6606 8.1568 16.5443 7.21138 15.4207 6.49909C15.0467 6.26409 14.8387 6.00333 14.8387 5.7785C14.8387 5.45451 15.1193 5.32275 15.4073 5.18752C15.5895 5.10199 15.7746 5.01508 15.8936 4.87726C16.2473 4.46446 16.0255 3.79459 15.7185 3.3919C15.7185 3.3919 15.8221 3.37069 15.9852 3.37069C16.3088 3.37069 16.8687 3.45268 17.3288 3.93184C17.9401 4.56766 17.6862 5.25971 17.6862 5.25971L17.8503 5.29195C17.9444 5.31229 18.0376 5.31652 18.134 5.3209L18.1464 5.32146C18.1573 5.32146 18.1683 5.32168 18.1793 5.32191C18.1903 5.32214 18.2013 5.32237 18.2124 5.32237C19.1004 5.32237 19.4973 4.38889 19.4973 4.38889C19.4973 4.38889 20.4413 5.5564 19.0519 6.47049C18.8126 6.62714 18.7073 6.77179 18.7348 6.92663L18.7568 7.02801L18.8557 7.04552C19.819 7.30811 20.3271 7.95837 20.9139 8.70935C20.9407 8.74365 20.9677 8.77816 20.9948 8.81285C21.9397 10.0209 23.277 10.0596 23.4419 10.0596H23.4593C23.4593 10.0596 23.1541 11.0281 22.255 11.0281C22.2404 11.0281 22.2275 11.0281 22.212 11.0272C21.7986 11.0124 21.5869 10.853 21.5869 10.853C21.5869 10.853 21.4247 13.0525 23.057 13.7344ZM21.1774 7.70988C20.9675 7.44821 20.7283 7.15333 20.3168 6.93311L19.8934 6.70368L20.2856 6.42631C20.2872 6.42533 20.2894 6.42393 20.2922 6.42215C20.3475 6.38706 20.634 6.20513 21.0142 6.20513C21.3414 6.20513 21.6448 6.34063 21.8959 6.59769C22.5063 7.2252 23.0544 7.27496 23.0746 7.27586L23.5007 7.30168L23.3247 7.69424C23.1497 8.08584 22.6878 8.36878 22.2277 8.36878C22.1104 8.36878 21.9949 8.35127 21.8858 8.31345C21.5833 8.21233 21.3881 7.97074 21.1845 7.71865L21.1774 7.70988ZM21.6861 6.80688C21.4597 6.57188 21.2204 6.50188 21.0152 6.50188C20.6962 6.50188 20.4561 6.67138 20.4561 6.67138C20.9199 6.91926 21.1843 7.24832 21.4064 7.52468C21.5954 7.75998 21.7538 7.95709 21.9784 8.03336C22.0618 8.0619 22.1452 8.07481 22.2286 8.07481C22.5888 8.07481 22.9371 7.83981 23.0571 7.57262C23.0571 7.57262 22.3964 7.53208 21.6861 6.80688ZM20.5091 10.8485V10.8633C20.2617 8.85625 18.8118 7.40682 17.1987 6.52497C17.0494 6.4448 16.9119 6.37662 16.7781 6.31118C17.2693 6.38765 18.0603 6.39686 18.6707 5.86425C18.6707 5.86425 17.7367 6.55539 15.8231 5.92788C15.9766 6.02804 16.1722 6.14013 16.3953 6.26804L16.3953 6.26805C16.942 6.58143 17.6544 6.9898 18.3215 7.55056C20.6705 9.62568 18.9896 11.6501 18.9896 11.6501C19.8337 10.7647 19.8685 9.81554 19.6202 9.04059C20.0647 9.78421 20.3488 10.6872 20.3048 11.8004C20.2397 13.3954 19.3681 14.7748 18.4507 15.8834C18.0098 16.4215 17.9109 17.0822 17.9109 17.0822C17.9109 17.0822 18.0887 16.4989 18.5991 15.899C19.5826 14.7417 20.423 13.5392 20.533 11.8068C20.6347 12.1211 21.0536 12.9955 21.7181 13.3245L21.7178 13.3243C21.7013 13.3139 20.8807 12.7975 20.5091 10.8485ZM7.98952 18.2727C7.99014 18.2737 7.99048 18.2743 7.99052 18.2744L8.28934 18.7306L7.7504 18.7379C6.86138 18.7379 6.18133 18.491 5.70846 18.0026C5.43073 17.7132 5.27033 17.387 5.17684 17.0977C5.02381 17.2304 4.8222 17.3465 4.561 17.4082C4.46385 17.4313 4.35568 17.4442 4.23834 17.4442C3.99565 17.4442 3.78914 17.3939 3.75611 17.3858L3.75355 17.3852L3.40892 17.2931L3.56105 16.9705L3.56155 16.9694C3.57877 16.9295 3.85623 16.287 3.55099 15.3746C3.41808 14.9756 3.35028 14.618 3.31728 14.3398C3.10004 14.4531 2.81045 14.5471 2.43838 14.548C1.59885 14.548 1.22166 13.9285 1.19475 13.8843L1.19376 13.8827L1.026 13.5897L1.33577 13.4607C2.35039 13.0368 2.57488 11.9006 2.62076 11.286C2.52726 11.3044 2.42275 11.3201 2.30637 11.3238L2.25325 11.3256C1.14974 11.3256 0.782225 10.1978 0.767551 10.1498L0.641113 9.75272L1.05625 9.76563C1.20197 9.76563 2.42095 9.73333 3.28248 8.63126L3.364 8.52897L3.37094 8.52009C3.93206 7.80281 4.46501 7.12153 5.41516 6.81048C5.38767 6.78557 5.34915 6.75424 5.29417 6.71922C4.78734 6.3838 4.49224 5.9765 4.41893 5.50383C4.3115 4.80977 4.74109 4.25202 4.77719 4.20515L4.77907 4.20269L5.08891 3.82121L5.28045 4.27365L5.28061 4.27401C5.29573 4.30775 5.61756 5.02648 6.29502 5.02648H6.34449C6.35776 5.02569 6.37088 5.02497 6.38389 5.02426L6.38417 5.02425L6.38434 5.02424C6.41609 5.0225 6.44721 5.02079 6.47829 5.01818C6.45541 4.69567 6.51495 4.19536 6.9668 3.7254C7.50939 3.16055 8.1729 3.07577 8.52119 3.07577C8.6891 3.07577 8.80452 3.09434 8.83625 3.09945C8.83986 3.10003 8.84238 3.10043 8.84378 3.10062L9.30941 3.19279L9.02161 3.57148C8.79797 3.86363 8.5936 4.40358 8.83558 4.68464C8.90853 4.76936 9.05475 4.83916 9.19935 4.90818L9.22322 4.91958C9.53575 5.06339 9.96101 5.26518 9.96101 5.77749C9.96101 6.10922 9.70717 6.45567 9.2434 6.75055C7.86864 7.61858 7.02268 8.52436 6.65702 9.5242C6.09245 11.0612 6.82748 11.9384 7.54694 12.401L7.86863 12.6093L7.58725 12.8691C7.5488 12.9032 7.20416 13.2073 6.69553 13.2515C6.59928 13.2579 6.50854 13.2635 6.42056 13.2635C6.09335 13.2635 5.81747 13.2119 5.59203 13.1428C5.65438 13.2524 5.73134 13.3639 5.8267 13.4763C6.23632 13.9528 6.74135 14.1702 7.46446 14.1822L7.73573 14.1868L7.75406 14.4587C7.75681 14.513 7.77699 15.017 7.30317 15.4455C7.23075 15.5128 7.14463 15.5672 7.05113 15.6114C7.37372 15.9026 7.70003 16.4094 7.76418 17.2783C7.81684 17.9729 7.97542 18.2482 7.98952 18.2727ZM5.3446 16.332C5.3446 16.332 5.28225 18.443 7.73028 18.443H7.74765C7.74765 18.443 7.53412 18.1482 7.47087 17.2995C7.3554 15.733 6.29957 15.5183 6.29957 15.5183C6.29957 15.5183 6.86234 15.4464 7.10701 15.2271C7.4883 14.8798 7.46081 14.478 7.46081 14.478C6.59928 14.466 6.03561 14.1711 5.60305 13.6708C5.14018 13.129 5.06322 12.5456 5.06322 12.5456C5.06322 12.5456 5.52608 12.9677 6.42056 12.9677C6.50123 12.9677 6.58461 12.964 6.6708 12.9557C7.09509 12.9216 7.3884 12.6507 7.3884 12.6507C6.45446 12.049 5.801 11.0013 6.38025 9.42191C6.84401 8.1567 7.96028 7.21129 9.08486 6.499C9.45879 6.26405 9.6668 6.00232 9.6668 5.7784C9.6668 5.45417 9.3861 5.32211 9.09834 5.18674C8.91669 5.10128 8.73223 5.0145 8.61379 4.87722C8.25999 4.46442 8.48178 3.7954 8.7879 3.3918C8.7879 3.3918 8.68614 3.37065 8.52209 3.37065C8.19949 3.37065 7.63954 3.45174 7.17942 3.93181C6.56718 4.56762 6.82107 5.25961 6.82107 5.25961L6.65702 5.29191C6.56879 5.31112 6.47903 5.31593 6.3885 5.32078H6.38848C6.37933 5.32127 6.37018 5.32176 6.36102 5.32227C6.34946 5.32227 6.3386 5.32252 6.32786 5.32276H6.32785H6.32783H6.32782H6.3278H6.32778H6.32777C6.31722 5.323 6.30679 5.32324 6.29591 5.32324C5.40599 5.32324 5.01099 4.39067 5.01099 4.39067C5.01099 4.39067 4.06698 5.55728 5.45643 6.47227C5.69559 6.62892 5.8001 6.77357 5.77261 6.92841L5.75057 7.02979L5.64977 7.0473C4.68668 7.3112 4.17773 7.96239 3.58959 8.7149C3.56376 8.74796 3.53777 8.78121 3.51158 8.81464C2.56668 10.0227 1.23132 10.0614 1.06541 10.0614H1.04708C1.04708 10.0614 1.35135 11.0299 2.25139 11.0299C2.26606 11.0299 2.27978 11.0299 2.29445 11.029C2.70875 11.0133 2.92041 10.8548 2.92041 10.8548C2.92041 10.8548 3.08081 13.0534 1.44946 13.7344C1.44946 13.7344 1.74641 14.2532 2.42736 14.2532H2.43563C3.25403 14.2486 3.58309 13.7473 3.58309 13.7473C3.58309 13.7473 3.53542 14.3996 3.82866 15.2797C4.18336 16.3403 3.82776 17.0986 3.82776 17.0986C3.82776 17.0986 4.01751 17.1503 4.23744 17.1503C4.32267 17.1503 4.40976 17.142 4.49134 17.1198C5.17414 16.9567 5.3446 16.332 5.3446 16.332ZM2.27801 8.36976C2.39624 8.36976 2.51172 8.35225 2.62079 8.31444C2.92397 8.21372 3.11787 7.97366 3.3206 7.72265L3.33012 7.71086L3.33073 7.71011L3.33073 7.71011C3.54141 7.44863 3.77871 7.1541 4.1898 6.93409L4.61325 6.70557L4.22004 6.42821L4.21636 6.42582C4.16921 6.39516 3.87996 6.20708 3.49328 6.20708C3.16517 6.20708 2.86091 6.34161 2.61067 6.59958C2.00028 7.22618 1.45314 7.27685 1.43295 7.27782L1.0068 7.30266L1.18187 7.69614C1.35784 8.08592 1.8188 8.36976 2.27801 8.36976ZM2.82054 6.80787C3.04784 6.57286 3.28706 6.50287 3.49328 6.50287C3.81036 6.50287 4.05054 6.67236 4.05054 6.67236C3.58819 6.92019 3.32391 7.24832 3.10173 7.52417C2.91167 7.76015 2.75241 7.95787 2.52633 8.03434C2.44572 8.06289 2.36138 8.07579 2.27801 8.07579C1.9178 8.07579 1.56951 7.84176 1.45038 7.5736C1.45038 7.57357 1.45123 7.57349 1.45291 7.57332C1.49787 7.56889 2.13577 7.50607 2.82054 6.80787ZM4.88538 9.04148C4.44001 9.7851 4.15586 10.6882 4.20168 11.8013C4.26583 13.3964 5.13742 14.7767 6.05304 15.8834C6.49572 16.4215 6.59562 17.0822 6.59562 17.0822C6.59562 17.0822 6.416 16.4989 5.90546 15.8991C4.92204 14.7417 4.08165 13.5392 3.97073 11.8068C3.86903 12.1219 3.45108 12.9955 2.7875 13.3245C2.7875 13.3245 3.62154 12.8186 3.99642 10.8476V10.8632C4.24475 8.85628 5.69379 7.4068 7.30867 6.52495C7.44974 6.44828 7.58331 6.38259 7.71094 6.31981L7.72842 6.31121C7.23716 6.3886 6.44619 6.39781 5.8358 5.8652C5.8358 5.8652 6.76974 6.55628 8.68248 5.92877C8.52865 6.02928 8.33255 6.14181 8.10865 6.27029L8.10863 6.2703C7.56282 6.5835 6.85178 6.99151 6.18498 7.55151C3.83507 9.62663 5.51596 11.6511 5.51596 11.6511C4.67096 10.7655 4.63706 9.81643 4.88538 9.04148ZM11.7006 7.74036V8.13844C11.8372 7.97167 12.1011 8.00579 12.1011 8.00579V8.57985C12.1011 8.57985 12.092 8.86182 11.9921 8.98435H12.278H12.563C12.465 8.86273 12.4549 8.57985 12.4549 8.57985V8.00579C12.4549 8.00579 12.7188 7.97167 12.8545 8.13844V7.74036H12.278H11.7006ZM11.7408 5.54981C11.7164 5.54163 11.6155 5.50773 11.455 5.37955C11.1535 5.14363 11.1471 4.92711 11.1471 4.9262L11.8179 5.20999V5.58504L11.7464 5.55189C11.746 5.55156 11.7441 5.55092 11.7408 5.54981ZM13.0507 5.37955C13.354 5.14363 13.3595 4.9262 13.3595 4.9262L12.6887 5.20999V5.58504L12.7592 5.55189C12.7597 5.55159 12.7614 5.55104 12.7642 5.55011C12.7874 5.54247 12.8881 5.50935 13.0507 5.37955ZM12.256 2.77272C13.3072 2.77272 14.2594 3.28412 14.2594 3.85266L14.2393 3.99271L13.8195 6.41525L14.2393 6.66128L15.33 7.3017H15.3263C15.3263 7.3017 15.5719 7.42793 15.6837 7.50629C16.1016 7.79656 16.1887 8.21949 15.9476 8.39456C15.8872 8.04902 15.6168 7.68875 15.1091 7.68875C14.7434 7.68875 14.4657 7.87764 14.2384 8.16331C14.1815 8.23518 14.1275 8.31166 14.0752 8.39456C14.012 8.49867 13.9488 8.59084 13.8864 8.67841H16.6965C16.4893 9.09582 16.2932 9.53814 16.2932 10.0182V16.2694C16.2932 17.7825 15.1374 18.5049 13.8846 18.5049C13.8103 18.5049 13.7409 18.5046 13.6759 18.5044C12.8936 18.5014 12.745 18.5008 12.2542 18.9951C11.7601 18.501 11.6116 18.5015 10.8271 18.5044C10.7631 18.5047 10.6948 18.5049 10.6219 18.5049C9.36993 18.5049 8.21234 17.7825 8.21234 16.2694V10.0182C8.21234 9.53814 8.01624 9.09582 7.81002 8.67841H10.6191C10.5558 8.58993 10.4926 8.49867 10.4294 8.39456C10.3781 8.31166 10.3231 8.23518 10.2654 8.16331C10.0398 7.87855 9.76128 7.68875 9.39556 7.68875C8.88783 7.68875 8.61657 8.04993 8.55697 8.39456C8.31596 8.21949 8.40394 7.79656 8.81907 7.50629C8.93275 7.42793 9.17838 7.3017 9.17838 7.3017H9.17467L10.2654 6.66128L10.6869 6.41525L10.2672 3.99271L10.2461 3.85266C10.2461 3.28412 11.1983 2.77272 12.2496 2.77272H12.2523H12.2551H12.256ZM12.135 4.63773L10.6594 4.13464L11.049 6.39222L12.135 6.96816V4.63773ZM11.6694 9.5602C11.444 9.47729 11.2066 9.32707 10.9646 9.08473V9.08661H8.41676C8.52583 9.38149 8.61836 9.70121 8.61836 10.0191V13.3005H14.2732C13.99 13.0074 13.9946 12.6361 14.066 12.3946C13.9836 12.3551 13.9158 12.3071 13.8553 12.2546C13.6344 12.4177 12.9607 12.9116 12.7839 13.036L12.7463 13.0609L10.5275 12.6582H10.4825C10.4294 12.6582 10.3515 12.6564 10.2663 12.6462C10.2415 12.7467 10.1553 12.8157 10.0564 12.8157C10.0454 12.8157 10.0325 12.8148 10.0206 12.813C9.96378 12.8029 9.91245 12.7734 9.87951 12.7245C9.84465 12.6766 9.83183 12.6195 9.841 12.5605L9.84927 12.5126C9.62101 12.3505 9.40934 11.9883 9.50277 11.6068L9.512 11.5662L9.54494 11.5432C9.54955 11.5395 9.58711 11.5138 9.64484 11.4805L9.48355 11.4557C9.42305 11.4446 9.38274 11.3884 9.39191 11.3285C9.40197 11.2686 9.45881 11.2244 9.51841 11.2364L9.90239 11.2972L9.93725 9.93713L10.5091 9.32895L10.8656 10.0836L10.4889 11.3912L10.8281 11.4446C10.8877 11.4538 10.9289 11.5101 10.9197 11.5718C10.9105 11.6271 10.8638 11.6639 10.8106 11.6639C10.8051 11.6639 10.7997 11.6639 10.7932 11.663L10.5174 11.6179C10.519 11.6232 10.5215 11.627 10.524 11.6308C10.5259 11.6336 10.5277 11.6365 10.5293 11.64C10.5586 11.7017 10.6237 11.745 10.6622 11.7644L12.3531 11.7911L12.3563 11.788C12.4307 11.7151 12.606 11.5433 12.7857 11.3608C12.3687 11.2014 12.2184 10.841 12.1927 10.6015C11.9609 10.502 11.7996 10.3527 11.7107 10.1592C11.6016 9.9187 11.6401 9.67727 11.6694 9.5602ZM12.6959 12.824C12.9049 12.6766 13.4823 12.2528 13.7068 12.0869C13.5436 11.8473 13.5281 11.5635 13.5647 11.3644C13.4584 11.2954 13.3768 11.217 13.3118 11.135C13.0706 11.3994 12.6257 11.8351 12.5049 11.9533C12.4885 11.9694 12.4781 11.9796 12.475 11.9827L12.443 12.0159L10.7483 11.9883C10.7465 12.1569 10.7199 12.3006 10.6934 12.4057C10.6909 12.4156 10.6884 12.4252 10.686 12.4348C10.6839 12.4431 10.6817 12.4515 10.6796 12.4601L12.6959 12.824ZM10.5247 11.9413C10.4651 11.9035 10.379 11.8363 10.3313 11.7358C10.2763 11.6197 10.1985 11.5653 10.0839 11.5662C9.93539 11.5662 9.77685 11.6556 9.70809 11.698C9.65311 12.0196 9.88957 12.3117 10.0481 12.3707C10.1911 12.4232 10.3662 12.4343 10.455 12.4343C10.4587 12.4232 10.4633 12.4094 10.4679 12.3928C10.4761 12.3661 10.4834 12.3394 10.4889 12.3108C10.5137 12.1818 10.5228 12.0353 10.5247 11.9413ZM10.1553 10.0255L10.1214 11.3313L10.269 11.3534L10.6301 10.1002L10.4468 9.71503L10.1553 10.0255ZM13.3851 18.1059C13.4767 18.1022 13.5785 18.1004 13.6885 18.1004C13.6885 18.1004 13.9515 17.3273 13.9671 17.3033C13.8195 17.2379 13.5134 17.0748 13.3952 17.0002C13.4205 17.0382 13.4577 17.078 13.495 17.118C13.5725 17.201 13.6506 17.2847 13.6252 17.3549L13.3851 18.1059ZM14.2851 18.0691L14.4418 17.2471C14.4593 17.1568 14.4757 17.037 14.4757 17.0352C14.4669 17.0261 14.4562 17.0156 14.4441 17.0037C14.3736 16.9345 14.2565 16.8194 14.1861 16.6841C14.1283 16.5716 14.1173 16.4872 14.105 16.392C14.0939 16.3063 14.0817 16.2119 14.0331 16.0806C14.0331 16.0806 14.0651 16.016 14.1376 16.016C14.1486 16.016 14.1614 16.0169 14.1733 16.0206C14.2687 16.048 14.3338 16.2106 14.4073 16.3943C14.5069 16.6431 14.622 16.9306 14.8488 16.9725C14.8873 16.9799 14.923 16.9826 14.9542 16.9826C15.0678 16.9826 15.1357 16.9347 15.209 16.8472C15.209 16.8472 15.011 16.5339 14.8625 16.3229C14.8313 16.2789 14.8012 16.2336 14.7712 16.1884C14.6119 15.9482 14.4551 15.7119 14.1458 15.7119C14.1367 15.7119 14.1265 15.7119 14.1174 15.7128C13.9964 15.7193 13.9222 15.7783 13.9222 15.7783C13.7737 15.6843 13.6344 15.6521 13.5097 15.6521C13.3689 15.6521 13.247 15.6921 13.1532 15.723C13.0944 15.7423 13.0467 15.758 13.0121 15.758H13.0084L12.1891 15.6769C12.0608 15.665 11.96 15.535 11.9233 15.4843C11.9141 15.4705 11.9095 15.4622 11.9095 15.4622C11.9095 15.4401 11.9095 15.417 11.9077 15.3968C11.8802 14.7241 11.3615 14.4357 11.1764 14.4311C11.1764 14.4311 11.1974 14.303 11.1479 14.2542L10.9674 14.4744L10.3744 14.1749L10.7978 14.6716L10.4395 15.0752C10.3936 15.1213 10.4001 15.183 10.4184 15.2097L10.5733 15.3471L10.7694 15.2272C10.7795 15.2199 10.7978 15.218 10.8189 15.218C10.8439 15.218 10.8748 15.221 10.908 15.2242C10.9466 15.2279 10.9884 15.2319 11.0279 15.2319C11.1085 15.2319 11.1773 15.2152 11.1855 15.1397C11.1781 15.2149 11.152 15.3069 11.1233 15.408C11.0568 15.6425 10.9763 15.9262 11.082 16.1644L11.1947 16.4224L10.4706 16.3173L10.1316 16.8933C10.0261 17.0849 10.0096 17.2913 10.1105 17.4047L10.2379 17.5641C10.2379 17.5641 10.4156 17.3752 10.455 17.2499L10.3973 17.1863C10.3487 17.1329 10.3506 17.084 10.3808 17.0269L10.5935 16.673L11.4485 16.8757L11.4943 16.7984C11.5521 16.7007 11.6355 16.6721 11.7272 16.6721C11.7647 16.6721 11.8032 16.6767 11.8435 16.6832C12.0021 16.7145 12.2633 16.7569 12.5245 16.7569C12.8105 16.7569 13.0955 16.7062 13.2467 16.5348C13.4054 16.7713 13.6476 16.9058 13.8394 17.0123C14.022 17.1136 14.1589 17.1896 14.1348 17.3042L13.9699 18.0948C14.0789 18.0902 14.1852 18.0829 14.2851 18.0691ZM10.0793 16.5643L10.0417 16.4694C10.0142 16.4077 10.0179 16.3404 10.0692 16.3045L10.3753 16.0916L10.8867 16.1902C10.8867 16.1902 10.7942 16.0741 10.8033 15.9183L10.3157 15.8142L9.85567 16.0962C9.65772 16.2445 9.64394 16.4869 9.70899 16.6306L9.77044 16.7651C9.77044 16.7651 10.0545 16.6472 10.0793 16.5643ZM14.6591 17.2885L14.5189 18.0239C15.3574 17.8166 15.8899 17.1807 15.889 16.2685L15.8872 13.5198H8.61747V16.2685C8.61747 17.3927 9.42671 18.0967 10.621 18.0967C11.619 18.0967 11.882 18.1354 12.2532 18.5058C12.509 18.2488 12.7206 18.1529 13.155 18.1179L13.1652 18.0746L13.3943 17.3632C13.3814 17.3466 13.0066 16.9191 13.0066 16.9191C12.8572 16.9688 12.7325 16.9771 12.5236 16.9771C12.3082 16.9771 12.0653 16.9522 11.8023 16.9025C11.7757 16.897 11.751 16.8942 11.7263 16.8942C11.6941 16.8942 11.6914 16.897 11.6832 16.9126L11.6374 16.9882L11.5539 17.1264L11.3972 17.0905L10.6998 16.9255L10.6044 17.084L10.6182 17.1006L10.7034 17.1946L10.6659 17.3172C10.6145 17.4774 10.4486 17.6645 10.3973 17.7161L10.2232 17.9041L10.0646 17.7023L9.94546 17.5512C9.81902 17.4093 9.79057 17.1936 9.86118 16.9669C9.85933 16.9688 9.85657 16.9697 9.85382 16.9706L9.65766 17.0527L9.56878 16.8591L9.50649 16.7219C9.39922 16.4805 9.43862 16.1275 9.72732 15.9146L10.2891 15.5958L10.8235 15.7018C10.8293 15.6783 10.8365 15.6274 10.8439 15.5745C10.8529 15.511 10.8622 15.4445 10.8702 15.4189C10.8602 15.418 10.851 15.4152 10.84 15.4152L10.532 15.5304L10.2351 15.3249C10.2351 15.3249 10.1187 15.2125 10.2241 15.1001L10.5119 14.6624L9.78326 13.7427L10.9032 14.2054L10.9774 14.1123L11.1287 13.9298L11.301 14.0938C11.3496 14.1408 11.3771 14.1989 11.3908 14.2569C11.6997 14.3776 12.2532 14.7343 12.3018 15.3138L12.1286 15.3839V15.3876C12.168 15.4355 12.201 15.4549 12.211 15.4567L13.0112 15.5359C13.025 15.5334 13.0413 15.5283 13.0593 15.5227C13.0677 15.5201 13.0764 15.5174 13.0854 15.5147C13.1844 15.4807 13.3338 15.4318 13.5107 15.4318C13.6546 15.4318 13.7929 15.4641 13.9277 15.5276C13.9763 15.5092 14.0368 15.4954 14.1073 15.4908L14.1458 15.4899C14.5734 15.4899 14.787 15.8108 14.9573 16.0669L14.9578 16.0676C14.9863 16.1128 15.0147 16.1542 15.044 16.1957C15.1943 16.4077 15.3886 16.7173 15.3969 16.7311L15.4848 16.8693L15.3767 16.9955C15.2933 17.0923 15.1687 17.2056 14.9542 17.2056C14.9101 17.2056 14.8616 17.201 14.8093 17.1909C14.7635 17.1826 14.7214 17.1688 14.6819 17.1522C14.6775 17.1818 14.6717 17.2154 14.6661 17.2477C14.6637 17.2617 14.6613 17.2755 14.6591 17.2885ZM15.8872 10.0173C15.8872 9.69939 15.9798 9.37961 16.0906 9.08473V9.08382H13.5455C13.155 9.47269 12.7802 9.61734 12.4457 9.65055C12.3852 9.65697 12.3238 9.66067 12.2615 9.66067H12.2569H12.2532C12.1909 9.66067 12.1286 9.65697 12.0681 9.65055C12.0094 9.64594 11.948 9.63577 11.8867 9.62195C11.8646 9.70951 11.8362 9.89198 11.9159 10.0661C11.9866 10.2237 12.1304 10.3407 12.3403 10.419L12.4109 10.4466L12.4118 10.5231C12.4118 10.5462 12.4283 11.0429 12.9654 11.1802C13.0524 11.0899 13.1322 11.007 13.1917 10.9387C13.0817 10.6789 13.1395 10.4135 13.299 10.2836C13.2926 10.3103 13.2219 10.9617 13.7407 11.2032L13.8259 11.2437L13.8003 11.3359C13.7911 11.3626 13.6188 11.9929 14.2466 12.2269L14.3575 12.2693L14.308 12.3781C14.2961 12.402 14.0505 12.9734 14.6306 13.2977H15.8881V12.2933C15.4408 12.238 15.2511 11.8768 15.2026 11.6206C14.9945 11.5847 14.8341 11.4944 14.7232 11.3469C14.4879 11.0355 14.6431 10.7476 14.6814 10.6764C14.6861 10.6678 14.689 10.6623 14.6893 10.6604C14.6884 10.6632 14.6893 11.0042 14.8983 11.2143C15.0018 11.3156 15.1246 11.3949 15.3098 11.4124L15.4014 11.4207L15.4097 11.5147C15.4115 11.5349 15.4619 11.9966 15.8881 12.0685L15.8872 10.0173ZM14.6279 7.3017L14.1312 7.01143L13.6197 6.71752L12.256 7.46387L12.2523 7.46114L12.2496 7.46387L10.8858 6.71752L10.3753 7.01143L9.87855 7.3017H9.87304L9.74661 7.37448C10.0279 7.45193 10.2415 7.59198 10.422 7.77717C10.4258 7.78049 10.4289 7.78399 10.432 7.78742C10.4358 7.79164 10.4395 7.79575 10.444 7.79929C10.4834 7.84262 10.5228 7.88958 10.5614 7.93661C10.5705 7.94764 10.5788 7.95782 10.5879 7.97066C10.6237 8.01769 10.6585 8.06744 10.6934 8.1181C10.6974 8.12376 10.7015 8.12997 10.7057 8.13643C10.7091 8.14158 10.7126 8.14689 10.7162 8.15222C10.7575 8.21488 10.796 8.27936 10.8345 8.34572C11.1883 8.9585 11.7528 9.32434 12.2542 9.32525C12.7564 9.32434 13.321 8.9585 13.6748 8.34572C13.7142 8.27754 13.7536 8.21118 13.7948 8.14943C13.8012 8.14119 13.8076 8.13198 13.8131 8.12271C13.848 8.06932 13.8837 8.0186 13.9222 7.96884C13.9268 7.96318 13.9311 7.95751 13.9353 7.95201C13.9386 7.94768 13.9419 7.94345 13.9451 7.93939C13.9836 7.89055 14.0248 7.84262 14.066 7.79838C14.0683 7.7961 14.0706 7.7937 14.0729 7.7913C14.0771 7.78695 14.0812 7.78261 14.0853 7.77905C14.265 7.59379 14.4794 7.45284 14.7599 7.37448L14.6352 7.3017H14.6279ZM12.3714 6.96907L13.4584 6.39313L13.8461 4.13464L12.3714 4.63773V6.96907ZM10.6365 3.73934L12.2532 4.38158L13.87 3.73934C13.7334 3.41223 13.0992 3.13389 12.2532 3.13298C11.4082 3.13389 10.774 3.41223 10.6365 3.73934Z" fill="#333333"/>
</g>
</svg>
