<svg xmlns="http://www.w3.org/2000/svg" width="35" height="33" viewBox="0 0 35 33" fill="none">
<path fill-rule="evenodd" clip-rule="evenodd" d="M35 14.0351L34.5422 15.4914C34.2994 16.2465 33.5027 17.4892 32.02 17.6151C32.1822 18.2954 32.5437 19.0596 33.3417 19.3887L34.4907 19.858L33.8707 20.9303C33.7309 21.1584 33.0093 22.211 31.5042 22.211C31.2469 22.211 30.9976 22.1848 30.7588 22.135C30.6981 22.4011 30.6229 22.6685 30.5333 22.9347C30.181 23.9767 30.4844 24.7017 30.4976 24.7319L31.0517 25.8907L29.78 26.2249L29.7787 26.2252C29.7518 26.2322 29.3722 26.3311 28.912 26.3311C28.6944 26.3311 28.4872 26.3088 28.2933 26.2629C28.1455 26.2289 28.0031 26.183 27.8673 26.1279C27.7023 26.4203 27.5031 26.6864 27.2722 26.9236C26.4623 27.7521 25.312 28.1716 23.8543 28.1716L22.8108 28.1585L24.9518 29.0459L23.3517 29.818C22.7845 30.0933 22.0563 30.446 21.3202 30.7134L21.526 31.2679L20.9628 31.5235C20.9126 31.5471 19.8402 32.0229 18.0553 32.1278C18.0553 32.1278 17.6266 32.1488 17.3878 32.1488C17.149 32.1488 16.7151 32.1291 16.7151 32.1291C14.9217 32.0271 13.842 31.5476 13.7881 31.5236L13.7878 31.5235L13.2258 31.2692L13.429 30.716C12.714 30.4564 12.0109 30.1169 11.4186 29.8298L9.78808 29.0472L11.9357 28.1611L10.8962 28.1742H10.891C9.43462 28.1742 8.28562 27.7547 7.47431 26.9275C7.24215 26.689 7.04292 26.4228 6.87938 26.1305C6.74351 26.1856 6.6023 26.2315 6.45463 26.2656C6.25936 26.3115 6.05229 26.3337 5.83461 26.3337C5.35572 26.3337 4.97321 26.2302 4.95734 26.2249L3.69093 25.8933L4.25819 24.7122C4.26215 24.7043 4.56552 23.978 4.21336 22.9372C4.12361 22.6725 4.04715 22.4051 3.98646 22.1376C3.74904 22.1874 3.5023 22.2123 3.24635 22.2136C2.06442 22.2136 1.23466 21.5294 0.881114 20.9447L0.254545 19.8606L1.40354 19.39C2.20029 19.061 2.56306 18.2981 2.72668 17.6164C1.22276 17.4827 0.437912 16.24 0.203079 15.4901L-0.263916 14.0351L1.27949 14.0848C1.39164 14.0836 2.32167 14.0573 3.22135 13.4072C3.20566 13.4087 3.19005 13.4103 3.17446 13.4119L3.1744 13.4119H3.17438H3.17436H3.17434H3.17432H3.1743H3.17428H3.17426H3.17424L3.17422 13.4119L3.17417 13.4119H3.17415L3.17413 13.4119L3.17407 13.4119H3.17405L3.17403 13.4119L3.1739 13.412C3.12148 13.4175 3.06932 13.4229 3.01557 13.4229C2.08813 13.4229 1.18854 12.8684 0.828354 12.0727L0.180665 10.6373C1.13836 10.6543 1.75709 10.5442 1.75709 10.5442C1.75688 10.5442 1.75755 10.5441 1.75906 10.5439C1.79691 10.5374 2.36359 10.4405 3.01557 9.7787C3.50498 9.28317 4.10913 9.021 4.76346 9.021C5.04967 9.021 5.30563 9.07213 5.5246 9.14161C5.49029 9.02488 5.45865 8.90695 5.43882 8.78634C5.2489 7.5751 5.94668 6.61154 6.08789 6.42938L7.24473 5.01883L7.95182 6.67448C7.95182 6.67448 8.12864 7.05466 8.4452 7.24078C8.54278 6.75707 8.779 6.21179 9.28548 5.69264C10.2353 4.71339 11.3948 4.56658 12.0017 4.56658C12.284 4.56658 12.4831 4.59675 12.5491 4.60727L12.594 4.61511L13.9053 4.87201C13.8274 4.56658 13.6585 4.03699 13.3498 3.55853L12.59 2.38402L14.4975 2.60032L15.1043 1.31692L16.285 1.91995L17.3707 0.851562L18.459 1.91995L19.6357 1.31692L20.2438 2.60032L22.1526 2.38402L21.3941 3.55853C21.0854 4.03699 20.9166 4.56795 20.8374 4.87331L22.2119 4.60459C22.2608 4.59675 22.4613 4.56658 22.7423 4.56658C23.3491 4.56658 24.5086 4.7121 25.4611 5.69264C25.9664 6.21308 26.2025 6.75707 26.2988 7.24078C26.6098 7.05686 26.7867 6.68638 26.7981 6.66253L26.7987 6.66137L27.5045 5.01495L28.6429 6.41628C28.6429 6.4149 29.5135 7.44001 29.3051 8.78367C29.2866 8.90557 29.2537 9.02359 29.2194 9.14023C29.4396 9.07075 29.6956 9.01962 29.9818 9.01962C30.6361 9.01962 31.2403 9.28187 31.7284 9.77732C32.3922 10.451 32.9682 10.5388 33.0025 10.544L33.004 10.5442C33.004 10.5442 33.7507 10.6465 34.5673 10.636L33.9156 12.0713C33.5554 12.8658 32.6571 13.4216 31.7284 13.4216C31.6747 13.4216 31.6219 13.416 31.5692 13.4104L31.5692 13.4104C31.5546 13.4088 31.5399 13.4073 31.5253 13.4059C32.4276 14.0561 33.3576 14.0823 33.4855 14.0823L35 14.0351ZM13.9897 5.37806L14.0055 5.3741L14.0028 5.36099L13.9897 5.37806Z" fill="#F5F5F5"/>
<path fill-rule="evenodd" clip-rule="evenodd" d="M20.2797 19.7726H12.1417V15.102C12.1417 14.6497 12.0086 14.1948 11.8516 13.7754H15.5188C15.8671 14.1188 16.2087 14.3338 16.5332 14.4518C16.4924 14.6183 16.4369 14.9604 16.5926 15.3025C16.7206 15.5791 16.9514 15.7915 17.2865 15.933C17.3234 16.2739 17.5411 16.7877 18.14 17.0132C17.8775 17.2767 17.6215 17.5257 17.5187 17.6254L15.0835 17.5874C15.0281 17.5612 14.9344 17.4983 14.8922 17.4117C14.8894 17.4047 14.8858 17.3996 14.8823 17.3945C14.8792 17.3901 14.8762 17.3857 14.8737 17.3802L15.2708 17.4445C15.2787 17.4458 15.2879 17.4458 15.2959 17.4458C15.3737 17.4458 15.4397 17.392 15.4529 17.3147C15.4661 17.2269 15.4067 17.1469 15.321 17.1338L14.8328 17.0578L15.375 15.1964L14.8619 14.1227L14.0387 14.9879L13.9886 16.9228L13.4358 16.8362C13.3501 16.8192 13.2683 16.8808 13.2538 16.9674C13.2406 17.0525 13.2987 17.1326 13.3857 17.1482L13.6179 17.1837C13.5361 17.2308 13.4807 17.2676 13.4741 17.2728L13.428 17.3056L13.4148 17.3632C13.2802 17.9059 13.5836 18.4211 13.9134 18.6518L13.9015 18.72C13.887 18.8039 13.9068 18.8852 13.957 18.9533C14.0058 19.0228 14.0783 19.0648 14.1614 19.0791C14.1785 19.0831 14.1971 19.0844 14.2128 19.0844C14.3553 19.0844 14.4793 18.9861 14.5136 18.8432C14.6363 18.8576 14.7485 18.8603 14.8249 18.8603H14.8896L18.0833 19.4344L18.1373 19.3977C18.3906 19.2221 19.3615 18.5194 19.6794 18.2861C19.7665 18.3595 19.8641 18.4277 19.9829 18.4841C19.8787 18.8275 19.8734 19.3558 20.2797 19.7726ZM12.1418 20.0873H22.6068L22.6055 24.0003C22.6055 25.2954 21.839 26.2012 20.632 26.4961L20.8338 25.4501C20.8457 25.3885 20.8576 25.3164 20.8668 25.2561C20.9248 25.2796 20.9842 25.2994 21.0502 25.3111C21.1254 25.3256 21.1953 25.3321 21.2586 25.3321C21.5673 25.3321 21.7467 25.1709 21.8667 25.0333L22.0224 24.8537L21.8957 24.657C21.8948 24.6557 21.8924 24.6519 21.8887 24.6461C21.8422 24.5735 21.5868 24.1744 21.3879 23.8954C21.3456 23.8364 21.3048 23.7761 21.2639 23.7132L21.2616 23.7097C21.0165 23.3458 20.7105 22.8913 20.0964 22.8913L20.041 22.8926C19.9408 22.8992 19.8537 22.9188 19.7825 22.945C19.5898 22.8559 19.3894 22.8087 19.1822 22.8087C18.9276 22.8087 18.7126 22.8782 18.5701 22.9267C18.5572 22.9304 18.5446 22.9343 18.5326 22.938C18.5066 22.946 18.4831 22.9532 18.4633 22.9568L17.3129 22.8441C17.2984 22.8415 17.2509 22.8139 17.1942 22.7471V22.7405L17.4435 22.6409C17.3736 21.8164 16.5782 21.309 16.1337 21.1373C16.1138 21.0547 16.0743 20.9721 16.0044 20.9053L15.7576 20.6719L15.54 20.9302L15.4331 21.0626L13.8211 20.4045L14.8699 21.7128L14.4557 22.3354C14.304 22.4953 14.4715 22.6554 14.4715 22.6554L14.8989 22.949L15.3421 22.7851C15.3508 22.7851 15.3595 22.7865 15.3682 22.7879C15.374 22.7889 15.3798 22.7898 15.3856 22.7904C15.3731 22.8278 15.3589 22.9266 15.3456 23.0191C15.3351 23.0917 15.3252 23.1605 15.3171 23.1928L14.548 23.042L13.7394 23.4955C13.3239 23.7984 13.2671 24.3005 13.4214 24.6439L13.5111 24.8392L13.6391 25.1146L13.9228 24.9978C13.9266 24.9978 13.9306 24.9965 13.9333 24.9939C13.8317 25.3164 13.8739 25.6245 14.0547 25.825L14.2261 26.0387L14.4543 26.3258L14.705 26.0584C14.7775 25.9849 15.0176 25.7188 15.0915 25.4908L15.1455 25.3164L15.0229 25.1827L15.0018 25.1591L15.139 24.9336L16.1429 25.1683L16.3684 25.2194L16.4885 25.0227L16.5545 24.9152C16.5664 24.893 16.5702 24.889 16.6164 24.889C16.6521 24.889 16.6877 24.8917 16.7259 24.9008C17.1046 24.9716 17.4541 25.0071 17.7642 25.0071C18.0662 25.0071 18.2456 24.9952 18.4593 24.9245C18.4593 24.9245 18.9988 25.534 19.0173 25.5563L18.6875 26.5696L18.6731 26.6299C18.0478 26.681 17.743 26.8174 17.375 27.1818C16.8407 26.6548 16.4621 26.5998 15.0255 26.5998C13.3067 26.5998 12.1418 25.5982 12.1418 23.9989V20.0873Z" fill="#E5E5E5"/>
<path fill-rule="evenodd" clip-rule="evenodd" d="M20.1245 5.01392C19.5823 4.58262 18.6009 4.17881 17.374 4.17881C16.1486 4.17881 15.1698 4.58262 14.6262 5.01392C14.6262 5.01392 14.4653 4.05036 13.9152 3.19965L14.9033 3.31103L15.4191 2.21911L16.4137 2.72774L17.374 1.78125L18.337 2.72774L19.3304 2.21911L19.8475 3.31103L20.8355 3.19965C20.2854 4.05036 20.1245 5.01392 20.1245 5.01392ZM15.1328 3.72268L14.8584 3.6938L14.5959 3.66233C14.716 3.92976 14.803 4.18537 14.8676 4.39649C15.5615 4.01372 16.4599 3.79605 17.3727 3.79605C18.2895 3.79605 19.1892 4.01372 19.8804 4.39649C19.9438 4.18537 20.0321 3.93113 20.1522 3.66233L19.891 3.6938L19.6166 3.72268L19.5006 3.47492L19.151 2.74084L18.5138 3.06982L18.2658 3.19568L18.0679 3.00171L17.3753 2.32006L16.6841 3.00171L16.4863 3.19568L16.2382 3.06982L15.5971 2.74084L15.2515 3.47492L15.1328 3.72268ZM15.4944 21.7826C15.4351 21.7774 15.3849 21.8232 15.381 21.8809C15.377 21.9412 15.4219 21.9923 15.4825 21.9936C15.5405 21.9988 15.592 21.9543 15.5973 21.8953C15.5973 21.8376 15.5551 21.7839 15.4944 21.7826ZM22.5925 28.8757L21.9896 28.6463L22.1558 28.0276L22.3392 27.3525C22.3392 27.3525 21.2706 27.928 19.7655 28.3605C19.3381 28.4825 19.0149 28.5375 19.0149 28.5375V28.9963C19.0149 28.9963 18.2102 29.1353 17.3963 29.1353H17.3871H17.3752H17.3593H17.3501C16.5362 29.1353 15.7315 28.9963 15.7315 28.9963V28.5375C15.7315 28.5375 15.407 28.4825 14.9809 28.3605C13.4757 27.928 12.4085 27.3525 12.4085 27.3525L12.5893 28.0276L12.7595 28.6463L12.1552 28.8757L11.4851 29.1248C11.5648 29.1629 11.6477 29.2029 11.7333 29.2442C12.4739 29.6016 13.4198 30.0581 14.2937 30.2954L14.0641 30.9194C14.0641 30.9194 15.3001 31.4791 17.3593 31.4844V31.4857H17.366H17.3752H17.3831H17.3884V31.4844C19.4503 31.4791 20.6849 30.9194 20.6849 30.9194L20.4541 30.2954C21.3402 30.0547 22.3026 29.5888 23.0451 29.2293L23.0451 29.2292L23.0459 29.2289C23.12 29.193 23.1919 29.1582 23.2613 29.1248L22.5925 28.8757ZM12.2002 29.1667L13.1922 28.8391L12.8993 27.8886C13.3359 28.1351 14.3161 28.5047 14.8833 28.6765L14.4044 29.9834C13.5285 29.7436 12.799 29.4643 12.2002 29.1667ZM17.3752 31.1566C16.2235 31.1566 14.9083 30.8932 14.5219 30.7569L15.1102 29.1746C15.5983 29.3161 16.6141 29.4669 17.3514 29.4617H17.3528H17.3752H17.3949H17.3976C18.135 29.4669 19.1482 29.3161 19.6389 29.1746L20.2259 30.7569C19.8394 30.8945 18.5255 31.1566 17.3752 31.1566ZM20.3433 29.9834L19.8658 28.6765C20.4343 28.5047 21.4119 28.1351 21.8498 27.8886L21.5582 28.8391L22.549 29.1667C21.9487 29.4643 21.2232 29.7436 20.3433 29.9834ZM31.7673 16.9637C33.3543 16.9637 33.8846 15.3593 33.907 15.2911L34.0838 14.7261L33.4888 14.7445H33.4862C33.2764 14.7445 31.5259 14.6986 30.2846 13.1308L30.1671 12.9853L30.1631 12.9802C29.3533 11.9569 28.5846 10.9854 27.2122 10.5418C27.2518 10.5064 27.3085 10.4618 27.3864 10.412C28.1159 9.93485 28.5406 9.35544 28.6475 8.68301C28.8031 7.671 28.1542 6.86477 28.1251 6.83201L27.6832 6.28932L27.4075 6.93296L27.4073 6.93342C27.3858 6.98075 26.9212 8.00394 25.9485 8.00394H25.8759C25.8555 8.00273 25.8355 8.00166 25.8157 8.0006L25.8155 8.00058C25.7701 7.99815 25.726 7.99578 25.682 7.99212C25.7163 7.53203 25.6318 6.8202 24.9829 6.15294C24.2033 5.34938 23.2455 5.22878 22.7443 5.22878C22.4981 5.22878 22.3278 5.25644 22.2875 5.263L22.2873 5.26303L22.284 5.26355C22.2822 5.26385 22.2808 5.26407 22.2799 5.26421L21.6124 5.39525L22.024 5.93405C22.3472 6.34958 22.64 7.1165 22.293 7.51763C22.1881 7.63815 21.9776 7.73745 21.7695 7.83564L21.7351 7.85186C21.2853 8.05764 20.6718 8.34343 20.6718 9.07233C20.6718 9.54424 21.0399 10.0371 21.7073 10.4566C23.6835 11.6914 24.9024 12.98 25.4287 14.4023C26.2426 16.5902 25.1807 17.8382 24.1491 18.4949L23.6861 18.7911L24.0911 19.1608L24.0912 19.1609C24.1458 19.2086 24.6417 19.642 25.3733 19.7049C25.5118 19.714 25.645 19.7218 25.7691 19.7218C26.2387 19.7218 26.6384 19.6485 26.9629 19.5501C26.8733 19.7061 26.7637 19.8648 26.6252 20.0247C26.0356 20.7037 25.31 21.0131 24.2665 21.0289L23.8787 21.0354L23.8483 21.4221C23.8444 21.4994 23.8154 22.2165 24.4987 22.8261C24.6029 22.9204 24.7296 22.9978 24.8615 23.062C24.3984 23.4762 23.9275 24.1972 23.8365 25.4334C23.76 26.465 23.512 26.8465 23.5094 26.8504L23.0807 27.5006L23.855 27.5111C25.1346 27.5111 26.1147 27.1598 26.794 26.465C27.1951 26.0534 27.4246 25.5893 27.5605 25.1778C27.7835 25.3665 28.071 25.5316 28.4456 25.6195C28.5881 25.6523 28.7438 25.6706 28.9113 25.6706C29.254 25.6706 29.5432 25.6023 29.6017 25.5885C29.6049 25.5877 29.6074 25.5871 29.6092 25.5867L30.1039 25.4556L29.8849 24.9968L29.8842 24.9953C29.8601 24.9399 29.461 24.0255 29.9007 22.7264C30.092 22.1588 30.1895 21.6502 30.237 21.2543C30.5484 21.4155 30.9653 21.5492 31.5048 21.5505C32.6946 21.5505 33.2376 20.6925 33.2903 20.6093C33.2918 20.6069 33.2929 20.6052 33.2936 20.6041L33.535 20.1872L33.0878 20.0037C31.6288 19.402 31.3056 17.7857 31.241 16.91C31.3729 16.9349 31.5233 16.9586 31.6935 16.9637H31.7673ZM32.9242 20.3904C32.9242 20.3904 32.4968 21.1284 31.5167 21.1284H31.5048C30.3281 21.1219 29.8532 20.4088 29.8532 20.4088C29.8532 20.4088 29.9218 21.3369 29.497 22.5887C28.9865 24.0976 29.501 25.1765 29.501 25.1765C29.501 25.1765 29.2266 25.2498 28.91 25.2498C28.7887 25.2498 28.662 25.238 28.5433 25.2065C27.5605 24.9746 27.3152 24.0857 27.3152 24.0857C27.3152 24.0857 27.4061 27.089 23.8827 27.089H23.855C23.855 27.089 24.165 26.6695 24.2573 25.4622C24.4248 23.2337 25.9432 22.9283 25.9432 22.9283C25.9432 22.9283 25.1332 22.8273 24.7823 22.5141C24.2335 22.0198 24.2718 21.4483 24.2718 21.4483C25.5118 21.4313 26.3232 21.0118 26.9418 20.3C27.612 19.5292 27.7228 18.6994 27.7228 18.6994C27.7228 18.6994 27.0565 19.2998 25.7678 19.2998C25.6543 19.2998 25.533 19.2945 25.4089 19.2827C24.7995 19.2342 24.3773 18.8488 24.3773 18.8488C25.7189 17.9941 26.6608 16.5024 25.8258 14.2555C25.157 12.4557 23.5502 11.1107 21.933 10.0974C21.3947 9.76312 21.0953 9.39216 21.0953 9.07233C21.0953 8.61141 21.4992 8.42397 21.9138 8.2316C22.176 8.10993 22.4424 7.98628 22.6137 7.79022C23.1228 7.20297 22.8036 6.25001 22.3617 5.67715C22.3617 5.67715 22.5107 5.64698 22.7456 5.64698C23.2113 5.64698 24.0172 5.76362 24.6794 6.44527C25.5593 7.34978 25.1939 8.33429 25.1939 8.33429L25.43 8.38015C25.5655 8.40909 25.6996 8.41511 25.8384 8.42134L25.8562 8.42214C25.872 8.42214 25.8878 8.42246 25.9036 8.42278C25.9194 8.42311 25.9353 8.42343 25.9512 8.42343C27.2294 8.42343 27.8006 7.09546 27.8006 7.09546C27.8006 7.09546 29.1594 8.75637 27.1595 10.0567C26.8152 10.2796 26.6635 10.4854 26.7031 10.7056L26.7347 10.8499L26.8771 10.8748C28.2636 11.2483 28.9949 12.1734 29.8396 13.2417C29.8782 13.2905 29.917 13.3396 29.9561 13.389C31.3161 15.1076 33.2408 15.1627 33.4783 15.1627H33.5033C33.5033 15.1627 33.064 16.5404 31.7699 16.5404C31.7488 16.5404 31.7304 16.5404 31.708 16.5391C31.113 16.518 30.8083 16.2913 30.8083 16.2913C30.8083 16.2913 30.5748 19.4204 32.9242 20.3904ZM30.2188 11.8199C29.9168 11.4477 29.5724 11.0282 28.9802 10.7149L28.3707 10.3885L28.9353 9.9939C28.9376 9.99251 28.9407 9.99051 28.9448 9.98798C29.0243 9.93806 29.4367 9.67924 29.984 9.67924C30.455 9.67924 30.8916 9.872 31.2531 10.2377C32.1316 11.1304 32.9205 11.2012 32.9495 11.2025L33.5629 11.2392L33.3096 11.7977C33.0577 12.3547 32.3928 12.7573 31.7306 12.7573C31.5617 12.7573 31.3955 12.7323 31.2385 12.6785C30.803 12.5347 30.5221 12.191 30.229 11.8324L30.2188 11.8199ZM30.951 10.5353C30.6251 10.201 30.2808 10.1014 29.9854 10.1014C29.5263 10.1014 29.1806 10.3425 29.1806 10.3425C29.8483 10.6952 30.2288 11.1633 30.5484 11.5564C30.8205 11.8912 31.0484 12.1716 31.3718 12.2801C31.4918 12.3207 31.6119 12.3391 31.7319 12.3391C32.2504 12.3391 32.7517 12.0047 32.9244 11.6246C32.9244 11.6246 31.9734 11.567 30.951 10.5353ZM29.257 16.2848V16.3059C28.9009 13.4507 26.8139 11.3888 24.4922 10.1343C24.2772 10.0202 24.0794 9.92321 23.8868 9.83011C24.5938 9.9389 25.7322 9.95201 26.6108 9.19431C26.6108 9.19431 25.2665 10.1775 22.5122 9.28483C22.7332 9.42732 23.0146 9.58677 23.3358 9.76874L23.3358 9.76876C24.1227 10.2146 25.148 10.7955 26.1082 11.5933C29.4892 14.5453 27.0699 17.4253 27.0699 17.4253C28.2848 16.1656 28.3349 14.8154 27.9775 13.713C28.6172 14.7708 29.0262 16.0554 28.9628 17.639C28.8692 19.9081 27.6147 21.8705 26.2942 23.4475C25.6597 24.2131 25.5172 25.1529 25.5172 25.1529C25.5172 25.1529 25.7731 24.3232 26.5079 23.4698C27.9233 21.8234 29.133 20.1126 29.2913 17.6482C29.4378 18.0952 30.0406 19.3392 30.997 19.8072L30.9967 19.807C30.9729 19.7922 29.7918 19.0575 29.257 16.2848ZM11.237 26.8465C11.2379 26.848 11.2384 26.8489 11.2385 26.849L11.6685 27.4979L10.8928 27.5084C9.61324 27.5084 8.63442 27.1571 7.9538 26.4623C7.55405 26.0507 7.32318 25.5866 7.1886 25.175C6.96834 25.3638 6.67816 25.5289 6.3022 25.6168C6.16237 25.6495 6.00668 25.6679 5.83779 25.6679C5.48847 25.6679 5.19123 25.5963 5.1437 25.5849L5.14002 25.584L4.64397 25.453L4.86294 24.9941L4.86366 24.9924C4.88845 24.9357 5.2878 24.0217 4.84846 22.7237C4.65716 22.1561 4.55957 21.6474 4.51207 21.2516C4.19939 21.4128 3.78257 21.5465 3.24703 21.5479C2.03866 21.5479 1.49576 20.6665 1.45703 20.6037L1.45561 20.6014L1.21414 20.1846L1.66001 20.001C3.12039 19.398 3.44351 17.7816 3.50954 16.9073C3.37497 16.9335 3.22453 16.9558 3.05703 16.9611L2.98056 16.9637C1.39224 16.9637 0.863264 15.3592 0.842143 15.291L0.660156 14.726L1.25767 14.7444C1.46742 14.7444 3.22195 14.6985 4.46198 13.1307L4.57931 12.9851L4.58931 12.9725C5.39694 11.9521 6.16405 10.9829 7.53163 10.5404C7.49206 10.505 7.43663 10.4604 7.35749 10.4106C6.62799 9.93342 6.20323 9.354 6.09771 8.68157C5.94309 7.69421 6.56141 6.90076 6.61337 6.83408L6.61609 6.83058L7.06205 6.28789L7.33775 6.93153L7.33798 6.93203C7.35973 6.98004 7.82295 8.0025 8.79804 8.0025H8.86925C8.88836 8.00138 8.90724 8.00036 8.92597 7.99935L8.92637 7.99932L8.92661 7.99931C8.97232 7.99684 9.0171 7.99441 9.06184 7.99069C9.02891 7.53189 9.1146 6.82014 9.76497 6.15159C10.5459 5.34804 11.501 5.22743 12.0023 5.22743C12.2439 5.22743 12.4101 5.25384 12.4557 5.26111C12.4609 5.26193 12.4646 5.26251 12.4666 5.26277L13.1368 5.3939L12.7225 5.93262C12.4006 6.34824 12.1065 7.11636 12.4548 7.5162C12.5598 7.63672 12.7702 7.73602 12.9784 7.83421L13.0127 7.85043C13.4626 8.05501 14.0746 8.34208 14.0746 9.07089C14.0746 9.5428 13.7093 10.0357 13.0418 10.4552C11.063 11.69 9.8454 12.9786 9.31909 14.4009C8.50648 16.5875 9.56444 17.8354 10.6 18.4935L11.063 18.7898L10.658 19.1594C10.6027 19.2079 10.1066 19.6405 9.37453 19.7034C9.23599 19.7126 9.10538 19.7205 8.97874 19.7205C8.50778 19.7205 8.1107 19.647 7.78621 19.5488C7.87595 19.7047 7.98673 19.8633 8.12397 20.0233C8.71356 20.701 9.44047 21.0103 10.4813 21.0274L10.8717 21.034L10.8981 21.4207C10.9021 21.498 10.9311 22.215 10.2491 22.8246C10.1449 22.9203 10.0209 22.9976 9.88635 23.0606C10.3507 23.4748 10.8203 24.1958 10.9127 25.4319C10.9885 26.42 11.2167 26.8117 11.237 26.8465ZM7.43008 24.0857C7.43008 24.0857 7.34033 27.0889 10.8639 27.0889H10.8889C10.8889 27.0889 10.5815 26.6694 10.4905 25.4621C10.3243 23.2336 8.80459 22.9282 8.80459 22.9282C8.80459 22.9282 9.61462 22.8259 9.96678 22.5139C10.5156 22.0198 10.476 21.4482 10.476 21.4482C9.23599 21.4311 8.42467 21.0116 7.80207 20.2999C7.13584 19.5291 7.02507 18.6993 7.02507 18.6993C7.02507 18.6993 7.69129 19.2997 8.97874 19.2997C9.09486 19.2997 9.21486 19.2944 9.33892 19.2826C9.94963 19.2341 10.3718 18.8487 10.3718 18.8487C9.02753 17.9927 8.08699 16.5023 8.92072 14.2554C9.58824 12.4556 11.1949 11.1106 12.8136 10.0973C13.3518 9.76307 13.6512 9.39073 13.6512 9.07219C13.6512 8.61093 13.2472 8.42307 12.833 8.23049C12.5715 8.10892 12.306 7.98547 12.1355 7.79017C11.6263 7.20291 11.9455 6.25116 12.3862 5.67701C12.3862 5.67701 12.2397 5.64692 12.0036 5.64692C11.5392 5.64692 10.7333 5.76227 10.071 6.44522C9.18978 7.34973 9.55522 8.33415 9.55522 8.33415L9.31909 8.3801C9.1921 8.40742 9.0629 8.41427 8.9326 8.42118H8.93257C8.9194 8.42187 8.90623 8.42257 8.89305 8.42329C8.87641 8.42329 8.86078 8.42364 8.84533 8.42399H8.8453H8.84528H8.84525H8.84523H8.84521H8.84518C8.83001 8.42433 8.81499 8.42467 8.79934 8.42467C7.51844 8.42467 6.94989 7.098 6.94989 7.098C6.94989 7.098 5.59115 8.75761 7.59103 10.0593C7.93526 10.2821 8.0857 10.4879 8.04613 10.7082L8.0144 10.8524L7.86931 10.8773C6.4831 11.2527 5.75055 12.1791 4.90402 13.2496C4.86683 13.2967 4.82942 13.344 4.79173 13.3915C3.4317 15.1101 1.50966 15.1652 1.27086 15.1652H1.24448C1.24448 15.1652 1.68242 16.5429 2.97789 16.5429C2.99901 16.5429 3.01875 16.5429 3.03987 16.5416C3.63618 16.5193 3.94085 16.2938 3.94085 16.2938C3.94085 16.2938 4.17171 19.4216 1.82364 20.3903C1.82364 20.3903 2.25106 21.1284 3.23117 21.1284H3.24307C4.42103 21.1218 4.89467 20.4087 4.89467 20.4087C4.89467 20.4087 4.82604 21.3367 5.24812 22.5887C5.75865 24.0975 5.24683 25.1763 5.24683 25.1763C5.24683 25.1763 5.51994 25.2498 5.8365 25.2498C5.95918 25.2498 6.08452 25.238 6.20194 25.2065C7.18472 24.9744 7.43008 24.0857 7.43008 24.0857ZM3.01621 12.7587C3.18638 12.7587 3.3526 12.7337 3.50958 12.6799C3.94596 12.5367 4.22505 12.1951 4.51685 11.8381L4.53056 11.8213L4.53143 11.8202L4.53143 11.8202C4.83467 11.4482 5.17623 11.0293 5.76792 10.7163L6.37742 10.3912L5.81145 9.9966L5.80616 9.9932C5.73829 9.94959 5.32196 9.68202 4.76539 9.68202C4.29314 9.68202 3.85519 9.8734 3.49501 10.2404C2.61646 11.1318 1.82894 11.2039 1.79988 11.2052L1.1865 11.2406L1.43849 11.8004C1.69178 12.3548 2.35524 12.7587 3.01621 12.7587ZM3.79709 10.5367C4.12425 10.2024 4.46857 10.1028 4.76539 10.1028C5.22178 10.1028 5.56748 10.3439 5.56748 10.3439C4.902 10.6965 4.52161 11.1633 4.20182 11.5557C3.92825 11.8914 3.69904 12.1727 3.37363 12.2815C3.25759 12.3221 3.13621 12.3405 3.01621 12.3405C2.49774 12.3405 1.99644 12.0075 1.82497 11.626C1.82497 11.626 1.8262 11.6259 1.82861 11.6256C1.89332 11.6193 2.81147 11.53 3.79709 10.5367ZM6.76911 13.7142C6.12805 14.7721 5.71908 16.0568 5.78503 17.6403C5.87736 19.9095 7.13187 21.8732 8.44975 23.4475C9.08693 24.213 9.23072 25.153 9.23072 25.153C9.23072 25.153 8.97218 24.3231 8.23733 23.4698C6.82187 21.8233 5.61227 20.1127 5.45261 17.6482C5.30622 18.0965 4.70465 19.3392 3.74954 19.8072C3.74954 19.8072 4.95001 19.0876 5.48959 16.2836V16.3059C5.84701 13.4508 7.93267 11.3887 10.257 10.1342C10.4601 10.0252 10.6523 9.93169 10.836 9.84239L10.8612 9.83016C10.1541 9.94025 9.01563 9.95335 8.13707 9.19566C8.13707 9.19566 9.48133 10.1788 12.2344 9.28609C12.013 9.42909 11.7308 9.58917 11.4085 9.77195L11.4085 9.77196C10.6229 10.2175 9.59942 10.798 8.63967 11.5946C5.25734 14.5467 7.67672 17.4267 7.67672 17.4267C6.46048 16.1669 6.41168 14.8167 6.76911 13.7142ZM16.5785 11.8633V12.4296C16.7751 12.1923 17.155 12.2409 17.155 12.2409V13.0575C17.155 13.0575 17.1418 13.4587 16.998 13.633H17.4096H17.8199C17.6787 13.4599 17.6642 13.0575 17.6642 13.0575V12.2409C17.6642 12.2409 18.0441 12.1923 18.2394 12.4296V11.8633H17.4096H16.5785ZM16.6364 8.74699C16.6013 8.73535 16.4561 8.68713 16.225 8.50477C15.791 8.16916 15.7818 7.86113 15.7818 7.85984L16.7474 8.26356V8.79711L16.6445 8.74995C16.6439 8.74947 16.6411 8.74857 16.6364 8.74699ZM18.5217 8.50477C18.9584 8.16916 18.9663 7.85984 18.9663 7.85984L18.0007 8.26356V8.79711L18.1022 8.74995C18.1029 8.74952 18.1054 8.74873 18.1094 8.74741C18.1428 8.73655 18.2877 8.68944 18.5217 8.50477ZM17.3779 4.7963C18.891 4.7963 20.2616 5.52382 20.2616 6.33263L20.2326 6.53186L19.6284 9.97816L20.2326 10.3282L21.8024 11.2392H21.7971C21.7971 11.2392 22.1506 11.4188 22.3115 11.5303C22.9131 11.9432 23.0385 12.5449 22.6915 12.7939C22.6044 12.3024 22.2152 11.7898 21.4845 11.7898C20.9581 11.7898 20.5584 12.0586 20.2312 12.465C20.1494 12.5672 20.0717 12.676 19.9964 12.7939C19.9054 12.942 19.8144 13.0732 19.7247 13.1977H23.7693C23.4711 13.7915 23.1888 14.4208 23.1888 15.1037V23.9967C23.1888 26.1492 21.5253 27.1769 19.7221 27.1769C19.6151 27.1769 19.5153 27.1765 19.4217 27.1762C18.2956 27.1719 18.0817 27.1711 17.3753 27.8742C16.6642 27.1713 16.4505 27.1721 15.3212 27.1762C15.2291 27.1765 15.1309 27.1769 15.0258 27.1769C13.2239 27.1769 11.5577 26.1492 11.5577 23.9967V15.1037C11.5577 14.4208 11.2755 13.7915 10.9787 13.1977H15.0219C14.9308 13.0719 14.8398 12.942 14.7488 12.7939C14.675 12.676 14.5958 12.5672 14.5127 12.465C14.1881 12.0599 13.7872 11.7898 13.2608 11.7898C12.53 11.7898 12.1395 12.3037 12.0538 12.7939C11.7069 12.5449 11.8335 11.9432 12.431 11.5303C12.5946 11.4188 12.9482 11.2392 12.9482 11.2392H12.9428L14.5127 10.3282L15.1195 9.97816L14.5153 6.53186L14.485 6.33263C14.485 5.52382 15.8556 4.7963 17.3687 4.7963H17.3726H17.3766H17.3779ZM17.2037 7.44947L15.0799 6.73376L15.6406 9.9454L17.2037 10.7647V7.44947ZM16.5336 14.4522C16.2091 14.3342 15.8675 14.1205 15.5192 13.7758V13.7784H11.852C12.0089 14.1979 12.1421 14.6528 12.1421 15.105V19.7731H20.2814C19.8737 19.3562 19.8804 18.8279 19.9832 18.4844C19.8645 18.4281 19.7669 18.3599 19.6798 18.2852C19.3619 18.5173 18.3923 19.2199 18.1377 19.3969L18.0837 19.4322L14.89 18.8593H14.8253C14.7488 18.8593 14.6367 18.8568 14.514 18.8424C14.4784 18.9852 14.3543 19.0835 14.2119 19.0835C14.1961 19.0835 14.1776 19.0822 14.1605 19.0796C14.0786 19.0652 14.0048 19.0232 13.9574 18.9537C13.9072 18.8856 13.8887 18.8043 13.9019 18.7204L13.9138 18.6523C13.5853 18.4216 13.2806 17.9064 13.4151 17.3636L13.4284 17.3059L13.4758 17.2732C13.4824 17.2679 13.5365 17.2313 13.6196 17.184L13.3874 17.1487C13.3004 17.1329 13.2423 17.053 13.2555 16.9677C13.27 16.8826 13.3518 16.8196 13.4376 16.8367L13.9903 16.9232L14.0405 14.9884L14.8636 14.1232L15.3767 15.1968L14.8345 17.0569L15.3226 17.1329C15.4084 17.146 15.4677 17.226 15.4545 17.3139C15.4414 17.3925 15.3741 17.4449 15.2976 17.4449C15.2896 17.4449 15.2818 17.4449 15.2725 17.4436L14.8755 17.3794C14.8778 17.387 14.8814 17.3924 14.885 17.3978C14.8877 17.4018 14.8904 17.4059 14.8926 17.4109C14.9348 17.4987 15.0285 17.5603 15.0838 17.5878L17.5177 17.6259L17.5223 17.6214C17.6293 17.5177 17.8817 17.2733 18.1404 17.0137C17.5401 16.7869 17.3238 16.2743 17.2868 15.9335C16.9531 15.7919 16.721 15.5795 16.593 15.3042C16.436 14.9622 16.4914 14.6187 16.5336 14.4522ZM18.0111 19.0953C18.3119 18.8856 19.1429 18.2826 19.4661 18.0467C19.2313 17.7058 19.2089 17.3021 19.2616 17.0189C19.1086 16.9206 18.9912 16.8091 18.8976 16.6925C18.5504 17.0686 17.91 17.6885 17.7362 17.8566C17.7126 17.8795 17.6976 17.8941 17.6931 17.8985L17.647 17.9457L15.2079 17.9064C15.2052 18.1462 15.167 18.3507 15.1288 18.5002C15.1252 18.5142 15.1217 18.5279 15.1182 18.5416C15.1151 18.5534 15.112 18.5653 15.1089 18.5775L18.0111 19.0953ZM14.886 17.8395C14.8002 17.7858 14.6763 17.6901 14.6076 17.5472C14.5285 17.382 14.4164 17.3046 14.2515 17.3059C14.0378 17.3059 13.8096 17.4331 13.7106 17.4934C13.6315 17.951 13.9718 18.3665 14.2 18.4504C14.4058 18.5251 14.6578 18.5408 14.7857 18.5408C14.791 18.5251 14.7976 18.5055 14.8042 18.4818C14.8161 18.4438 14.8266 18.4058 14.8345 18.3652C14.8701 18.1817 14.8833 17.9732 14.886 17.8395ZM14.3543 15.1142L14.3056 16.9717L14.518 17.0032L15.0377 15.2204L14.7738 14.6724L14.3543 15.1142ZM19.0031 26.6093C19.135 26.604 19.2815 26.6014 19.4397 26.6014C19.4397 26.6014 19.8184 25.5016 19.8408 25.4675C19.6284 25.3744 19.1877 25.1424 19.0176 25.0362C19.0541 25.0904 19.1076 25.147 19.1613 25.2039C19.2728 25.3219 19.3852 25.441 19.3487 25.5409L19.0031 26.6093ZM20.2986 26.5569L20.5241 25.3875C20.5492 25.2591 20.5729 25.0886 20.5729 25.0861C20.5601 25.0732 20.5447 25.0582 20.5273 25.0413C20.4259 24.9428 20.2574 24.779 20.1561 24.5866C20.0728 24.4266 20.057 24.3064 20.0393 24.1711C20.0233 24.0492 20.0058 23.9149 19.9358 23.728C19.9358 23.728 19.9819 23.6362 20.0861 23.6362C20.102 23.6362 20.1204 23.6375 20.1376 23.6427C20.2748 23.6817 20.3685 23.9131 20.4743 24.1743C20.6177 24.5283 20.7834 24.9373 21.1098 24.9969C21.1652 25.0074 21.2167 25.0113 21.2615 25.0113C21.4251 25.0113 21.5227 24.9431 21.6282 24.8186C21.6282 24.8186 21.3433 24.3729 21.1296 24.0728C21.0847 24.0102 21.0413 23.9457 20.9982 23.8814C20.7688 23.5397 20.5432 23.2036 20.098 23.2036C20.0848 23.2036 20.0703 23.2036 20.0571 23.2049C19.883 23.2141 19.7761 23.298 19.7761 23.298C19.5624 23.1643 19.3619 23.1184 19.1825 23.1184C18.9797 23.1184 18.8044 23.1754 18.6693 23.2193C18.5847 23.2468 18.516 23.2692 18.4662 23.2692H18.4609L17.2816 23.1538C17.0969 23.1368 16.9518 22.952 16.8991 22.8798C16.8859 22.8601 16.8792 22.8483 16.8792 22.8483C16.8792 22.8169 16.8792 22.7841 16.8767 22.7553C16.8371 21.7984 16.0904 21.388 15.824 21.3815C15.824 21.3815 15.8543 21.1993 15.783 21.1298L15.5232 21.4431L14.6697 21.0171L15.2791 21.7236L14.7633 22.2978C14.6974 22.3633 14.7066 22.4512 14.733 22.4892L14.9559 22.6845L15.2382 22.5141C15.2527 22.5036 15.2791 22.501 15.3095 22.501C15.3454 22.501 15.3898 22.5052 15.4376 22.5097C15.4933 22.515 15.5535 22.5206 15.6102 22.5206C15.7263 22.5206 15.8252 22.497 15.8371 22.3895C15.8264 22.4966 15.7889 22.6274 15.7476 22.7713C15.6518 23.1048 15.536 23.5084 15.6881 23.8472L15.8503 24.2143L14.8082 24.0648L14.3201 24.8842C14.1684 25.1568 14.1446 25.4505 14.2898 25.6117L14.4731 25.8385C14.4731 25.8385 14.729 25.5698 14.7857 25.3915L14.7026 25.301C14.6327 25.225 14.6354 25.1555 14.6789 25.0743L14.985 24.5709L16.2157 24.8592L16.2816 24.7492C16.3647 24.6102 16.4848 24.5696 16.6167 24.5696C16.6708 24.5696 16.7262 24.5761 16.7842 24.5853C17.0125 24.6298 17.3885 24.6902 17.7644 24.6902C18.176 24.6902 18.5863 24.618 18.8039 24.3742C19.0324 24.7107 19.3809 24.902 19.657 25.0534C19.9198 25.1976 20.1169 25.3058 20.0822 25.4688L19.8447 26.5935C20.0017 26.587 20.1548 26.5765 20.2986 26.5569ZM14.2449 24.4162L14.1908 24.2811C14.1512 24.1934 14.1565 24.0977 14.2304 24.0466L14.671 23.7437L15.407 23.884C15.407 23.884 15.2739 23.7188 15.287 23.4972L14.5852 23.3491L13.923 23.7502C13.6381 23.9613 13.6183 24.306 13.7119 24.5105L13.8004 24.7019C13.8004 24.7019 14.2093 24.5342 14.2449 24.4162ZM20.8368 25.4465L20.6349 26.4927C21.842 26.1976 22.6084 25.2931 22.6071 23.9954L22.6044 20.0851H12.1408V23.9954C12.1408 25.5947 13.3056 26.5962 15.0245 26.5962C16.461 26.5962 16.8397 26.6512 17.3739 27.1782C17.742 26.8125 18.0467 26.6761 18.672 26.6264L18.6865 26.5647L19.0163 25.5527C18.9978 25.5291 18.4582 24.9209 18.4582 24.9209C18.2432 24.9917 18.0638 25.0035 17.7631 25.0035C17.453 25.0035 17.1035 24.968 16.7249 24.8973C16.6866 24.8894 16.651 24.8855 16.6154 24.8855C16.5692 24.8855 16.5653 24.8894 16.5535 24.9117L16.4875 25.0192L16.3674 25.2158L16.1418 25.1647L15.138 24.93L15.0007 25.1555L15.0206 25.1791L15.1432 25.3128L15.0892 25.4872C15.0153 25.7152 14.7765 25.9813 14.7026 26.0548L14.452 26.3222L14.2238 26.0351L14.0523 25.8201C13.8703 25.6182 13.8293 25.3115 13.931 24.989C13.9283 24.9917 13.9243 24.993 13.9204 24.9942L13.638 25.111L13.5101 24.8356L13.4204 24.6404C13.266 24.2969 13.3228 23.7948 13.7383 23.492L14.5469 23.0384L15.316 23.1892C15.3244 23.1558 15.3348 23.0834 15.3455 23.008C15.3584 22.9177 15.3718 22.8232 15.3833 22.7868C15.3689 22.7855 15.3557 22.7815 15.3398 22.7815L14.8965 22.9454L14.4692 22.6531C14.4692 22.6531 14.3016 22.4931 14.4533 22.3332L14.8676 21.7105L13.8188 20.4022L15.4308 21.0604L15.5377 20.9279L15.7553 20.6684L16.0034 20.9017C16.0733 20.9685 16.1128 21.0511 16.1326 21.1337C16.5772 21.3054 17.3739 21.8128 17.4438 22.6373L17.1945 22.7369V22.7422C17.2512 22.8103 17.2987 22.8379 17.3132 22.8405L18.4649 22.9532C18.4847 22.9497 18.5082 22.9424 18.5342 22.9344C18.5462 22.9307 18.5587 22.9268 18.5717 22.9231C18.7142 22.8746 18.9292 22.8051 19.1839 22.8051C19.3909 22.8051 19.5901 22.851 19.7841 22.9414C19.854 22.9152 19.941 22.8956 20.0426 22.889L20.098 22.8877C20.7135 22.8877 21.0208 23.3443 21.2661 23.7086L21.2668 23.7096C21.3077 23.7739 21.3486 23.8328 21.3908 23.8918C21.6071 24.1934 21.8868 24.6338 21.8987 24.6535L22.0253 24.8501L21.8696 25.0297C21.7496 25.1673 21.5702 25.3286 21.2615 25.3286C21.1982 25.3286 21.1282 25.322 21.0531 25.3075C20.9871 25.2958 20.9264 25.2762 20.8697 25.2525C20.8633 25.2946 20.8549 25.3424 20.8468 25.3884C20.8434 25.4083 20.8399 25.4279 20.8368 25.4465ZM22.6044 15.1024C22.6044 14.6502 22.7377 14.1953 22.8972 13.7758V13.7745H19.234C18.672 14.3277 18.1325 14.5335 17.651 14.5807C17.5639 14.5898 17.4755 14.5951 17.3858 14.5951H17.3793H17.3739C17.2843 14.5951 17.1945 14.5898 17.1074 14.5807C17.023 14.5741 16.9347 14.5597 16.8463 14.54C16.8146 14.6646 16.7737 14.9242 16.8885 15.1718C16.9901 15.3961 17.1972 15.5625 17.4993 15.6739L17.6008 15.7132L17.6022 15.822C17.6022 15.8549 17.6259 16.5614 18.3989 16.7567C18.5243 16.6283 18.639 16.5103 18.7247 16.4132C18.5664 16.0436 18.6495 15.6661 18.8791 15.4812C18.8699 15.5193 18.7683 16.446 19.5149 16.7895L19.6376 16.8471L19.6007 16.9783C19.5875 17.0163 19.3395 17.9129 20.2431 18.2459L20.4027 18.3061L20.3315 18.4609C20.3143 18.4949 19.9608 19.3077 20.7958 19.7691H22.6058V18.3403C21.962 18.2616 21.6889 17.7478 21.619 17.3834C21.3195 17.3322 21.0887 17.2037 20.9291 16.994C20.5903 16.551 20.8137 16.1414 20.8689 16.0401C20.8756 16.0278 20.8799 16.0201 20.8803 16.0174C20.8789 16.0213 20.8803 16.5064 21.1811 16.8052C21.3301 16.9494 21.5069 17.0621 21.7733 17.0871L21.9052 17.0989L21.9171 17.2326C21.9198 17.2614 21.9923 17.9182 22.6058 18.0204L22.6044 15.1024ZM20.7918 11.2392L20.0769 10.8263L19.3408 10.4082L17.3779 11.4699L17.3726 11.466L17.3687 11.4699L15.4058 10.4082L14.671 10.8263L13.956 11.2392H13.948L13.7661 11.3428C14.171 11.4529 14.4784 11.6522 14.7382 11.9156C14.7436 11.9203 14.7481 11.9253 14.7526 11.9302C14.758 11.9362 14.7634 11.9421 14.7699 11.9471C14.8266 12.0087 14.8833 12.0755 14.9388 12.1424C14.952 12.1581 14.9638 12.1726 14.977 12.1909C15.0285 12.2578 15.0786 12.3286 15.1288 12.4006C15.1346 12.4087 15.1405 12.4175 15.1465 12.4267C15.1514 12.434 15.1564 12.4416 15.1617 12.4492C15.2211 12.5383 15.2764 12.63 15.3319 12.7244C15.8411 13.5962 16.6537 14.1166 17.3753 14.1179C18.0982 14.1166 18.9108 13.5962 19.42 12.7244C19.4767 12.6275 19.5334 12.5331 19.5928 12.4452C19.602 12.4335 19.6112 12.4204 19.6191 12.4072C19.6693 12.3312 19.7207 12.2591 19.7761 12.1883C19.7828 12.1802 19.789 12.1722 19.7951 12.1644C19.7998 12.1582 19.8045 12.1522 19.8091 12.1464C19.8645 12.0769 19.9239 12.0087 19.9832 11.9458C19.9865 11.9426 19.9898 11.9391 19.9931 11.9357C19.9991 11.9295 20.005 11.9234 20.011 11.9183C20.2695 11.6548 20.5782 11.4542 20.9818 11.3428L20.8024 11.2392H20.7918ZM17.5441 10.766L19.1086 9.94669L19.6666 6.73376L17.5441 7.44947V10.766ZM15.047 6.17142L17.3739 7.08507L19.701 6.17142C19.5044 5.70606 18.5915 5.3101 17.3739 5.30881C16.1577 5.3101 15.2448 5.70606 15.047 6.17142Z" fill="#ACACAC"/>
</svg>