<svg width="12" height="12" viewBox="0 0 12 12" fill="none" xmlns="http://www.w3.org/2000/svg">
<circle cx="6" cy="6" r="6" fill="#707070"/>
<path d="M5.2959 8.60156C5.10449 8.60156 4.96094 8.52979 4.83105 8.36914L3.06055 6.18848C2.96143 6.06885 2.92041 5.95605 2.92041 5.83643C2.92041 5.56299 3.12207 5.36475 3.40234 5.36475C3.56982 5.36475 3.68604 5.42627 3.79883 5.56641L5.28223 7.44629L8.17725 2.85938C8.29346 2.6748 8.40967 2.60645 8.60107 2.60645C8.87793 2.60645 9.07617 2.80127 9.07617 3.07129C9.07617 3.17725 9.04541 3.28662 8.96338 3.40967L5.76416 8.35889C5.65479 8.52295 5.49756 8.60156 5.2959 8.60156Z" fill="white"/>
</svg>
