<svg xmlns="http://www.w3.org/2000/svg" width="18" height="18" viewBox="0 0 18 18" fill="none">
<path d="M14.974 3.77596L15.3188 3.43125L14.974 3.77596C15.6647 4.46659 16.0125 5.32138 16.0125 6.375C16.0125 6.89404 15.9253 7.40181 15.7496 7.90052C15.5771 8.39005 15.2653 8.94968 14.7962 9.58117C14.3274 10.2121 13.6887 10.9344 12.874 11.749C12.0571 12.5659 11.0203 13.5409 9.76172 14.6748C9.76154 14.675 9.76136 14.6752 9.76118 14.6753L9 15.3578L8.23882 14.6753C8.23867 14.6752 8.23852 14.6751 8.23837 14.6749C6.9798 13.541 5.94287 12.5659 5.12596 11.749C4.31133 10.9344 3.67256 10.2121 3.20384 9.58117C2.73474 8.94968 2.42288 8.39005 2.25043 7.90052C2.07475 7.40181 1.9875 6.89404 1.9875 6.375C1.9875 5.32138 2.33533 4.4666 3.02596 3.77596C3.7166 3.08533 4.57138 2.7375 5.625 2.7375C6.20372 2.7375 6.75191 2.85937 7.27458 3.10402C7.79802 3.34904 8.24828 3.69335 8.62855 4.14073L9 4.57772L9.37145 4.14073C9.75172 3.69335 10.202 3.34904 10.7254 3.10402C11.2481 2.85937 11.7963 2.7375 12.375 2.7375C13.4286 2.7375 14.2834 3.08533 14.974 3.77596Z" stroke="#898785" stroke-width="0.975"/>
</svg>