<svg xmlns="http://www.w3.org/2000/svg" width="19" height="19" viewBox="0 0 19 19" fill="none">
  <path d="M10.1 3.62449L10.1 3.62449C11.3785 3.83201 12.2466 5.03654 12.0391 6.31478L12.0391 6.31484C11.8316 7.59328 10.6272 8.46141 9.34878 8.25392L9.34873 8.25391C8.07029 8.04649 7.20215 6.842 7.40965 5.56362L7.40966 5.56358C7.61708 4.28521 8.82159 3.417 10.1 3.62449Z" stroke="#DE5935" stroke-width="1.3125"/>
  <mask id="path-2-inside-1_6463_74339" fill="white">
    <path d="M15.2016 15.4718C15.2012 15.6124 15.1451 15.7472 15.0457 15.8467C14.9462 15.9461 14.8114 16.0022 14.6708 16.0026H4.78084C4.64026 16.0022 4.50542 15.9461 4.40596 15.8467C4.3065 15.7472 4.25041 15.6124 4.25 15.4718C4.25 14.0195 4.82697 12.6268 5.85382 11.5999C6.88075 10.573 8.27355 9.99609 9.7257 9.99609C11.1778 9.99609 12.5707 10.573 13.5976 11.5999C14.6244 12.6268 15.2014 14.0196 15.2014 15.4718H15.2016Z"/>
  </mask>
  <path d="M15.2016 15.4718L16.5141 15.4756L16.518 14.1593H15.2016V15.4718ZM15.0457 15.8467L14.1176 14.9186L14.1176 14.9186L15.0457 15.8467ZM14.6708 16.0026V17.3151L14.6746 17.3151L14.6708 16.0026ZM4.78084 16.0026L4.77701 17.3151H4.78084V16.0026ZM4.40596 15.8467L5.33405 14.9186L5.33404 14.9186L4.40596 15.8467ZM4.25 15.4718H2.93749L2.93751 15.4756L4.25 15.4718ZM5.85382 11.5999L4.92574 10.6718L4.92572 10.6719L5.85382 11.5999ZM13.5976 11.5999L14.5257 10.6719L14.5257 10.6719L13.5976 11.5999ZM15.2014 15.4718H13.8889V16.7843H15.2014V15.4718ZM13.8891 15.468C13.8897 15.2616 13.9719 15.0642 14.1176 14.9186L15.9737 16.7748C16.3183 16.4302 16.5127 15.9631 16.5141 15.4756L13.8891 15.468ZM14.1176 14.9186C14.2632 14.773 14.4606 14.6907 14.667 14.6901L14.6746 17.3151C15.1621 17.3137 15.6292 17.1193 15.9737 16.7747L14.1176 14.9186ZM14.6708 14.6901H4.78084V17.3151H14.6708V14.6901ZM4.78467 14.6901C4.991 14.6907 5.18841 14.773 5.33405 14.9186L3.47787 16.7747C3.82244 17.1193 4.28951 17.3137 4.77701 17.3151L4.78467 14.6901ZM5.33404 14.9186C5.47967 15.0642 5.56189 15.2616 5.56249 15.468L2.93751 15.4756C2.93893 15.9631 3.13333 16.4302 3.47788 16.7747L5.33404 14.9186ZM5.5625 15.4718C5.5625 14.3677 6.00116 13.3088 6.78192 12.528L4.92572 10.6719C3.65279 11.9449 2.9375 13.6714 2.9375 15.4718H5.5625ZM6.7819 12.528C7.56269 11.7472 8.62165 11.3086 9.7257 11.3086V8.68359C7.92544 8.68359 6.19881 9.39878 4.92574 10.6718L6.7819 12.528ZM9.7257 11.3086C10.8298 11.3086 11.8887 11.7472 12.6695 12.528L14.5257 10.6719C13.2526 9.39877 11.5259 8.68359 9.7257 8.68359V11.3086ZM12.6694 12.5279C13.4502 13.3088 13.8889 14.3678 13.8889 15.4718H16.5139C16.5139 13.6715 15.7986 11.9449 14.5257 10.6719L12.6694 12.5279ZM15.2014 16.7843H15.2016V14.1593H15.2014V16.7843Z" fill="#DE5935" mask="url(#path-2-inside-1_6463_74339)"/>
</svg>