<svg xmlns="http://www.w3.org/2000/svg" width="24" height="24" viewBox="0 0 24 24" fill="none">
<path d="M10.8784 17.7508C12.4164 17.7523 13.9102 17.2347 15.118 16.2823L18.8344 20L20 18.834L16.2837 15.1163C17.5718 13.4717 18.0429 11.3305 17.5632 9.29716C17.0837 7.26368 15.706 5.55861 13.8189 4.66332C11.9317 3.76803 9.74009 3.77952 7.86257 4.69478C5.98505 5.61006 4.6253 7.32947 4.16733 9.36776C3.70936 11.4062 4.20281 13.5424 5.50823 15.1731C6.81369 16.804 8.78984 17.7524 10.8784 17.7508ZM10.8784 5.6499C12.2638 5.6499 13.5926 6.20048 14.5722 7.18039C15.5518 8.1603 16.1023 9.48938 16.1023 10.8752C16.1023 12.261 15.5518 13.5903 14.5722 14.5702C13.5926 15.5501 12.2638 16.1007 10.8784 16.1007C9.49299 16.1007 8.16431 15.5501 7.18471 14.5702C6.2051 13.5903 5.65469 12.261 5.65469 10.8752C5.65469 9.48938 6.2051 8.1603 7.18471 7.18039C8.16431 6.20048 9.49299 5.6499 10.8784 5.6499Z" fill="#898785"/>
</svg>